LibertinusSerif-Italic.ufo
<glyph name="exclam" format="2">
	<unicode hex="0021"/>
	<advance width="227"/>
	<outline>
		<contour>
			<point x="252" y="665" type="curve" smooth="yes"/>
			<point x="198" y="665"/>
			<point x="181" y="626"/>
			<point x="177" y="586" type="curve" smooth="yes"/>
			<point x="168" y="480"/>
			<point x="182" y="380"/>
			<point x="158" y="210" type="curve"/>
			<point x="158" y="208" type="line" smooth="yes"/>
			<point x="158" y="201"/>
			<point x="163" y="197"/>
			<point x="170" y="197" type="curve" smooth="yes"/>
			<point x="180" y="197"/>
			<point x="186" y="206"/>
			<point x="188" y="217" type="curve" smooth="yes"/>
			<point x="218" y="387"/>
			<point x="297" y="547"/>
			<point x="297" y="611" type="curve" smooth="yes"/>
			<point x="297" y="643"/>
			<point x="279" y="665"/>
		</contour>
		<contour>
			<point x="87" y="31" type="curve" smooth="yes"/>
			<point x="87" y="6"/>
			<point x="106" y="-13"/>
			<point x="132" y="-13" type="curve" smooth="yes"/>
			<point x="165" y="-13"/>
			<point x="196" y="16"/>
			<point x="196" y="49" type="curve" smooth="yes"/>
			<point x="196" y="74"/>
			<point x="177" y="93"/>
			<point name=".hr01" x="151" y="93" type="curve" smooth="yes"/>
			<point x="119" y="93"/>
			<point x="87" y="63"/>
		</contour>
	</outline>
</glyph>
<glyph name="dollar" format="2">
	<unicode hex="0024"/>
	<advance width="438"/>
	<outline>
		<contour>
			<point x="457" y="564" type="curve"/>
			<point x="442" y="562"/>
			<point x="423" y="564"/>
			<point x="400" y="567" type="curve" smooth="yes"/>
			<point x="383" y="569"/>
			<point x="363" y="571"/>
			<point x="342" y="572" type="curve"/>
			<point x="353" y="627" type="line"/>
			<point x="342" y="627"/>
			<point x="330" y="627"/>
			<point x="319" y="627" type="curve"/>
			<point x="308" y="571" type="line"/>
			<point x="275" y="568"/>
			<point x="234" y="556"/>
			<point x="200" y="533" type="curve" smooth="yes"/>
			<point x="166" y="510"/>
			<point x="138" y="478"/>
			<point x="129" y="434" type="curve"/>
			<point x="128" y="428"/>
			<point x="127" y="423"/>
			<point x="127" y="417" type="curve"/>
			<point x="125" y="385"/>
			<point x="134" y="359"/>
			<point x="149" y="337" type="curve" smooth="yes"/>
			<point x="174" y="302"/>
			<point x="216" y="280"/>
			<point x="248" y="264" type="curve"/>
			<point x="201" y="22" type="line"/>
			<point x="134" y="30"/>
			<point x="101" y="88"/>
			<point x="96" y="149" type="curve"/>
			<point x="92" y="149"/>
			<point x="87" y="148"/>
			<point x="83" y="148" type="curve"/>
			<point x="78" y="147"/>
			<point x="74" y="147"/>
			<point x="69" y="146" type="curve"/>
			<point x="66" y="90"/>
			<point x="63" y="36"/>
			<point name=".hr01" x="56" y="-1" type="curve"/>
			<point x="77" y="-1"/>
			<point x="77" y="10"/>
			<point x="92" y="10" type="curve" smooth="yes"/>
			<point x="112" y="10"/>
			<point x="141" y="-8"/>
			<point x="195" y="-12" type="curve"/>
			<point name=".hr02" x="181" y="-81" type="line"/>
			<point x="192" y="-81"/>
			<point x="204" y="-81"/>
			<point x="215" y="-81" type="curve"/>
			<point x="229" y="-11" type="line"/>
			<point x="275" y="-9"/>
			<point x="311" y="3"/>
			<point x="338" y="20" type="curve" smooth="yes"/>
			<point x="402" y="59"/>
			<point x="422" y="123"/>
			<point x="429" y="151" type="curve"/>
			<point x="430" y="156" type="line" smooth="yes"/>
			<point x="438" y="201"/>
			<point x="423" y="236"/>
			<point x="399" y="262" type="curve" smooth="yes"/>
			<point x="371" y="292"/>
			<point x="333" y="311"/>
			<point x="304" y="323" type="curve"/>
			<point x="301" y="325"/>
			<point x="298" y="326"/>
			<point x="295" y="327" type="curve"/>
			<point x="336" y="541" type="line"/>
			<point x="391" y="536"/>
			<point x="414" y="501"/>
			<point x="420" y="435" type="curve"/>
			<point x="421" y="429"/>
			<point x="421" y="423"/>
			<point x="422" y="417" type="curve"/>
			<point x="431" y="418"/>
			<point x="440" y="420"/>
			<point x="449" y="421" type="curve"/>
			<point x="450" y="470"/>
			<point x="450" y="519"/>
		</contour>
		<contour>
			<point x="280" y="251" type="line"/>
			<point x="317" y="235"/>
			<point x="368" y="207"/>
			<point x="352" y="127" type="curve" smooth="yes"/>
			<point x="337" y="54"/>
			<point x="276" y="28"/>
			<point x="235" y="22" type="curve"/>
		</contour>
		<contour>
			<point x="263" y="341" type="line"/>
			<point x="228" y="359"/>
			<point x="185" y="391"/>
			<point x="194" y="438" type="curve" smooth="yes"/>
			<point x="206" y="497"/>
			<point x="254" y="533"/>
			<point x="302" y="541" type="curve"/>
		</contour>
	</outline>
</glyph>
<glyph name="parenright" format="2">
	<unicode hex="0029"/>
	<advance width="313"/>
	<outline>
		<contour>
			<point x="326" y="252" type="curve"/>
			<point x="331" y="285"/>
			<point x="334" y="317"/>
			<point x="334" y="350" type="curve" smooth="yes"/>
			<point x="334" y="402"/>
			<point x="327" y="454"/>
			<point x="312" y="504" type="curve"/>
			<point x="290" y="583"/>
			<point x="251" y="649"/>
			<point x="194" y="708" type="curve"/>
			<point x="173" y="691" type="line"/>
			<point x="229" y="612"/>
			<point x="245" y="536"/>
			<point x="252" y="493" type="curve" smooth="yes"/>
			<point x="258" y="459"/>
			<point x="261" y="425"/>
			<point x="261" y="389" type="curve" smooth="yes"/>
			<point x="261" y="345"/>
			<point x="256" y="299"/>
			<point x="248" y="252" type="curve" smooth="yes"/>
			<point x="233" y="166"/>
			<point x="206" y="87"/>
			<point x="167" y="12" type="curve" smooth="yes"/>
			<point x="146" y="-29"/>
			<point x="103" y="-106"/>
			<point x="18" y="-186" type="curve"/>
			<point x="33" y="-203" type="line"/>
			<point x="134" y="-128"/>
			<point x="193" y="-45"/>
			<point x="223" y="0" type="curve" smooth="yes"/>
			<point x="276" y="79"/>
			<point x="309" y="161"/>
		</contour>
	</outline>
</glyph>
<glyph name="asterisk" format="2">
	<unicode hex="002A"/>
	<advance width="433"/>
	<outline>
		<contour>
			<point x="298" y="567" type="curve"/>
			<point x="258" y="530"/>
			<point x="206" y="522"/>
			<point x="198" y="479" type="curve"/>
			<point x="198" y="478"/>
			<point x="198" y="476"/>
			<point x="198" y="475" type="curve"/>
			<point x="198" y="462"/>
			<point x="208" y="451"/>
			<point x="223" y="451" type="curve" smooth="yes"/>
			<point x="260" y="451"/>
			<point x="278" y="510"/>
			<point x="311" y="555" type="curve"/>
			<point x="317" y="543"/>
			<point x="320" y="528"/>
			<point x="323" y="514" type="curve" smooth="yes"/>
			<point x="330" y="485"/>
			<point x="336" y="457"/>
			<point x="357" y="452" type="curve"/>
			<point x="359" y="451"/>
			<point x="362" y="451"/>
			<point x="364" y="451" type="curve" smooth="yes"/>
			<point x="378" y="451"/>
			<point x="395" y="462"/>
			<point x="398" y="480" type="curve"/>
			<point x="399" y="483"/>
			<point x="399" y="485"/>
			<point x="399" y="488" type="curve" smooth="yes"/>
			<point x="399" y="509"/>
			<point x="381" y="522"/>
			<point x="361" y="537" type="curve"/>
			<point x="351" y="546"/>
			<point x="340" y="555"/>
			<point x="331" y="567" type="curve"/>
			<point x="349" y="570"/>
			<point x="366" y="571"/>
			<point x="386" y="571" type="curve" smooth="yes"/>
			<point x="420" y="571"/>
			<point x="456" y="578"/>
			<point x="461" y="608" type="curve"/>
			<point x="461" y="609"/>
			<point x="461" y="611"/>
			<point x="461" y="612" type="curve"/>
			<point x="461" y="623"/>
			<point x="456" y="638"/>
			<point x="433" y="638" type="curve" smooth="yes"/>
			<point x="399" y="638"/>
			<point x="377" y="606"/>
			<point x="328" y="586" type="curve"/>
			<point x="336" y="616"/>
			<point x="360" y="656"/>
			<point x="365" y="683" type="curve"/>
			<point x="365" y="684"/>
			<point x="365" y="686"/>
			<point x="365" y="687" type="curve"/>
			<point x="365" y="688"/>
			<point x="365" y="690"/>
			<point x="365" y="691" type="curve"/>
			<point x="365" y="709"/>
			<point x="354" y="718"/>
			<point x="338" y="718" type="curve" smooth="yes"/>
			<point x="320" y="718"/>
			<point x="304" y="700"/>
			<point x="300" y="679" type="curve"/>
			<point x="300" y="675"/>
			<point x="299" y="672"/>
			<point x="299" y="668" type="curve" smooth="yes"/>
			<point x="299" y="659"/>
			<point x="301" y="650"/>
			<point x="303" y="640" type="curve"/>
			<point x="305" y="627"/>
			<point x="308" y="614"/>
			<point x="308" y="598" type="curve" smooth="yes"/>
			<point x="308" y="594"/>
			<point x="308" y="591"/>
			<point x="308" y="587" type="curve"/>
			<point x="267" y="605"/>
			<point x="254" y="638"/>
			<point x="220" y="638" type="curve" smooth="yes"/>
			<point x="197" y="638"/>
			<point x="185" y="622"/>
			<point x="182" y="608" type="curve"/>
			<point x="182" y="606"/>
			<point x="182" y="604"/>
			<point x="182" y="602" type="curve" smooth="yes"/>
			<point x="182" y="577"/>
			<point x="211" y="571"/>
			<point x="256" y="571" type="curve" smooth="yes"/>
			<point x="266" y="571"/>
			<point x="276" y="571"/>
			<point x="285" y="569" type="curve"/>
			<point x="290" y="569"/>
			<point x="294" y="568"/>
		</contour>
	</outline>
</glyph>
<glyph name="plus" format="2">
	<unicode hex="002B"/>
	<advance width="527"/>
	<outline>
		<contour>
			<point x="334" y="256" type="line"/>
			<point x="364" y="430" type="line"/>
			<point x="315" y="430" type="line"/>
			<point x="285" y="256" type="line"/>
			<point x="111" y="256" type="line"/>
			<point x="103" y="207" type="line"/>
			<point x="276" y="207" type="line"/>
			<point x="245" y="34" type="line"/>
			<point x="294" y="34" type="line"/>
			<point x="325" y="207" type="line"/>
			<point x="498" y="207" type="line"/>
			<point x="507" y="256" type="line"/>
		</contour>
	</outline>
</glyph>
<glyph name="hyphen" format="2">
	<unicode hex="002D"/>
	<advance width="333"/>
	<outline>
		<contour>
			<point x="314" y="223" type="line" smooth="yes"/>
			<point x="329" y="223"/>
			<point x="349" y="256"/>
			<point x="349" y="271" type="curve" smooth="yes"/>
			<point x="349" y="278"/>
			<point x="346" y="283"/>
			<point x="338" y="283" type="curve" smooth="yes"/>
			<point x="109" y="283" type="line" smooth="yes"/>
			<point x="99" y="283"/>
			<point x="77" y="257"/>
			<point x="77" y="240" type="curve" smooth="yes"/>
			<point x="77" y="232"/>
			<point x="80" y="223"/>
			<point x="87" y="223" type="curve" smooth="yes"/>
		</contour>
	</outline>
</glyph>
<glyph name="period" format="2">
	<unicode hex="002E"/>
	<advance width="219"/>
	<outline>
		<contour>
			<point x="125" y="95" type="curve" smooth="yes"/>
			<point x="89" y="95"/>
			<point x="63" y="62"/>
			<point x="63" y="35" type="curve" smooth="yes"/>
			<point x="63" y="9"/>
			<point x="83" y="-11"/>
			<point x="109" y="-11" type="curve" smooth="yes"/>
			<point x="144" y="-11"/>
			<point x="171" y="21"/>
			<point x="171" y="51" type="curve" smooth="yes"/>
			<point x="171" y="76"/>
			<point x="151" y="95"/>
		</contour>
	</outline>
</glyph>
<glyph name="zero" format="2">
	<unicode hex="0030"/>
	<advance width="444"/>
	<outline>
		<contour>
			<point x="226" y="-10" type="curve" smooth="yes"/>
			<point x="271" y="-10"/>
			<point x="337" y="20"/>
			<point x="392" y="99" type="curve" smooth="yes"/>
			<point x="436" y="163"/>
			<point x="483" y="288"/>
			<point x="483" y="412" type="curve" smooth="yes"/>
			<point x="483" y="513"/>
			<point x="451" y="610"/>
			<point x="351" y="610" type="curve" smooth="yes"/>
			<point x="324" y="610"/>
			<point x="295" y="600"/>
			<point x="267" y="581" type="curve" smooth="yes"/>
			<point x="250" y="570"/>
			<point x="234" y="555"/>
			<point x="217" y="536" type="curve" smooth="yes"/>
			<point x="152" y="463"/>
			<point x="95" y="336"/>
			<point x="95" y="192" type="curve" smooth="yes"/>
			<point x="95" y="90"/>
			<point x="130" y="-10"/>
		</contour>
		<contour>
			<point x="345" y="578" type="curve" smooth="yes"/>
			<point x="362" y="578"/>
			<point x="376" y="572"/>
			<point x="386" y="561" type="curve"/>
			<point x="399" y="548"/>
			<point x="408" y="525"/>
			<point x="412" y="487" type="curve" smooth="yes"/>
			<point x="413" y="478"/>
			<point x="413" y="468"/>
			<point x="413" y="457" type="curve" smooth="yes"/>
			<point x="413" y="348"/>
			<point x="370" y="177"/>
			<point x="340" y="113" type="curve" smooth="yes"/>
			<point x="302" y="30"/>
			<point x="251" y="22"/>
			<point x="233" y="22" type="curve" smooth="yes"/>
			<point x="188" y="22"/>
			<point x="170" y="62"/>
			<point x="166" y="114" type="curve"/>
			<point x="165" y="123"/>
			<point x="165" y="132"/>
			<point x="165" y="141" type="curve" smooth="yes"/>
			<point x="165" y="284"/>
			<point x="226" y="458"/>
			<point x="267" y="525" type="curve"/>
			<point x="272" y="534"/>
			<point x="277" y="540"/>
			<point x="281" y="545" type="curve"/>
			<point x="304" y="571"/>
			<point x="327" y="578"/>
		</contour>
	</outline>
</glyph>
<glyph name="two" format="2">
	<unicode hex="0032"/>
	<advance width="444"/>
	<outline>
		<contour>
			<point x="244" y="587" type="curve" smooth="yes"/>
			<point x="187" y="559"/>
			<point x="149" y="507"/>
			<point x="149" y="470" type="curve" smooth="yes"/>
			<point x="149" y="454"/>
			<point x="165" y="434"/>
			<point x="184" y="434" type="curve" smooth="yes"/>
			<point x="201" y="434"/>
			<point x="216" y="447"/>
			<point x="223" y="461" type="curve"/>
			<point x="227" y="468"/>
			<point x="227" y="477"/>
			<point x="227" y="485" type="curve" smooth="yes"/>
			<point x="227" y="492"/>
			<point x="224" y="504"/>
			<point x="224" y="510" type="curve" smooth="yes"/>
			<point x="224" y="513"/>
			<point x="224" y="516"/>
			<point x="225" y="519" type="curve"/>
			<point x="229" y="537"/>
			<point x="247" y="562"/>
			<point x="286" y="573" type="curve" smooth="yes"/>
			<point x="299" y="577"/>
			<point x="314" y="579"/>
			<point x="332" y="579" type="curve" smooth="yes"/>
			<point x="361" y="579"/>
			<point x="407" y="550"/>
			<point x="407" y="484" type="curve" smooth="yes"/>
			<point x="407" y="404"/>
			<point x="356" y="339"/>
			<point x="299" y="287" type="curve"/>
			<point x="295" y="283"/>
			<point x="291" y="280"/>
			<point x="287" y="276" type="curve"/>
			<point x="214" y="213" type="line"/>
			<point x="202" y="202" type="line" smooth="yes"/>
			<point x="122" y="132"/>
			<point x="87" y="88"/>
			<point x="69" y="47" type="curve"/>
			<point x="69" y="47" type="line"/>
			<point x="62" y="31"/>
			<point x="58" y="15"/>
			<point x="55" y="-1" type="curve"/>
			<point x="55" y="-1"/>
			<point x="102" y="0"/>
			<point x="132" y="0" type="curve" smooth="yes"/>
			<point x="299" y="0" type="line" smooth="yes"/>
			<point x="329" y="0"/>
			<point x="372" y="-1"/>
			<point x="372" y="-1" type="curve"/>
			<point x="395" y="50"/>
			<point x="418" y="132"/>
			<point x="418" y="132" type="curve"/>
			<point x="411" y="137"/>
			<point x="402" y="140"/>
			<point x="392" y="140" type="curve"/>
			<point x="366" y="80"/>
			<point x="346" y="60"/>
			<point x="312" y="60" type="curve" smooth="yes"/>
			<point x="144" y="60" type="line"/>
			<point x="154" y="109"/>
			<point x="233" y="176"/>
			<point x="239" y="181" type="curve" smooth="yes"/>
			<point x="302" y="235" type="line" smooth="yes"/>
			<point x="319" y="250"/>
			<point x="336" y="264"/>
			<point x="353" y="279" type="curve" smooth="yes"/>
			<point x="400" y="319"/>
			<point x="475" y="396"/>
			<point x="484" y="476" type="curve"/>
			<point x="485" y="481"/>
			<point x="485" y="487"/>
			<point x="485" y="492" type="curve" smooth="yes"/>
			<point x="485" y="582"/>
			<point x="407" y="610"/>
			<point x="343" y="610" type="curve" smooth="yes"/>
			<point x="305" y="610"/>
			<point x="272" y="601"/>
		</contour>
	</outline>
</glyph>
<glyph name="three" format="2">
	<unicode hex="0033"/>
	<advance width="444"/>
	<outline>
		<contour>
			<point x="333" y="579" type="curve" smooth="yes"/>
			<point x="372" y="579"/>
			<point x="405" y="552"/>
			<point x="405" y="504" type="curve" smooth="yes"/>
			<point x="405" y="451"/>
			<point x="352" y="393"/>
			<point x="294" y="362" type="curve" smooth="yes"/>
			<point x="273" y="351"/>
			<point x="251" y="344"/>
			<point x="231" y="341" type="curve"/>
			<point x="231" y="311" type="line"/>
			<point x="242" y="312"/>
			<point x="251" y="314"/>
			<point x="259" y="314" type="curve"/>
			<point x="263" y="315"/>
			<point x="268" y="315"/>
			<point x="272" y="315" type="curve" smooth="yes"/>
			<point x="322" y="315"/>
			<point name=".hr01" x="376" y="293"/>
			<point x="376" y="213" type="curve" smooth="yes"/>
			<point x="376" y="158"/>
			<point x="352" y="111"/>
			<point x="319" y="77" type="curve" smooth="yes"/>
			<point x="291" y="49"/>
			<point x="257" y="30"/>
			<point x="227" y="23" type="curve"/>
			<point x="219" y="22"/>
			<point x="212" y="21"/>
			<point x="205" y="21" type="curve" smooth="yes"/>
			<point x="177" y="21"/>
			<point x="162" y="31"/>
			<point x="151" y="43" type="curve" smooth="yes"/>
			<point x="134" y="62"/>
			<point x="127" y="86"/>
			<point x="100" y="86" type="curve" smooth="yes"/>
			<point x="86" y="86"/>
			<point x="68" y="73"/>
			<point x="62" y="57" type="curve"/>
			<point x="60" y="53"/>
			<point x="59" y="49"/>
			<point x="59" y="45" type="curve" smooth="yes"/>
			<point x="59" y="35"/>
			<point x="66" y="27"/>
			<point x="77" y="19" type="curve"/>
			<point x="104" y="1"/>
			<point x="154" y="-10"/>
			<point x="191" y="-10" type="curve" smooth="yes"/>
			<point x="196" y="-10"/>
			<point x="201" y="-10"/>
			<point x="206" y="-10" type="curve"/>
			<point x="276" y="-6"/>
			<point x="338" y="25"/>
			<point x="383" y="71" type="curve" smooth="yes"/>
			<point x="421" y="110"/>
			<point x="445" y="160"/>
			<point x="449" y="214" type="curve"/>
			<point x="449" y="219"/>
			<point x="449" y="223"/>
			<point x="449" y="228" type="curve" smooth="yes"/>
			<point x="449" y="302"/>
			<point x="404" y="348"/>
			<point x="349" y="358" type="curve"/>
			<point x="349" y="358" type="line"/>
			<point x="428" y="408"/>
			<point x="458" y="451"/>
			<point x="466" y="491" type="curve" smooth="yes"/>
			<point x="468" y="501"/>
			<point name=".hr02" x="469" y="510"/>
			<point x="469" y="519" type="curve" smooth="yes"/>
			<point x="469" y="563"/>
			<point x="425" y="610"/>
			<point x="358" y="610" type="curve" smooth="yes"/>
			<point x="352" y="610"/>
			<point x="347" y="610"/>
			<point x="342" y="610" type="curve"/>
			<point x="278" y="606"/>
			<point x="230" y="580"/>
			<point x="200" y="551" type="curve" smooth="yes"/>
			<point x="196" y="547"/>
			<point x="192" y="543"/>
			<point x="188" y="539" type="curve"/>
			<point x="166" y="514"/>
			<point x="156" y="489"/>
			<point x="156" y="473" type="curve" smooth="yes"/>
			<point x="156" y="461"/>
			<point x="161" y="449"/>
			<point x="176" y="449" type="curve"/>
			<point x="176" y="449"/>
			<point x="176" y="449"/>
			<point x="176" y="449" type="curve"/>
			<point x="203" y="449"/>
			<point x="220" y="481"/>
			<point x="223" y="500" type="curve"/>
			<point x="224" y="505"/>
			<point x="226" y="511"/>
			<point x="227" y="515" type="curve"/>
			<point x="247" y="563"/>
			<point x="308" y="579"/>
		</contour>
	</outline>
</glyph>
<glyph name="four" format="2">
	<unicode hex="0034"/>
	<advance width="445"/>
	<outline>
		<contour>
			<point x="469" y="213" type="curve" smooth="yes"/>
			<point x="391" y="213" type="line"/>
			<point x="449" y="510" type="line" smooth="yes"/>
			<point x="459" y="563"/>
			<point x="466" y="600"/>
			<point x="469" y="610" type="curve"/>
			<point x="441" y="610" type="line" smooth="yes"/>
			<point x="430" y="610"/>
			<point x="411" y="598"/>
			<point x="407" y="593" type="curve"/>
			<point x="292" y="423"/>
			<point x="202" y="332"/>
			<point x="87" y="220" type="curve" smooth="yes"/>
			<point x="83" y="216"/>
			<point x="80" y="213"/>
			<point x="76" y="209" type="curve"/>
			<point x="73" y="195"/>
			<point x="80" y="181"/>
			<point x="93" y="174" type="curve"/>
			<point x="97" y="172"/>
			<point x="102" y="171"/>
			<point x="108" y="171" type="curve" smooth="yes"/>
			<point x="317" y="171" type="line"/>
			<point x="302" y="93" type="line"/>
			<point x="299" y="77" type="line" smooth="yes"/>
			<point x="293" y="45"/>
			<point x="268" y="32"/>
			<point x="238" y="29" type="curve" smooth="yes"/>
			<point x="229" y="28"/>
			<point x="221" y="28"/>
			<point x="212" y="27" type="curve"/>
			<point x="208" y="23"/>
			<point x="206" y="6"/>
			<point x="210" y="-2" type="curve"/>
			<point x="236" y="-1"/>
			<point x="264" y="0"/>
			<point x="298" y="0" type="curve" smooth="yes"/>
			<point x="303" y="0"/>
			<point x="309" y="0"/>
			<point x="315" y="0" type="curve" smooth="yes"/>
			<point x="354" y="0"/>
			<point x="388" y="-1"/>
			<point x="418" y="-2" type="curve"/>
			<point x="421" y="2"/>
			<point x="424" y="22"/>
			<point x="421" y="27" type="curve"/>
			<point x="413" y="28"/>
			<point x="404" y="28"/>
			<point x="396" y="29" type="curve"/>
			<point x="371" y="31"/>
			<point x="359" y="44"/>
			<point x="365" y="77" type="curve" smooth="yes"/>
			<point x="368" y="93"/>
			<point x="371" y="108"/>
			<point x="374" y="124" type="curve" smooth="yes"/>
			<point x="383" y="171" type="line"/>
			<point x="448" y="171" type="line" smooth="yes"/>
			<point x="462" y="171"/>
			<point x="482" y="189"/>
			<point x="482" y="203" type="curve" smooth="yes"/>
			<point x="482" y="210"/>
			<point x="477" y="213"/>
		</contour>
		<contour>
			<point x="382" y="504" type="curve"/>
			<point x="325" y="213" type="line"/>
			<point x="122" y="213" type="line"/>
			<point x="213" y="304"/>
			<point x="296" y="383"/>
		</contour>
	</outline>
</glyph>
<glyph name="five" format="2">
	<unicode hex="0035"/>
	<advance width="444"/>
	<outline>
		<contour>
			<point x="367" y="217" type="curve" smooth="yes"/>
			<point x="367" y="152"/>
			<point x="339" y="97"/>
			<point x="301" y="62" type="curve" smooth="yes"/>
			<point x="273" y="37"/>
			<point x="240" y="22"/>
			<point x="208" y="22" type="curve" smooth="yes"/>
			<point x="176" y="22"/>
			<point x="160" y="38"/>
			<point x="148" y="54" type="curve" smooth="yes"/>
			<point x="135" y="71"/>
			<point x="126" y="89"/>
			<point x="106" y="89" type="curve" smooth="yes"/>
			<point x="85" y="89"/>
			<point x="65" y="71"/>
			<point x="65" y="51" type="curve" smooth="yes"/>
			<point x="65" y="39"/>
			<point x="73" y="29"/>
			<point x="85" y="20" type="curve"/>
			<point x="112" y="1"/>
			<point x="160" y="-10"/>
			<point x="200" y="-10" type="curve" smooth="yes"/>
			<point x="327" y="-10"/>
			<point x="430" y="92"/>
			<point x="439" y="212" type="curve"/>
			<point x="440" y="218"/>
			<point x="440" y="224"/>
			<point x="440" y="230" type="curve" smooth="yes"/>
			<point x="440" y="315"/>
			<point x="390" y="390"/>
			<point x="303" y="390" type="curve" smooth="yes"/>
			<point x="260" y="390"/>
			<point x="222" y="384"/>
			<point x="201" y="376" type="curve"/>
			<point x="255" y="546" type="line"/>
			<point x="292" y="541"/>
			<point x="334" y="538"/>
			<point x="371" y="538" type="curve" smooth="yes"/>
			<point x="399" y="538"/>
			<point x="431" y="540"/>
			<point x="472" y="545" type="curve"/>
			<point x="493" y="612" type="line"/>
			<point x="488" y="611"/>
			<point x="482" y="610"/>
			<point x="477" y="610" type="curve"/>
			<point x="427" y="603"/>
			<point x="374" y="601"/>
			<point x="329" y="601" type="curve" smooth="yes"/>
			<point x="294" y="601"/>
			<point x="262" y="603"/>
			<point x="229" y="605" type="curve"/>
			<point x="142" y="323" type="line"/>
			<point x="149" y="325"/>
			<point x="155" y="328"/>
			<point x="162" y="329" type="curve"/>
			<point x="207" y="343"/>
			<point x="244" y="346"/>
			<point x="275" y="346" type="curve" smooth="yes"/>
			<point x="325" y="346"/>
			<point x="367" y="289"/>
		</contour>
	</outline>
</glyph>
<glyph name="eight" format="2">
	<unicode hex="0038"/>
	<advance width="444"/>
	<outline>
		<contour>
			<point x="428" y="399" type="curve" smooth="yes"/>
			<point x="464" y="429"/>
			<point x="484" y="458"/>
			<point x="484" y="500" type="curve" smooth="yes"/>
			<point x="484" y="558"/>
			<point x="437" y="603"/>
			<point x="365" y="609" type="curve"/>
			<point x="359" y="610"/>
			<point x="352" y="610"/>
			<point x="346" y="610" type="curve" smooth="yes"/>
			<point x="297" y="610"/>
			<point x="250" y="589"/>
			<point x="216" y="558" type="curve" smooth="yes"/>
			<point x="181" y="527"/>
			<point x="159" y="485"/>
			<point x="159" y="443" type="curve" smooth="yes"/>
			<point x="159" y="439"/>
			<point x="159" y="434"/>
			<point x="160" y="430" type="curve"/>
			<point x="164" y="396"/>
			<point x="187" y="368"/>
			<point x="228" y="338" type="curve" smooth="yes"/>
			<point x="248" y="323" type="line"/>
			<point x="214" y="301"/>
			<point x="171" y="277"/>
			<point x="138" y="245" type="curve" smooth="yes"/>
			<point x="104" y="213"/>
			<point x="79" y="173"/>
			<point x="79" y="118" type="curve" smooth="yes"/>
			<point x="79" y="28"/>
			<point x="149" y="-10"/>
			<point x="234" y="-10" type="curve" smooth="yes"/>
			<point x="293" y="-10"/>
			<point x="343" y="11"/>
			<point x="380" y="45" type="curve"/>
			<point x="420" y="84"/>
			<point name=".hr01" x="443" y="138"/>
			<point x="443" y="200" type="curve" smooth="yes"/>
			<point x="443" y="237"/>
			<point x="431" y="275"/>
			<point x="398" y="302" type="curve"/>
			<point x="394" y="306"/>
			<point x="390" y="309"/>
			<point x="385" y="312" type="curve"/>
			<point x="344" y="339" type="line"/>
			<point x="378" y="362"/>
			<point x="406" y="381"/>
		</contour>
		<contour>
			<point x="241" y="18" type="curve" smooth="yes"/>
			<point x="204" y="18"/>
			<point x="151" y="42"/>
			<point x="141" y="103" type="curve" smooth="yes"/>
			<point x="140" y="109"/>
			<point x="139" y="116"/>
			<point x="139" y="124" type="curve" smooth="yes"/>
			<point x="139" y="200"/>
			<point x="209" y="257"/>
			<point x="277" y="301" type="curve"/>
			<point x="308" y="278" type="line" smooth="yes"/>
			<point x="347" y="249"/>
			<point x="368" y="218"/>
			<point x="373" y="184" type="curve"/>
			<point x="374" y="180"/>
			<point x="374" y="175"/>
			<point x="374" y="170" type="curve" smooth="yes"/>
			<point x="374" y="121"/>
			<point x="358" y="78"/>
			<point x="328" y="51" type="curve"/>
			<point x="306" y="30"/>
			<point x="277" y="18"/>
		</contour>
		<contour>
			<point x="335" y="582" type="curve" smooth="yes"/>
			<point x="384" y="582"/>
			<point x="417" y="542"/>
			<point x="422" y="506" type="curve"/>
			<point x="423" y="503"/>
			<point x="423" y="499"/>
			<point name=".hr02" x="423" y="496" type="curve" smooth="yes"/>
			<point x="423" y="467"/>
			<point x="411" y="436"/>
			<point x="314" y="360" type="curve"/>
			<point x="291" y="376" type="line" smooth="yes"/>
			<point x="285" y="380"/>
			<point x="280" y="384"/>
			<point x="275" y="388" type="curve" smooth="yes"/>
			<point x="237" y="418"/>
			<point x="226" y="440"/>
			<point x="224" y="462" type="curve"/>
			<point x="224" y="465"/>
			<point x="224" y="468"/>
			<point x="224" y="471" type="curve" smooth="yes"/>
			<point x="224" y="495"/>
			<point x="237" y="522"/>
			<point x="257" y="544" type="curve" smooth="yes"/>
			<point x="278" y="566"/>
			<point x="306" y="582"/>
		</contour>
	</outline>
</glyph>
<glyph name="at" format="2">
	<unicode hex="0040"/>
	<advance width="829"/>
	<outline>
		<contour>
			<point x="557" y="74" type="curve" smooth="yes"/>
			<point x="559" y="83"/>
			<point x="572" y="114"/>
			<point x="583" y="141" type="curve" smooth="yes"/>
			<point x="693" y="399" type="line"/>
			<point x="681" y="404" type="line"/>
			<point x="629" y="391" type="line"/>
			<point x="626" y="383"/>
			<point x="622" y="375"/>
			<point x="619" y="367" type="curve"/>
			<point x="615" y="393"/>
			<point x="587" y="410"/>
			<point x="557" y="410" type="curve" smooth="yes"/>
			<point x="458" y="410"/>
			<point x="315" y="296"/>
			<point x="285" y="153" type="curve" smooth="yes"/>
			<point x="280" y="126"/>
			<point x="279" y="80"/>
			<point x="307" y="52" type="curve" smooth="yes"/>
			<point x="321" y="38"/>
			<point x="342" y="29"/>
			<point x="373" y="29" type="curve" smooth="yes"/>
			<point x="405" y="29"/>
			<point x="461" y="58"/>
			<point x="518" y="132" type="curve"/>
			<point x="520" y="131" type="line"/>
			<point x="507" y="106"/>
			<point x="496" y="83"/>
			<point x="493" y="68" type="curve"/>
			<point x="489" y="52"/>
			<point name=".hr01" x="491" y="27"/>
			<point x="517" y="27" type="curve" smooth="yes"/>
			<point x="531" y="27"/>
			<point x="545" y="28"/>
			<point name=".hr02" x="559" y="29" type="curve"/>
			<point x="732" y="47"/>
			<point x="816" y="176"/>
			<point x="839" y="282" type="curve" smooth="yes"/>
			<point x="879" y="469"/>
			<point x="765" y="611"/>
			<point x="565" y="611" type="curve" smooth="yes"/>
			<point x="355" y="611"/>
			<point x="146" y="438"/>
			<point x="101" y="223" type="curve"/>
			<point x="55" y="10"/>
			<point x="166" y="-158"/>
			<point x="387" y="-158" type="curve" smooth="yes"/>
			<point x="492" y="-158"/>
			<point x="556" y="-123"/>
			<point x="622" y="-77" type="curve"/>
			<point x="613" y="-59" type="line"/>
			<point x="554" y="-102"/>
			<point x="491" y="-125"/>
			<point x="412" y="-125" type="curve" smooth="yes"/>
			<point x="186" y="-125"/>
			<point x="151" y="66"/>
			<point x="174" y="214" type="curve"/>
			<point x="175" y="223"/>
			<point x="177" y="232"/>
			<point x="179" y="241" type="curve" smooth="yes"/>
			<point x="230" y="478"/>
			<point x="408" y="581"/>
			<point x="549" y="581" type="curve" smooth="yes"/>
			<point x="666" y="581"/>
			<point x="808" y="481"/>
			<point x="764" y="275" type="curve" smooth="yes"/>
			<point x="729" y="109"/>
			<point name=".hr03" x="660" y="62"/>
			<point x="564" y="62" type="curve" smooth="yes"/>
			<point x="562" y="62"/>
			<point x="555" y="64"/>
		</contour>
		<contour>
			<point x="596" y="316" type="curve" smooth="yes"/>
			<point x="588" y="282"/>
			<point x="562" y="231"/>
			<point x="542" y="200" type="curve" smooth="yes"/>
			<point x="538" y="194"/>
			<point x="535" y="188"/>
			<point x="531" y="182" type="curve" smooth="yes"/>
			<point x="489" y="118"/>
			<point x="437" y="70"/>
			<point name=".hr04" x="408" y="70" type="curve"/>
			<point x="408" y="70"/>
			<point x="408" y="70"/>
			<point x="408" y="70" type="curve"/>
			<point x="350" y="70"/>
			<point x="345" y="114"/>
			<point x="355" y="162" type="curve" smooth="yes"/>
			<point x="368" y="224"/>
			<point x="397" y="288"/>
			<point x="456" y="339" type="curve"/>
			<point x="461" y="343"/>
			<point x="466" y="347"/>
			<point x="471" y="351" type="curve"/>
			<point x="502" y="372"/>
			<point x="534" y="379"/>
			<point x="548" y="379" type="curve" smooth="yes"/>
			<point x="554" y="379"/>
			<point x="559" y="378"/>
			<point x="564" y="377" type="curve"/>
			<point x="588" y="370"/>
			<point x="603" y="348"/>
		</contour>
	</outline>
</glyph>
<glyph name="A" format="2">
	<unicode hex="0041"/>
	<advance width="667"/>
	<outline>
		<contour>
			<point x="161" y="79" type="curve"/>
			<point x="245" y="224" type="line"/>
			<point x="252" y="237"/>
			<point x="259" y="241"/>
			<point x="282" y="241" type="curve" smooth="yes"/>
			<point x="482" y="241" type="line"/>
			<point x="503" y="97" type="line" smooth="yes"/>
			<point x="507" y="71"/>
			<point x="508" y="65"/>
			<point x="508" y="60" type="curve" smooth="yes"/>
			<point x="508" y="41"/>
			<point x="492" y="36"/>
			<point x="459" y="32" type="curve" smooth="yes"/>
			<point x="431" y="29" type="line"/>
			<point x="422" y="21"/>
			<point x="424" y="3"/>
			<point x="426" y="-2" type="curve"/>
			<point x="468" y="-1"/>
			<point x="507" y="0"/>
			<point x="548" y="0" type="curve" smooth="yes"/>
			<point x="588" y="0"/>
			<point x="627" y="-1"/>
			<point x="662" y="-2" type="curve"/>
			<point x="669" y="8"/>
			<point x="671" y="19"/>
			<point x="668" y="29" type="curve"/>
			<point x="648" y="32" type="line" smooth="yes"/>
			<point x="610" y="38"/>
			<point x="595" y="47"/>
			<point x="588" y="86" type="curve" smooth="yes"/>
			<point x="491" y="658" type="line"/>
			<point x="487" y="658" type="line"/>
			<point x="481" y="654"/>
			<point x="461" y="645"/>
			<point x="451" y="645" type="curve"/>
			<point x="122" y="102" type="line" smooth="yes"/>
			<point x="85" y="40"/>
			<point x="57" y="31"/>
			<point x="15" y="29" type="curve"/>
			<point x="8" y="19"/>
			<point x="6" y="8"/>
			<point x="9" y="-2" type="curve"/>
			<point x="45" y="-1"/>
			<point x="56" y="0"/>
			<point x="93" y="0" type="curve" smooth="yes"/>
			<point x="132" y="0"/>
			<point x="183" y="-1"/>
			<point x="218" y="-2" type="curve"/>
			<point x="225" y="8"/>
			<point x="226" y="19"/>
			<point x="222" y="29" type="curve"/>
			<point x="190" y="32" type="line" smooth="yes"/>
			<point x="165" y="34"/>
			<point x="154" y="41"/>
			<point x="154" y="56" type="curve" smooth="yes"/>
			<point x="154" y="63"/>
			<point x="156" y="71"/>
		</contour>
		<contour>
			<point x="307" y="283" type="line" smooth="yes"/>
			<point x="291" y="283"/>
			<point x="284" y="285"/>
			<point x="284" y="290" type="curve" smooth="yes"/>
			<point x="284" y="292"/>
			<point x="285" y="294"/>
			<point x="286" y="296" type="curve"/>
			<point x="431" y="550" type="line"/>
			<point x="433" y="550" type="line"/>
			<point x="474" y="283" type="line"/>
		</contour>
	</outline>
	<anchor name="t.uni0302" x="477" y="740"/>
	<guideline x="588" y="86" angle="99.6337"/>
	<guideline x="437" y="622" angle="238.794"/>
	<guideline x="482" y="241" angle="278.415"/>
	<guideline x="317" y="3" angle="78"/>
	<guideline x="0" y="740" angle="0"/>
</glyph>
<glyph name="D" format="2">
	<unicode hex="0044"/>
	<advance width="667"/>
	<outline>
		<contour>
			<point x="140" y="0" type="curve" smooth="yes"/>
			<point x="177" y="0"/>
			<point x="214" y="-2"/>
			<point x="313" y="-2" type="curve" smooth="yes"/>
			<point x="531" y="-2"/>
			<point x="694" y="158"/>
			<point x="694" y="375" type="curve" smooth="yes"/>
			<point x="694" y="551"/>
			<point x="569" y="647"/>
			<point x="402" y="647" type="curve" smooth="yes"/>
			<point x="356" y="647"/>
			<point x="311" y="645"/>
			<point x="265" y="645" type="curve" smooth="yes"/>
			<point x="228" y="645"/>
			<point x="189" y="646"/>
			<point x="144" y="647" type="curve"/>
			<point x="139" y="640"/>
			<point x="138" y="628"/>
			<point name=".hr01" x="138" y="618" type="curve"/>
			<point x="195" y="616"/>
			<point x="215" y="608"/>
			<point x="215" y="590" type="curve"/>
			<point x="116" y="74" type="line" smooth="yes"/>
			<point x="110" y="43"/>
			<point x="87" y="32"/>
			<point name=".hr02" x="26" y="27" type="curve"/>
			<point x="17" y="17"/>
			<point x="15" y="5"/>
			<point x="18" y="-2" type="curve"/>
			<point x="63" y="-1"/>
			<point x="101" y="0"/>
		</contour>
		<contour>
			<point x="193" y="73" type="curve" smooth="yes"/>
			<point x="291" y="574" type="line" smooth="yes"/>
			<point x="298" y="609"/>
			<point x="332" y="613"/>
			<point x="379" y="613" type="curve" smooth="yes"/>
			<point x="532" y="613"/>
			<point x="603" y="516"/>
			<point x="603" y="374" type="curve" smooth="yes"/>
			<point x="603" y="175"/>
			<point x="505" y="32"/>
			<point name=".hr03" x="290" y="32" type="curve" smooth="yes"/>
			<point x="210" y="32"/>
			<point x="192" y="39"/>
			<point x="192" y="60" type="curve" smooth="yes"/>
			<point x="192" y="64"/>
			<point x="192" y="68"/>
		</contour>
	</outline>
</glyph>
<glyph name="F" format="2">
	<unicode hex="0046"/>
	<advance width="457"/>
	<outline>
		<contour>
			<point x="189" y="74" type="curve" smooth="yes"/>
			<point x="237" y="323" type="line"/>
			<point x="332" y="323" type="line" smooth="yes"/>
			<point x="341" y="323"/>
			<point x="350" y="323"/>
			<point x="359" y="323" type="curve" smooth="yes"/>
			<point x="389" y="323"/>
			<point x="401" y="316"/>
			<point x="401" y="293" type="curve" smooth="yes"/>
			<point x="401" y="291"/>
			<point x="400" y="288"/>
			<point x="400" y="285" type="curve"/>
			<point x="399" y="277"/>
			<point x="399" y="268"/>
			<point x="398" y="260" type="curve"/>
			<point x="398" y="259"/>
			<point x="398" y="257"/>
			<point x="398" y="255" type="curve"/>
			<point x="399" y="253"/>
			<point x="401" y="252"/>
			<point x="403" y="252" type="curve" smooth="yes"/>
			<point x="410" y="252"/>
			<point x="417" y="252"/>
			<point x="424" y="252" type="curve"/>
			<point x="425" y="253"/>
			<point x="426" y="253"/>
			<point x="427" y="254" type="curve"/>
			<point x="429" y="255" type="line"/>
			<point x="432" y="282"/>
			<point x="435" y="303"/>
			<point x="438" y="319" type="curve"/>
			<point x="439" y="328"/>
			<point x="441" y="335"/>
			<point x="442" y="342" type="curve" smooth="yes"/>
			<point x="445" y="362"/>
			<point x="452" y="392"/>
			<point x="463" y="432" type="curve"/>
			<point x="460" y="436" type="line"/>
			<point x="453" y="436"/>
			<point x="446" y="436"/>
			<point x="439" y="436" type="curve" smooth="yes"/>
			<point x="435" y="436"/>
			<point x="431" y="432"/>
			<point x="430" y="428" type="curve" smooth="yes"/>
			<point x="428" y="420"/>
			<point x="425" y="411"/>
			<point x="423" y="403" type="curve"/>
			<point x="414" y="375"/>
			<point x="400" y="361"/>
			<point x="367" y="361" type="curve" smooth="yes"/>
			<point x="358" y="361"/>
			<point x="349" y="361"/>
			<point x="340" y="361" type="curve" smooth="yes"/>
			<point x="245" y="361" type="line"/>
			<point x="285" y="571" type="line" smooth="yes"/>
			<point x="290" y="595"/>
			<point x="304" y="605"/>
			<point x="327" y="605" type="curve" smooth="yes"/>
			<point x="332" y="605"/>
			<point x="337" y="605"/>
			<point x="341" y="605" type="curve" smooth="yes"/>
			<point x="413" y="605" type="line" smooth="yes"/>
			<point x="417" y="605"/>
			<point x="422" y="605"/>
			<point x="427" y="605" type="curve" smooth="yes"/>
			<point x="499" y="605"/>
			<point x="509" y="565"/>
			<point x="517" y="496" type="curve"/>
			<point x="526" y="498"/>
			<point x="536" y="499"/>
			<point x="545" y="501" type="curve"/>
			<point x="548" y="542"/>
			<point x="553" y="638"/>
			<point x="553" y="646" type="curve" smooth="yes"/>
			<point x="553" y="648"/>
			<point x="552" y="649"/>
			<point x="550" y="649" type="curve"/>
			<point x="532" y="646"/>
			<point x="527" y="645"/>
			<point x="504" y="645" type="curve" smooth="yes"/>
			<point x="260" y="645" type="line" smooth="yes"/>
			<point x="223" y="645"/>
			<point x="184" y="646"/>
			<point x="139" y="647" type="curve"/>
			<point x="138" y="646"/>
			<point x="138" y="646"/>
			<point x="137" y="645" type="curve"/>
			<point x="136" y="638"/>
			<point x="134" y="632"/>
			<point x="133" y="625" type="curve"/>
			<point x="133" y="624"/>
			<point x="132" y="622"/>
			<point x="133" y="620" type="curve"/>
			<point x="134" y="619"/>
			<point name=".hr01" x="136" y="618"/>
			<point x="139" y="618" type="curve"/>
			<point x="148" y="617"/>
			<point x="158" y="617"/>
			<point x="167" y="616" type="curve"/>
			<point x="198" y="614"/>
			<point x="210" y="606"/>
			<point x="210" y="586" type="curve" smooth="yes"/>
			<point x="210" y="581"/>
			<point x="209" y="577"/>
			<point x="208" y="571" type="curve"/>
			<point x="205" y="556"/>
			<point x="202" y="542"/>
			<point x="199" y="527" type="curve" smooth="yes"/>
			<point x="120" y="118" type="line" smooth="yes"/>
			<point x="117" y="103"/>
			<point x="114" y="89"/>
			<point x="111" y="74" type="curve" smooth="yes"/>
			<point x="106" y="46"/>
			<point x="92" y="32"/>
			<point x="51" y="29" type="curve"/>
			<point x="42" y="28"/>
			<point x="34" y="28"/>
			<point x="25" y="27" type="curve"/>
			<point x="23" y="27"/>
			<point x="21" y="26"/>
			<point x="19" y="25" type="curve"/>
			<point x="18" y="24"/>
			<point x="17" y="22"/>
			<point x="16" y="19" type="curve"/>
			<point x="15" y="13"/>
			<point x="13" y="6"/>
			<point x="12" y="0" type="curve"/>
			<point x="13" y="-1"/>
			<point x="13" y="-1"/>
			<point x="14" y="-2" type="curve"/>
			<point x="59" y="-1"/>
			<point x="98" y="0"/>
			<point x="135" y="0" type="curve" smooth="yes"/>
			<point x="148" y="0" type="line" smooth="yes"/>
			<point x="183" y="0"/>
			<point x="218" y="-1"/>
			<point x="258" y="-2" type="curve"/>
			<point x="259" y="-1"/>
			<point x="259" y="-1"/>
			<point x="260" y="0" type="curve"/>
			<point x="261" y="6"/>
			<point x="263" y="13"/>
			<point x="264" y="19" type="curve"/>
			<point x="265" y="22"/>
			<point x="264" y="24"/>
			<point x="263" y="25" type="curve" smooth="yes"/>
			<point x="262" y="26"/>
			<point x="260" y="27"/>
			<point x="257" y="27" type="curve"/>
			<point x="249" y="28"/>
			<point x="241" y="28"/>
			<point x="233" y="29" type="curve"/>
			<point x="201" y="32"/>
			<point x="188" y="40"/>
			<point x="188" y="61" type="curve" smooth="yes"/>
			<point x="188" y="65"/>
			<point x="188" y="69"/>
		</contour>
	</outline>
</glyph>
<glyph name="G" format="2">
	<unicode hex="0047"/>
	<advance width="664"/>
	<outline>
		<contour>
			<point x="497" y="658" type="curve" smooth="yes"/>
			<point x="280" y="658"/>
			<point x="84" y="464"/>
			<point x="84" y="253" type="curve" smooth="yes"/>
			<point x="84" y="95"/>
			<point x="193" y="-10"/>
			<point x="353" y="-10" type="curve" smooth="yes"/>
			<point x="454" y="-10"/>
			<point x="539" y="20"/>
			<point x="627" y="86" type="curve"/>
			<point x="618" y="95"/>
			<point x="615" y="103"/>
			<point x="617" y="114" type="curve" smooth="yes"/>
			<point x="640" y="227" type="line" smooth="yes"/>
			<point x="647" y="261"/>
			<point x="665" y="277"/>
			<point x="701" y="279" type="curve"/>
			<point x="706" y="284"/>
			<point x="708" y="303"/>
			<point x="704" y="307" type="curve"/>
			<point x="679" y="305"/>
			<point x="654" y="305"/>
			<point x="601" y="305" type="curve" smooth="yes"/>
			<point x="549" y="305"/>
			<point x="523" y="305"/>
			<point x="494" y="307" type="curve"/>
			<point x="488" y="296"/>
			<point x="487" y="284"/>
			<point x="489" y="271" type="curve"/>
			<point x="517" y="269" type="line" smooth="yes"/>
			<point x="551" y="267"/>
			<point x="563" y="259"/>
			<point x="563" y="240" type="curve" smooth="yes"/>
			<point x="563" y="234"/>
			<point x="563" y="231"/>
			<point x="562" y="227" type="curve"/>
			<point x="532" y="77" type="line"/>
			<point x="496" y="47"/>
			<point x="439" y="29"/>
			<point x="385" y="29" type="curve" smooth="yes"/>
			<point x="258" y="29"/>
			<point x="172" y="126"/>
			<point x="172" y="268" type="curve" smooth="yes"/>
			<point x="172" y="450"/>
			<point x="313" y="619"/>
			<point x="467" y="619" type="curve" smooth="yes"/>
			<point x="578" y="619"/>
			<point x="638" y="565"/>
			<point x="649" y="457" type="curve"/>
			<point x="679" y="463" type="line"/>
			<point x="679" y="504"/>
			<point x="682" y="546"/>
			<point x="688" y="611" type="curve"/>
			<point x="630" y="611"/>
			<point x="604" y="658"/>
		</contour>
	</outline>
	<anchor name="t.uni0302" x="479" y="740"/>
</glyph>
<glyph name="J" format="2">
	<unicode hex="004A"/>
	<advance width="414"/>
	<outline>
		<contour>
			<point x="194" y="331" type="line"/>
			<point x="194" y="311" type="line"/>
			<point x="317" y="302" type="line"/>
			<point x="306" y="237"/>
			<point x="295" y="171"/>
			<point x="284" y="106" type="curve" smooth="yes"/>
			<point x="255" y="-68"/>
			<point x="206" y="-165"/>
			<point x="141" y="-165" type="curve" smooth="yes"/>
			<point x="125" y="-165"/>
			<point x="129" y="-143"/>
			<point x="116" y="-124" type="curve" smooth="yes"/>
			<point x="104" y="-107"/>
			<point x="91" y="-101"/>
			<point x="69" y="-101" type="curve" smooth="yes"/>
			<point x="42" y="-101"/>
			<point x="31" y="-126"/>
			<point x="31" y="-141" type="curve" smooth="yes"/>
			<point x="31" y="-177"/>
			<point x="81" y="-200"/>
			<point x="127" y="-200" type="curve" smooth="yes"/>
			<point x="237" y="-200"/>
			<point x="328" y="-111"/>
			<point x="368" y="128" type="curve" smooth="yes"/>
			<point x="378" y="186"/>
			<point x="387" y="245"/>
			<point x="397" y="303" type="curve"/>
			<point x="450" y="308" type="line"/>
			<point x="453" y="333" type="line"/>
			<point x="420" y="336"/>
			<point x="407" y="338"/>
			<point x="407" y="360" type="curve" smooth="yes"/>
			<point x="407" y="386"/>
			<point x="428" y="539"/>
			<point x="435" y="580" type="curve"/>
			<point x="462" y="598"/>
			<point x="496" y="625"/>
			<point x="496" y="649" type="curve" smooth="yes"/>
			<point x="496" y="670"/>
			<point x="480" y="677"/>
			<point x="459" y="677" type="curve"/>
			<point x="459" y="677"/>
			<point x="459" y="677"/>
			<point x="459" y="677" type="curve"/>
			<point x="426" y="677"/>
			<point x="407" y="638"/>
			<point x="403" y="613" type="curve"/>
			<point x="360" y="633"/>
			<point x="299" y="663"/>
			<point x="255" y="663" type="curve" smooth="yes"/>
			<point x="158" y="663"/>
			<point x="122" y="598"/>
			<point x="122" y="558" type="curve"/>
			<point x="122" y="558"/>
			<point x="122" y="558"/>
			<point x="122" y="558" type="curve"/>
			<point x="122" y="532"/>
			<point x="134" y="514"/>
			<point x="159" y="514" type="curve" smooth="yes"/>
			<point x="180" y="514"/>
			<point name=".hr01" x="192" y="524"/>
			<point x="192" y="545" type="curve"/>
			<point x="192" y="545"/>
			<point x="192" y="545"/>
			<point x="192" y="545" type="curve"/>
			<point x="192" y="570"/>
			<point name=".hr02" x="160" y="584"/>
			<point x="160" y="594" type="curve" smooth="yes"/>
			<point x="160" y="607"/>
			<point x="175" y="622"/>
			<point x="197" y="622" type="curve" smooth="yes"/>
			<point x="240" y="622"/>
			<point x="272" y="598"/>
			<point x="317" y="580" type="curve" smooth="yes"/>
			<point x="331" y="574"/>
			<point x="353" y="568"/>
			<point x="370" y="568" type="curve" smooth="yes"/>
			<point x="376" y="568"/>
			<point x="382" y="569"/>
			<point x="386" y="571" type="curve"/>
			<point x="387" y="567" type="line"/>
			<point x="354" y="495"/>
			<point x="342" y="451"/>
			<point x="325" y="350" type="curve" smooth="yes"/>
			<point x="323" y="338" type="line"/>
		</contour>
	</outline>
</glyph>
<glyph name="Q" format="2">
	<unicode hex="0051"/>
	<advance width="668"/>
	<outline>
		<contour>
			<point x="127" y="-128" type="curve"/>
			<point x="118" y="-136"/>
			<point x="111" y="-144"/>
			<point x="104" y="-153" type="curve"/>
			<point x="137" y="-173" type="line"/>
			<point x="152" y="-156"/>
			<point x="167" y="-140"/>
			<point x="183" y="-126" type="curve"/>
			<point x="198" y="-117"/>
			<point x="212" y="-114"/>
			<point x="219" y="-114" type="curve" smooth="yes"/>
			<point x="301" y="-114"/>
			<point x="343" y="-194"/>
			<point x="445" y="-207" type="curve"/>
			<point x="455" y="-208"/>
			<point x="465" y="-209"/>
			<point x="475" y="-209" type="curve" smooth="yes"/>
			<point x="535" y="-209"/>
			<point x="581" y="-183"/>
			<point x="629" y="-127" type="curve"/>
			<point x="615" y="-115" type="line"/>
			<point x="589" y="-142"/>
			<point x="552" y="-152"/>
			<point x="524" y="-152" type="curve" smooth="yes"/>
			<point x="517" y="-152"/>
			<point x="510" y="-151"/>
			<point x="503" y="-150" type="curve" smooth="yes"/>
			<point x="429" y="-139"/>
			<point x="369" y="-70"/>
			<point x="272" y="-70" type="curve" smooth="yes"/>
			<point x="266" y="-70"/>
			<point x="260" y="-70"/>
			<point x="253" y="-71" type="curve"/>
			<point x="253" y="-71" type="line"/>
			<point x="303" y="-38"/>
			<point x="349" y="-18"/>
			<point x="383" y="-8" type="curve"/>
			<point x="388" y="-7"/>
			<point x="393" y="-5"/>
			<point x="398" y="-4" type="curve" smooth="yes"/>
			<point x="550" y="26"/>
			<point x="665" y="154"/>
			<point x="699" y="329" type="curve" smooth="yes"/>
			<point x="704" y="355"/>
			<point x="706" y="380"/>
			<point x="706" y="403" type="curve" smooth="yes"/>
			<point x="706" y="559"/>
			<point x="601" y="658"/>
			<point x="455" y="658" type="curve" smooth="yes"/>
			<point x="366" y="658"/>
			<point x="282" y="617"/>
			<point x="217" y="549" type="curve" smooth="yes"/>
			<point x="157" y="487"/>
			<point x="113" y="404"/>
			<point x="95" y="310" type="curve" smooth="yes"/>
			<point x="91" y="290"/>
			<point x="89" y="271"/>
			<point x="88" y="252" type="curve"/>
			<point x="87" y="246"/>
			<point x="87" y="240"/>
			<point x="87" y="234" type="curve" smooth="yes"/>
			<point x="87" y="95"/>
			<point x="171" y="7"/>
			<point x="295" y="-8" type="curve"/>
			<point x="231" y="-39"/>
			<point x="170" y="-86"/>
		</contour>
		<contour>
			<point x="436" y="624" type="curve" smooth="yes"/>
			<point x="544" y="624"/>
			<point x="617" y="552"/>
			<point x="617" y="410" type="curve" smooth="yes"/>
			<point x="617" y="380"/>
			<point x="614" y="347"/>
			<point x="607" y="310" type="curve" smooth="yes"/>
			<point x="572" y="131"/>
			<point x="467" y="24"/>
			<point x="357" y="24" type="curve" smooth="yes"/>
			<point x="260" y="24"/>
			<point x="178" y="103"/>
			<point x="178" y="244" type="curve" smooth="yes"/>
			<point x="178" y="270"/>
			<point x="181" y="297"/>
			<point x="187" y="327" type="curve" smooth="yes"/>
			<point x="204" y="415"/>
			<point x="235" y="481"/>
			<point x="271" y="528" type="curve" smooth="yes"/>
			<point x="323" y="594"/>
			<point x="385" y="624"/>
		</contour>
	</outline>
</glyph>
<glyph name="S" format="2">
	<unicode hex="0053"/>
	<advance width="454"/>
	<outline>
		<contour>
			<point x="493" y="626" type="curve"/>
			<point x="438" y="639"/>
			<point x="405" y="658"/>
			<point x="346" y="658" type="curve" smooth="yes"/>
			<point x="242" y="658"/>
			<point x="142" y="572"/>
			<point x="142" y="462" type="curve" smooth="yes"/>
			<point x="142" y="385"/>
			<point x="200" y="339"/>
			<point x="261" y="306" type="curve" smooth="yes"/>
			<point x="289" y="291" type="line" smooth="yes"/>
			<point x="334" y="267"/>
			<point x="372" y="236"/>
			<point x="372" y="176" type="curve" smooth="yes"/>
			<point x="372" y="87"/>
			<point x="324" y="26"/>
			<point x="230" y="26" type="curve" smooth="yes"/>
			<point x="145" y="26"/>
			<point x="94" y="65"/>
			<point x="94" y="168" type="curve"/>
			<point x="91" y="169"/>
			<point x="87" y="170"/>
			<point x="82" y="170" type="curve" smooth="yes"/>
			<point x="77" y="170"/>
			<point x="69" y="168"/>
			<point x="64" y="165" type="curve"/>
			<point x="53" y="110"/>
			<point x="53" y="59"/>
			<point x="51" y="5" type="curve"/>
			<point x="109" y="5"/>
			<point x="134" y="-10"/>
			<point x="215" y="-10" type="curve" smooth="yes"/>
			<point x="325" y="-10"/>
			<point x="456" y="82"/>
			<point x="456" y="200" type="curve" smooth="yes"/>
			<point x="456" y="291"/>
			<point x="409" y="331"/>
			<point x="337" y="368" type="curve" smooth="yes"/>
			<point x="290" y="392" type="line" smooth="yes"/>
			<point x="254" y="411"/>
			<point x="214" y="450"/>
			<point x="214" y="502" type="curve" smooth="yes"/>
			<point x="214" y="572"/>
			<point x="275" y="624"/>
			<point x="343" y="624" type="curve" smooth="yes"/>
			<point x="435" y="624"/>
			<point x="448" y="565"/>
			<point name=".hr01" x="454" y="499" type="curve"/>
			<point x="458" y="497"/>
			<point x="463" y="495"/>
			<point x="469" y="495" type="curve" smooth="yes"/>
			<point x="474" y="495"/>
			<point x="479" y="495"/>
			<point x="485" y="497" type="curve"/>
			<point x="491" y="547"/>
			<point x="493" y="576"/>
		</contour>
	</outline>
	<anchor name="t.uni0302" x="372" y="740"/>
</glyph>
<glyph name="V" format="2">
	<unicode hex="0056"/>
	<advance width="597"/>
	<outline>
		<contour>
			<point x="617" y="553" type="line" smooth="yes"/>
			<point x="636" y="586"/>
			<point x="668" y="612"/>
			<point x="721" y="618" type="curve"/>
			<point x="727" y="624"/>
			<point x="727" y="641"/>
			<point x="721" y="647" type="curve"/>
			<point x="691" y="646"/>
			<point x="666" y="645"/>
			<point x="643" y="645" type="curve" smooth="yes"/>
			<point x="638" y="645"/>
			<point x="632" y="645"/>
			<point x="627" y="645" type="curve" smooth="yes"/>
			<point x="601" y="645"/>
			<point x="557" y="646"/>
			<point x="517" y="647" type="curve"/>
			<point x="511" y="641"/>
			<point x="511" y="624"/>
			<point x="517" y="618" type="curve"/>
			<point x="567" y="614"/>
			<point x="594" y="600"/>
			<point x="573" y="561" type="curve" smooth="yes"/>
			<point x="381" y="202" type="line"/>
			<point x="340" y="127" type="line"/>
			<point x="338" y="125"/>
			<point x="336" y="124"/>
			<point x="333" y="127" type="curve"/>
			<point x="321" y="212" type="line"/>
			<point x="269" y="572" type="line" smooth="yes"/>
			<point x="264" y="605"/>
			<point x="306" y="616"/>
			<point x="341" y="618" type="curve"/>
			<point x="347" y="624"/>
			<point x="347" y="641"/>
			<point x="341" y="647" type="curve"/>
			<point x="314" y="646"/>
			<point x="275" y="645"/>
			<point x="240" y="645" type="curve" smooth="yes"/>
			<point x="233" y="645"/>
			<point x="227" y="645"/>
			<point x="220" y="645" type="curve" smooth="yes"/>
			<point x="180" y="645"/>
			<point x="154" y="646"/>
			<point x="114" y="647" type="curve"/>
			<point x="108" y="641"/>
			<point x="108" y="624"/>
			<point x="114" y="618" type="curve"/>
			<point x="156" y="613"/>
			<point x="180" y="612"/>
			<point x="188" y="556" type="curve" smooth="yes"/>
			<point x="269" y="11" type="line" smooth="yes"/>
			<point x="271" y="-4"/>
			<point x="277" y="-12"/>
			<point x="287" y="-12" type="curve" smooth="yes"/>
			<point x="297" y="-12"/>
			<point x="306" y="-4"/>
			<point x="314" y="11" type="curve"/>
			<point x="317" y="17"/>
			<point x="321" y="23"/>
			<point x="324" y="30" type="curve"/>
		</contour>
	</outline>
</glyph>
<glyph name="bracketleft" format="2">
	<unicode hex="005B"/>
	<advance width="334"/>
	<outline>
		<contour>
			<point x="53" y="-200" type="line"/>
			<point x="268" y="-200" type="line"/>
			<point x="269" y="-194"/>
			<point x="274" y="-161"/>
			<point x="275" y="-156" type="curve"/>
			<point x="228" y="-156"/>
			<point x="160" y="-156"/>
			<point x="129" y="-156" type="curve"/>
			<point x="270" y="646" type="line"/>
			<point x="298" y="646"/>
			<point x="373" y="646"/>
			<point x="417" y="646" type="curve"/>
			<point x="418" y="652"/>
			<point x="423" y="684"/>
			<point x="424" y="689" type="curve"/>
			<point x="209" y="689" type="line"/>
		</contour>
	</outline>
</glyph>
<glyph name="backslash" format="2">
	<unicode hex="005C"/>
	<advance width="321"/>
	<outline>
		<contour>
			<point x="178" y="698" type="line"/>
			<point x="134" y="698" type="line"/>
			<point x="267" y="-48" type="line"/>
			<point x="311" y="-48" type="line"/>
		</contour>
	</outline>
</glyph>
<glyph name="asciicircum" format="2">
	<unicode hex="005E"/>
	<advance width="518"/>
	<outline>
		<contour>
			<point x="363" y="593" type="line"/>
			<point x="423" y="347" type="line"/>
			<point x="467" y="347" type="line"/>
			<point x="395" y="650" type="line"/>
			<point x="353" y="650" type="line"/>
			<point x="173" y="347" type="line"/>
			<point x="217" y="347" type="line"/>
		</contour>
	</outline>
</glyph>
<glyph name="grave" format="2">
	<unicode hex="0060"/>
	<advance width="318"/>
	<outline>
		<contour>
			<point x="245" y="661" type="line"/>
			<point x="242" y="662"/>
			<point x="235" y="663"/>
			<point x="230" y="663" type="curve" smooth="yes"/>
			<point x="201" y="663"/>
			<point x="183" y="647"/>
			<point x="179" y="640" type="curve"/>
			<point x="179" y="629" type="line"/>
			<point x="313" y="520" type="line" smooth="yes"/>
			<point x="331" y="505"/>
			<point x="338" y="500"/>
			<point x="345" y="500" type="curve" smooth="yes"/>
			<point x="352" y="500"/>
			<point x="357" y="505"/>
			<point x="357" y="511" type="curve" smooth="yes"/>
			<point x="357" y="516"/>
			<point x="355" y="525"/>
			<point x="347" y="535" type="curve" smooth="yes"/>
		</contour>
	</outline>
	<guideline x="347" y="535" angle="308.99"/>
	<guideline x="313" y="520" angle="140.87"/>
	<guideline x="0" y="500" angle="0"/>
</glyph>
<glyph name="b" format="2">
	<unicode hex="0062"/>
	<advance width="478"/>
	<outline>
		<contour>
			<point x="204" y="262" type="line"/>
			<point x="278" y="360"/>
			<point x="316" y="392"/>
			<point x="355" y="392" type="curve" smooth="yes"/>
			<point x="403" y="392"/>
			<point x="410" y="336"/>
			<point x="410" y="301" type="curve" smooth="yes"/>
			<point x="410" y="157"/>
			<point x="284" y="27"/>
			<point x="211" y="27" type="curve" smooth="yes"/>
			<point x="185" y="27"/>
			<point x="174" y="44"/>
			<point x="174" y="75" type="curve" smooth="yes"/>
			<point x="174" y="91"/>
			<point x="177" y="111"/>
			<point x="182" y="133" type="curve" smooth="yes"/>
			<point x="284" y="583" type="line" smooth="yes"/>
			<point x="292" y="618"/>
			<point x="300" y="651"/>
			<point x="312" y="688" type="curve"/>
			<point x="312" y="695"/>
			<point x="309" y="698"/>
			<point x="300" y="698" type="curve"/>
			<point x="279" y="690"/>
			<point x="190" y="674"/>
			<point x="157" y="672" type="curve"/>
			<point x="154" y="663"/>
			<point x="152" y="652"/>
			<point x="152" y="643" type="curve"/>
			<point x="196" y="641"/>
			<point x="211" y="633"/>
			<point x="211" y="610" type="curve" smooth="yes"/>
			<point x="211" y="602"/>
			<point x="209" y="585"/>
			<point x="204" y="563" type="curve" smooth="yes"/>
			<point x="107" y="128" type="line"/>
			<point x="102" y="113"/>
			<point x="98" y="95"/>
			<point x="98" y="78" type="curve" smooth="yes"/>
			<point x="98" y="30"/>
			<point x="129" y="-10"/>
			<point x="203" y="-10" type="curve" smooth="yes"/>
			<point x="337" y="-10"/>
			<point x="492" y="199"/>
			<point x="492" y="320" type="curve" smooth="yes"/>
			<point x="492" y="399"/>
			<point x="469" y="439"/>
			<point x="387" y="439" type="curve" smooth="yes"/>
			<point x="318" y="439"/>
			<point x="266" y="378"/>
			<point x="231" y="335" type="curve"/>
			<point x="204" y="335" type="line"/>
		</contour>
	</outline>
</glyph>
<glyph name="c" format="2">
	<unicode hex="0063"/>
	<advance width="389"/>
	<outline>
		<contour>
			<point x="394" y="109" type="curve"/>
			<point x="391" y="119"/>
			<point x="381" y="126"/>
			<point x="372" y="126" type="curve"/>
			<point x="323" y="72"/>
			<point x="285" y="49"/>
			<point x="247" y="49" type="curve" smooth="yes"/>
			<point x="194" y="49"/>
			<point x="165" y="92"/>
			<point x="165" y="178" type="curve" smooth="yes"/>
			<point x="165" y="303"/>
			<point x="227" y="408"/>
			<point x="308" y="408" type="curve" smooth="yes"/>
			<point x="337" y="408"/>
			<point x="354" y="395"/>
			<point x="354" y="373" type="curve" smooth="yes"/>
			<point x="354" y="355"/>
			<point x="344" y="346"/>
			<point x="344" y="331" type="curve" smooth="yes"/>
			<point x="344" y="312"/>
			<point x="359" y="297"/>
			<point x="379" y="297" type="curve" smooth="yes"/>
			<point x="402" y="297"/>
			<point x="423" y="318"/>
			<point x="423" y="343" type="curve" smooth="yes"/>
			<point x="423" y="409"/>
			<point x="388" y="439"/>
			<point x="311" y="439" type="curve" smooth="yes"/>
			<point x="190" y="439"/>
			<point x="83" y="303"/>
			<point x="83" y="154" type="curve" smooth="yes"/>
			<point x="83" y="53"/>
			<point x="132" y="-10"/>
			<point x="209" y="-10" type="curve" smooth="yes"/>
			<point x="273" y="-10"/>
			<point x="340" y="33"/>
		</contour>
	</outline>
</glyph>
<glyph name="j" format="2">
	<unicode hex="006A"/>
	<advance width="259"/>
	<outline>
		<contour>
			<point x="145" y="176" type="line" smooth="yes"/>
			<point x="124" y="79"/>
			<point x="114" y="16"/>
			<point x="96" y="-56" type="curve" smooth="yes"/>
			<point x="74" y="-142"/>
			<point x="40" y="-160"/>
			<point x="22" y="-160" type="curve" smooth="yes"/>
			<point x="-5" y="-160"/>
			<point x="0" y="-117"/>
			<point x="-49" y="-117" type="curve" smooth="yes"/>
			<point x="-62" y="-117"/>
			<point x="-78" y="-127"/>
			<point x="-78" y="-148" type="curve" smooth="yes"/>
			<point x="-78" y="-180"/>
			<point x="-40" y="-196"/>
			<point x="4" y="-196" type="curve" smooth="yes"/>
			<point x="129" y="-196"/>
			<point x="182" y="-9"/>
			<point x="233" y="234" type="curve" smooth="yes"/>
			<point x="251" y="320" type="line" smooth="yes"/>
			<point x="260" y="360"/>
			<point x="271" y="402"/>
			<point x="271" y="415" type="curve" smooth="yes"/>
			<point x="271" y="429"/>
			<point x="263" y="436"/>
			<point x="250" y="436" type="curve" smooth="yes"/>
			<point x="218" y="436"/>
			<point x="173" y="430"/>
			<point x="126" y="423" type="curve"/>
			<point x="119" y="415"/>
			<point x="121" y="404"/>
			<point x="127" y="395" type="curve"/>
			<point x="167" y="392" type="line" smooth="yes"/>
			<point x="179" y="391"/>
			<point x="185" y="382"/>
			<point x="185" y="372" type="curve" smooth="yes"/>
			<point x="185" y="363"/>
			<point x="183" y="349"/>
			<point x="177" y="321" type="curve" smooth="yes"/>
		</contour>
		<contour>
			<point x="206" y="570" type="curve" smooth="yes"/>
			<point x="206" y="544"/>
			<point x="228" y="522"/>
			<point x="254" y="522" type="curve" smooth="yes"/>
			<point x="280" y="522"/>
			<point x="302" y="544"/>
			<point x="302" y="570" type="curve" smooth="yes"/>
			<point x="302" y="596"/>
			<point x="280" y="618"/>
			<point x="254" y="618" type="curve" smooth="yes"/>
			<point x="228" y="618"/>
			<point x="206" y="596"/>
		</contour>
	</outline>
</glyph>
<glyph name="k" format="2">
	<unicode hex="006B"/>
	<advance width="486"/>
	<outline>
		<contour>
			<point x="189" y="229" type="line"/>
			<point x="201" y="237"/>
			<point x="211" y="237"/>
			<point x="221" y="237" type="curve" smooth="yes"/>
			<point x="229" y="237"/>
			<point x="236" y="230"/>
			<point x="241" y="221" type="curve" smooth="yes"/>
			<point x="259" y="189"/>
			<point x="270" y="138"/>
			<point x="290" y="93" type="curve" smooth="yes"/>
			<point x="320" y="27"/>
			<point x="344" y="-5"/>
			<point x="379" y="-9" type="curve"/>
			<point x="382" y="-10"/>
			<point x="386" y="-10"/>
			<point x="389" y="-10" type="curve" smooth="yes"/>
			<point x="423" y="-10"/>
			<point x="458" y="21"/>
			<point x="490" y="77" type="curve"/>
			<point x="483" y="85"/>
			<point x="479" y="90"/>
			<point x="468" y="90" type="curve"/>
			<point x="448" y="61"/>
			<point x="427" y="42"/>
			<point x="416" y="42" type="curve" smooth="yes"/>
			<point x="401" y="42"/>
			<point x="393" y="54"/>
			<point x="386" y="68" type="curve" smooth="yes"/>
			<point x="384" y="72"/>
			<point x="382" y="76"/>
			<point x="380" y="80" type="curve" smooth="yes"/>
			<point x="357" y="125"/>
			<point x="344" y="159"/>
			<point x="333" y="186" type="curve"/>
			<point x="330" y="191"/>
			<point x="328" y="197"/>
			<point x="325" y="202" type="curve"/>
			<point x="309" y="233"/>
			<point x="303" y="247"/>
			<point x="270" y="256" type="curve"/>
			<point x="270" y="260" type="line"/>
			<point x="322" y="306" type="line" smooth="yes"/>
			<point x="333" y="316"/>
			<point x="343" y="324"/>
			<point x="352" y="332" type="curve"/>
			<point x="383" y="357"/>
			<point x="402" y="368"/>
			<point x="418" y="368" type="curve" smooth="yes"/>
			<point x="428" y="368"/>
			<point x="434" y="366"/>
			<point x="439" y="363" type="curve"/>
			<point x="447" y="359"/>
			<point name=".hr01" x="454" y="354"/>
			<point x="474" y="354" type="curve" smooth="yes"/>
			<point x="486" y="354"/>
			<point x="510" y="367"/>
			<point x="518" y="390" type="curve"/>
			<point x="519" y="394"/>
			<point x="520" y="399"/>
			<point x="520" y="404" type="curve" smooth="yes"/>
			<point x="520" y="432"/>
			<point x="498" y="439"/>
			<point x="471" y="439" type="curve" smooth="yes"/>
			<point x="439" y="439"/>
			<point x="378" y="401"/>
			<point x="306" y="337" type="curve"/>
			<point x="274" y="310" type="line"/>
			<point x="271" y="308"/>
			<point x="269" y="305"/>
			<point x="266" y="303" type="curve"/>
			<point x="245" y="285"/>
			<point x="219" y="265"/>
			<point x="193" y="275" type="curve"/>
		</contour>
		<contour>
			<point x="153" y="24" type="curve" smooth="yes"/>
			<point x="278" y="583" type="line" smooth="yes"/>
			<point x="290" y="638"/>
			<point x="295" y="659"/>
			<point x="303" y="688" type="curve"/>
			<point x="303" y="695"/>
			<point x="300" y="698"/>
			<point x="291" y="698" type="curve"/>
			<point x="249" y="684"/>
			<point x="195" y="676"/>
			<point x="151" y="672" type="curve"/>
			<point x="147" y="665"/>
			<point x="144" y="653"/>
			<point x="146" y="643" type="curve"/>
			<point x="188" y="639"/>
			<point x="205" y="629"/>
			<point x="205" y="609" type="curve" smooth="yes"/>
			<point x="205" y="602"/>
			<point x="203" y="585"/>
			<point x="198" y="563" type="curve" smooth="yes"/>
			<point x="77" y="22" type="line" smooth="yes"/>
			<point x="74" y="9"/>
			<point x="86" y="0"/>
			<point x="95" y="0" type="curve" smooth="yes"/>
			<point x="123" y="0" type="line" smooth="yes"/>
			<point x="138" y="0"/>
			<point x="150" y="9"/>
		</contour>
	</outline>
	<anchor name="t.uni0302" x="422" y="700"/>
</glyph>
<glyph name="o" format="2">
	<unicode hex="006F"/>
	<advance width="447"/>
	<outline>
		<contour>
			<point x="324" y="439" type="line"/>
			<point x="451" y="439"/>
			<point x="464" y="320"/>
			<point x="464" y="267" type="curve" smooth="yes"/>
			<point x="464" y="124"/>
			<point x="368" y="-10"/>
			<point x="218" y="-10" type="curve"/>
			<point x="233" y="27" type="line"/>
			<point x="339" y="27"/>
			<point x="381" y="169"/>
			<point x="381" y="259" type="curve" smooth="yes"/>
			<point x="381" y="364"/>
			<point x="338" y="402"/>
			<point x="309" y="402" type="curve"/>
		</contour>
		<contour>
			<point x="218" y="-10" type="line"/>
			<point x="91" y="-10"/>
			<point x="78" y="109"/>
			<point x="78" y="162" type="curve" smooth="yes"/>
			<point x="78" y="305"/>
			<point x="174" y="439"/>
			<point x="324" y="439" type="curve"/>
			<point x="309" y="402" type="line"/>
			<point x="203" y="402"/>
			<point x="161" y="260"/>
			<point x="161" y="170" type="curve" smooth="yes"/>
			<point x="161" y="65"/>
			<point x="204" y="27"/>
			<point x="233" y="27" type="curve"/>
		</contour>
	</outline>
	<anchor name="t.uni0302" x="333" y="500"/>
	<anchor name="b.uni0328" x="289" y="27"/>
	<guideline x="0" y="500" angle="0"/>
	<guideline x="228" y="3" angle="78"/>
</glyph>
<glyph name="p" format="2">
	<unicode hex="0070"/>
	<advance width="489"/>
	<outline>
		<contour>
			<point x="266" y="404" type="curve"/>
			<point x="270" y="422"/>
			<point x="279" y="452"/>
			<point x="279" y="464" type="curve" smooth="yes"/>
			<point x="279" y="478"/>
			<point x="273" y="487"/>
			<point x="254" y="490" type="curve"/>
			<point x="249" y="491"/>
			<point x="243" y="491"/>
			<point x="237" y="491" type="curve" smooth="yes"/>
			<point x="199" y="491"/>
			<point x="199" y="447"/>
			<point x="191" y="409" type="curve"/>
			<point x="190" y="405"/>
			<point x="189" y="401"/>
			<point x="188" y="397" type="curve"/>
			<point x="178" y="350" type="line"/>
			<point x="128" y="314"/>
			<point x="91" y="284"/>
			<point x="63" y="249" type="curve"/>
			<point x="67" y="235"/>
			<point x="76" y="228"/>
			<point x="94" y="228" type="curve"/>
			<point x="116" y="257"/>
			<point x="138" y="275"/>
			<point x="166" y="298" type="curve"/>
			<point x="66" y="-148" type="line"/>
			<point x="63" y="-161" type="line" smooth="yes"/>
			<point x="57" y="-189"/>
			<point x="42" y="-201"/>
			<point x="10" y="-206" type="curve" smooth="yes"/>
			<point x="-9" y="-209" type="line"/>
			<point x="-14" y="-210"/>
			<point x="-19" y="-211"/>
			<point x="-19" y="-217" type="curve" smooth="yes"/>
			<point x="-19" y="-236" type="line"/>
			<point x="-17" y="-238" type="line"/>
			<point x="-17" y="-238"/>
			<point x="51" y="-233"/>
			<point x="87" y="-233" type="curve" smooth="yes"/>
			<point x="97" y="-233"/>
			<point x="108" y="-233"/>
			<point x="120" y="-233" type="curve"/>
			<point x="156" y="-234"/>
			<point x="194" y="-235"/>
			<point x="194" y="-235" type="curve"/>
			<point x="196" y="-233" type="line"/>
			<point x="196" y="-213" type="line" smooth="yes"/>
			<point x="196" y="-208"/>
			<point x="194" y="-206"/>
			<point x="190" y="-205" type="curve"/>
			<point x="171" y="-202" type="line" smooth="yes"/>
			<point x="156" y="-200"/>
			<point x="130" y="-195"/>
			<point x="138" y="-161" type="curve" smooth="yes"/>
			<point x="182" y="23" type="line"/>
			<point x="197" y="7"/>
			<point x="226" y="-10"/>
			<point x="255" y="-10" type="curve" smooth="yes"/>
			<point x="260" y="-10"/>
			<point x="264" y="-10"/>
			<point x="269" y="-9" type="curve"/>
			<point x="320" y="-6"/>
			<point x="364" y="19"/>
			<point x="400" y="53" type="curve" smooth="yes"/>
			<point x="410" y="62"/>
			<point x="419" y="72"/>
			<point x="428" y="83" type="curve" smooth="yes"/>
			<point x="482" y="149"/>
			<point x="509" y="217"/>
			<point x="509" y="289" type="curve" smooth="yes"/>
			<point x="509" y="373"/>
			<point x="481" y="439"/>
			<point x="381" y="439" type="curve" smooth="yes"/>
			<point x="330" y="439"/>
			<point x="293" y="420"/>
		</contour>
		<contour>
			<point x="427" y="273" type="curve" smooth="yes"/>
			<point x="427" y="225"/>
			<point x="407" y="155"/>
			<point x="369" y="97" type="curve" smooth="yes"/>
			<point x="347" y="62"/>
			<point x="316" y="35"/>
			<point x="284" y="27" type="curve"/>
			<point x="278" y="26"/>
			<point x="271" y="25"/>
			<point x="265" y="25" type="curve" smooth="yes"/>
			<point x="239" y="25"/>
			<point x="212" y="38"/>
			<point x="191" y="67" type="curve"/>
			<point x="257" y="359" type="line"/>
			<point x="282" y="375"/>
			<point x="311" y="393"/>
			<point x="349" y="393" type="curve" smooth="yes"/>
			<point x="359" y="393"/>
			<point x="367" y="392"/>
			<point x="375" y="389" type="curve" smooth="yes"/>
			<point x="420" y="373"/>
			<point x="427" y="315"/>
		</contour>
	</outline>
</glyph>
<glyph name="q" format="2">
	<unicode hex="0071"/>
	<advance width="491"/>
	<outline>
		<contour>
			<point x="295" y="-161" type="line" smooth="yes"/>
			<point x="288" y="-189"/>
			<point x="274" y="-201"/>
			<point x="242" y="-206" type="curve" smooth="yes"/>
			<point x="223" y="-209" type="line"/>
			<point x="218" y="-210"/>
			<point x="213" y="-211"/>
			<point x="213" y="-217" type="curve" smooth="yes"/>
			<point x="213" y="-236" type="line"/>
			<point x="215" y="-238" type="line"/>
			<point x="215" y="-238"/>
			<point x="284" y="-233"/>
			<point x="320" y="-233" type="curve" smooth="yes"/>
			<point x="359" y="-233"/>
			<point x="427" y="-235"/>
			<point x="427" y="-235" type="curve"/>
			<point x="429" y="-233" type="line"/>
			<point x="429" y="-213" type="line" smooth="yes"/>
			<point x="429" y="-208"/>
			<point x="427" y="-206"/>
			<point x="423" y="-205" type="curve"/>
			<point x="404" y="-202" type="line" smooth="yes"/>
			<point x="389" y="-200"/>
			<point x="363" y="-195"/>
			<point x="371" y="-161" type="curve" smooth="yes"/>
			<point x="505" y="421" type="line"/>
			<point x="506" y="426"/>
			<point x="507" y="431"/>
			<point x="507" y="436" type="curve" smooth="yes"/>
			<point x="507" y="444"/>
			<point x="499" y="446"/>
			<point x="496" y="446" type="curve" smooth="yes"/>
			<point x="489" y="446"/>
			<point x="476" y="443"/>
			<point x="465" y="427" type="curve" smooth="yes"/>
			<point x="460" y="420"/>
			<point x="441" y="393"/>
			<point x="436" y="386" type="curve"/>
			<point x="413" y="418"/>
			<point x="381" y="439"/>
			<point x="340" y="439" type="curve" smooth="yes"/>
			<point x="234" y="439"/>
			<point x="81" y="319"/>
			<point x="81" y="147" type="curve" smooth="yes"/>
			<point x="81" y="72"/>
			<point x="104" y="-10"/>
			<point x="198" y="-10" type="curve" smooth="yes"/>
			<point x="247" y="-10"/>
			<point x="296" y="14"/>
			<point x="358" y="100" type="curve"/>
			<point x="361" y="99" type="line"/>
		</contour>
		<contour>
			<point x="405" y="330" type="curve" smooth="yes"/>
			<point x="405" y="314"/>
			<point x="386" y="236"/>
			<point x="367" y="180" type="curve" smooth="yes"/>
			<point x="344" y="115"/>
			<point x="256" y="32"/>
			<point x="219" y="32" type="curve" smooth="yes"/>
			<point x="180" y="32"/>
			<point x="165" y="102"/>
			<point x="165" y="158" type="curve" smooth="yes"/>
			<point x="165" y="278"/>
			<point x="242" y="403"/>
			<point x="344" y="403" type="curve" smooth="yes"/>
			<point x="380" y="403"/>
			<point x="405" y="371"/>
		</contour>
	</outline>
</glyph>
<glyph name="r" format="2">
	<unicode hex="0072"/>
	<advance width="357"/>
	<outline>
		<contour>
			<point x="202" y="189" type="line"/>
			<point x="250" y="276"/>
			<point x="306" y="369"/>
			<point x="329" y="369" type="curve" smooth="yes"/>
			<point x="339" y="369"/>
			<point x="344" y="364"/>
			<point x="350" y="357" type="curve" smooth="yes"/>
			<point x="357" y="349"/>
			<point name=".hr01" x="370" y="336"/>
			<point x="384" y="336" type="curve" smooth="yes"/>
			<point x="407" y="336"/>
			<point x="424" y="357"/>
			<point x="428" y="380" type="curve"/>
			<point x="429" y="384"/>
			<point x="429" y="388"/>
			<point x="429" y="392" type="curve" smooth="yes"/>
			<point x="429" y="413"/>
			<point x="414" y="439"/>
			<point x="377" y="439" type="curve" smooth="yes"/>
			<point x="327" y="439"/>
			<point x="269" y="377"/>
			<point x="225" y="284" type="curve"/>
			<point x="221" y="285" type="line"/>
			<point x="224" y="297"/>
			<point x="226" y="308"/>
			<point x="229" y="320" type="curve" smooth="yes"/>
			<point x="238" y="359"/>
			<point name=".hr02" x="247" y="394"/>
			<point x="247" y="411" type="curve" smooth="yes"/>
			<point x="247" y="426"/>
			<point x="238" y="436"/>
			<point x="225" y="436" type="curve" smooth="yes"/>
			<point x="193" y="436"/>
			<point x="152" y="429"/>
			<point x="105" y="423" type="curve"/>
			<point x="98" y="415"/>
			<point x="100" y="404"/>
			<point x="106" y="395" type="curve"/>
			<point x="146" y="392" type="line" smooth="yes"/>
			<point x="158" y="391"/>
			<point x="164" y="382"/>
			<point x="164" y="372" type="curve" smooth="yes"/>
			<point x="164" y="370"/>
			<point x="164" y="368"/>
			<point x="164" y="366" type="curve" smooth="yes"/>
			<point x="164" y="357"/>
			<point x="163" y="343"/>
			<point x="157" y="321" type="curve"/>
			<point x="151" y="295"/>
			<point x="145" y="268"/>
			<point x="140" y="242" type="curve"/>
			<point x="102" y="72" type="line" smooth="yes"/>
			<point x="97" y="51"/>
			<point name=".hr03" x="89" y="33"/>
			<point x="89" y="17" type="curve" smooth="yes"/>
			<point x="89" y="1"/>
			<point x="98" y="-10"/>
			<point x="127" y="-10" type="curve" smooth="yes"/>
			<point x="131" y="-10"/>
			<point x="134" y="-9"/>
			<point x="137" y="-8" type="curve" smooth="yes"/>
			<point x="162" y="0"/>
			<point name=".hr04" x="164" y="37"/>
			<point x="173" y="72" type="curve"/>
			<point x="173" y="72"/>
			<point x="173" y="72"/>
			<point x="173" y="72" type="curve"/>
		</contour>
	</outline>
</glyph>
<glyph name="t" format="2">
	<unicode hex="0074"/>
	<advance width="307"/>
	<outline>
		<contour>
			<point x="116" y="118" type="line" smooth="yes"/>
			<point x="109" y="86"/>
			<point x="102" y="55"/>
			<point x="102" y="36" type="curve" smooth="yes"/>
			<point x="102" y="0"/>
			<point x="120" y="-10"/>
			<point x="151" y="-10" type="curve" smooth="yes"/>
			<point x="196" y="-10"/>
			<point x="262" y="31"/>
			<point x="296" y="93" type="curve"/>
			<point x="293" y="106"/>
			<point x="286" y="112"/>
			<point x="274" y="112" type="curve"/>
			<point x="228" y="60"/>
			<point x="210" y="50"/>
			<point x="194" y="50" type="curve" smooth="yes"/>
			<point x="191" y="50"/>
			<point x="181" y="52"/>
			<point x="181" y="64" type="curve" smooth="yes"/>
			<point x="181" y="73"/>
			<point x="184" y="93"/>
			<point x="192" y="127" type="curve" smooth="yes"/>
			<point x="251" y="390" type="line"/>
			<point x="349" y="390" type="line"/>
			<point x="361" y="395"/>
			<point x="370" y="421"/>
			<point x="359" y="429" type="curve"/>
			<point x="260" y="429" type="line"/>
			<point x="270" y="474" type="line" smooth="yes"/>
			<point x="274" y="493"/>
			<point x="283" y="522"/>
			<point x="283" y="534" type="curve" smooth="yes"/>
			<point x="283" y="551"/>
			<point x="275" y="561"/>
			<point x="243" y="561" type="curve" smooth="yes"/>
			<point x="207" y="561"/>
			<point x="209" y="516"/>
			<point x="199" y="479" type="curve" smooth="yes"/>
			<point x="186" y="429" type="line"/>
			<point x="133" y="426" type="line" smooth="yes"/>
			<point x="114" y="425"/>
			<point x="107" y="417"/>
			<point x="105" y="409" type="curve"/>
			<point x="104" y="406"/>
			<point x="101" y="394"/>
			<point x="101" y="392" type="curve" smooth="yes"/>
			<point x="101" y="390"/>
			<point x="104" y="390"/>
			<point x="107" y="390" type="curve" smooth="yes"/>
			<point x="177" y="390" type="line"/>
		</contour>
	</outline>
</glyph>
<glyph name="x" format="2">
	<unicode hex="0078"/>
	<advance width="475"/>
	<outline>
		<contour>
			<point x="198" y="351" type="curve"/>
			<point x="202" y="343"/>
			<point x="209" y="327"/>
			<point x="215" y="309" type="curve"/>
			<point x="227" y="276"/>
			<point x="239" y="244"/>
			<point x="251" y="211" type="curve"/>
			<point x="224" y="171"/>
			<point x="196" y="131"/>
			<point x="169" y="90" type="curve"/>
			<point x="165" y="85"/>
			<point x="161" y="79"/>
			<point x="157" y="73" type="curve"/>
			<point x="152" y="66"/>
			<point x="147" y="61"/>
			<point x="142" y="58" type="curve" smooth="yes"/>
			<point x="137" y="55"/>
			<point name=".hr01" x="133" y="54"/>
			<point x="129" y="54" type="curve" smooth="yes"/>
			<point x="121" y="54"/>
			<point x="110" y="56"/>
			<point x="102" y="60" type="curve"/>
			<point x="93" y="64"/>
			<point name=".hr02" x="83" y="66"/>
			<point x="73" y="66" type="curve" smooth="yes"/>
			<point x="55" y="66"/>
			<point x="41" y="55"/>
			<point x="36" y="38" type="curve"/>
			<point x="35" y="35"/>
			<point x="35" y="32"/>
			<point x="35" y="28" type="curve" smooth="yes"/>
			<point x="35" y="2"/>
			<point x="70" y="-10"/>
			<point x="93" y="-10" type="curve" smooth="yes"/>
			<point x="96" y="-10"/>
			<point x="98" y="-10"/>
			<point x="101" y="-10" type="curve"/>
			<point x="131" y="-7"/>
			<point x="154" y="10"/>
			<point x="195" y="68" type="curve" smooth="yes"/>
			<point x="218" y="101"/>
			<point x="242" y="135"/>
			<point x="265" y="168" type="curve"/>
			<point x="294" y="77" type="line"/>
			<point x="297" y="66"/>
			<point x="300" y="56"/>
			<point x="303" y="46" type="curve" smooth="yes"/>
			<point x="314" y="11"/>
			<point x="323" y="-6"/>
			<point x="348" y="-9" type="curve"/>
			<point x="352" y="-10"/>
			<point x="356" y="-10"/>
			<point x="360" y="-10" type="curve" smooth="yes"/>
			<point x="395" y="-10"/>
			<point x="439" y="9"/>
			<point x="470" y="61" type="curve"/>
			<point x="466" y="70"/>
			<point x="457" y="78"/>
			<point x="446" y="80" type="curve"/>
			<point x="420" y="47"/>
			<point name=".hr03" x="407" y="39"/>
			<point x="396" y="39" type="curve" smooth="yes"/>
			<point x="387" y="39"/>
			<point x="380" y="52"/>
			<point x="372" y="76" type="curve" smooth="yes"/>
			<point x="318" y="237" type="line"/>
			<point x="394" y="349" type="line" smooth="yes"/>
			<point x="402" y="361"/>
			<point x="412" y="367"/>
			<point x="421" y="371" type="curve" smooth="yes"/>
			<point x="430" y="375"/>
			<point x="438" y="376"/>
			<point x="441" y="376" type="curve" smooth="yes"/>
			<point x="449" y="376"/>
			<point x="462" y="373"/>
			<point x="471" y="366" type="curve" smooth="yes"/>
			<point name=".hr04" x="475" y="363"/>
			<point x="480" y="361"/>
			<point x="486" y="359" type="curve"/>
			<point x="493" y="357"/>
			<point name=".hr05" x="499" y="356"/>
			<point x="504" y="356" type="curve" smooth="yes"/>
			<point x="516" y="356"/>
			<point x="530" y="370"/>
			<point x="535" y="388" type="curve"/>
			<point x="536" y="391"/>
			<point x="536" y="395"/>
			<point x="536" y="399" type="curve" smooth="yes"/>
			<point x="536" y="424"/>
			<point x="509" y="439"/>
			<point x="486" y="439" type="curve" smooth="yes"/>
			<point x="483" y="439"/>
			<point x="480" y="439"/>
			<point x="477" y="439" type="curve"/>
			<point x="432" y="437"/>
			<point x="400" y="418"/>
			<point x="354" y="351" type="curve" smooth="yes"/>
			<point x="350" y="345"/>
			<point x="346" y="339"/>
			<point x="342" y="333" type="curve"/>
			<point x="329" y="315"/>
			<point x="317" y="297"/>
			<point x="304" y="279" type="curve"/>
			<point x="276" y="367" type="line" smooth="yes"/>
			<point x="265" y="402"/>
			<point x="256" y="422"/>
			<point x="244" y="432" type="curve" smooth="yes"/>
			<point x="238" y="437"/>
			<point x="231" y="439"/>
			<point x="223" y="439" type="curve" smooth="yes"/>
			<point x="200" y="439"/>
			<point x="126" y="398"/>
			<point x="91" y="372" type="curve"/>
			<point x="92" y="361"/>
			<point x="96" y="349"/>
			<point x="104" y="341" type="curve"/>
			<point x="114" y="346"/>
			<point x="140" y="359"/>
			<point x="160" y="362" type="curve"/>
			<point name=".hr06" x="164" y="363"/>
			<point x="167" y="363"/>
			<point x="170" y="363" type="curve" smooth="yes"/>
			<point x="183" y="363"/>
			<point x="193" y="360"/>
		</contour>
	</outline>
</glyph>
<glyph name="sterling" format="2">
	<unicode hex="00A3"/>
	<advance width="438"/>
	<outline>
		<contour>
			<point x="124" y="292" type="curve"/>
			<point x="190" y="292" type="line"/>
			<point x="185" y="266" type="line" smooth="yes"/>
			<point x="172" y="202"/>
			<point x="151" y="125"/>
			<point x="96" y="77" type="curve" smooth="yes"/>
			<point x="88" y="70"/>
			<point x="83" y="66"/>
			<point x="76" y="61" type="curve"/>
			<point x="48" y="48"/>
			<point x="23" y="29"/>
			<point x="19" y="7" type="curve"/>
			<point x="16" y="-5"/>
			<point x="27" y="-17"/>
			<point x="40" y="-17" type="curve"/>
			<point x="40" y="-17"/>
			<point x="40" y="-17"/>
			<point x="40" y="-17" type="curve"/>
			<point x="57" y="-17"/>
			<point x="82" y="-6"/>
			<point x="87" y="20" type="curve" smooth="yes"/>
			<point x="89" y="30"/>
			<point x="101" y="46"/>
			<point x="134" y="46" type="curve" smooth="yes"/>
			<point x="160" y="46"/>
			<point x="181" y="34"/>
			<point x="203" y="20" type="curve" smooth="yes"/>
			<point x="225" y="6"/>
			<point x="248" y="-8"/>
			<point x="279" y="-11" type="curve"/>
			<point x="283" y="-12"/>
			<point x="287" y="-12"/>
			<point x="292" y="-12" type="curve" smooth="yes"/>
			<point x="362" y="-12"/>
			<point x="413" y="23"/>
			<point x="440" y="72" type="curve"/>
			<point x="424" y="85" type="line"/>
			<point x="393" y="52"/>
			<point x="346" y="38"/>
			<point x="318" y="38" type="curve" smooth="yes"/>
			<point x="292" y="38"/>
			<point x="279" y="46"/>
			<point x="265" y="57" type="curve"/>
			<point x="246" y="71"/>
			<point x="223" y="85"/>
			<point x="164" y="85" type="curve" smooth="yes"/>
			<point x="161" y="85"/>
			<point x="158" y="85"/>
			<point x="154" y="84" type="curve"/>
			<point x="156" y="86"/>
			<point x="158" y="87"/>
			<point x="160" y="88" type="curve"/>
			<point x="202" y="116"/>
			<point x="239" y="170"/>
			<point x="261" y="287" type="curve"/>
			<point x="261" y="289"/>
			<point x="262" y="290"/>
			<point x="262" y="292" type="curve"/>
			<point x="345" y="292" type="line" smooth="yes"/>
			<point x="361" y="292"/>
			<point x="377" y="292"/>
			<point x="393" y="292" type="curve"/>
			<point x="400" y="332" type="line"/>
			<point x="391" y="332"/>
			<point x="383" y="332"/>
			<point x="374" y="332" type="curve" smooth="yes"/>
			<point x="270" y="332" type="line"/>
			<point x="281" y="388" type="line" smooth="yes"/>
			<point x="297" y="470"/>
			<point x="349" y="533"/>
			<point x="393" y="533" type="curve" smooth="yes"/>
			<point x="414" y="533"/>
			<point x="425" y="522"/>
			<point x="436" y="511" type="curve"/>
			<point x="444" y="501"/>
			<point x="452" y="493"/>
			<point x="465" y="493" type="curve" smooth="yes"/>
			<point x="488" y="493"/>
			<point x="508" y="507"/>
			<point x="512" y="531" type="curve"/>
			<point x="519" y="564"/>
			<point x="467" y="575"/>
			<point x="445" y="575" type="curve"/>
			<point x="445" y="575"/>
			<point x="445" y="575"/>
			<point x="445" y="575" type="curve"/>
			<point x="395" y="575"/>
			<point x="349" y="557"/>
			<point x="309" y="523" type="curve"/>
			<point x="309" y="523"/>
			<point x="309" y="523"/>
			<point x="309" y="523" type="curve"/>
			<point x="247" y="472"/>
			<point x="215" y="420"/>
			<point x="199" y="340" type="curve"/>
			<point x="198" y="332" type="line"/>
			<point x="154" y="332" type="line" smooth="yes"/>
			<point x="147" y="332"/>
			<point x="139" y="332"/>
			<point x="132" y="332" type="curve"/>
			<point x="128" y="312" type="line"/>
			<point x="127" y="305"/>
			<point x="125" y="299"/>
		</contour>
	</outline>
</glyph>
<glyph name="yen" format="2">
	<unicode hex="00A5"/>
	<advance width="438"/>
	<outline>
		<contour>
			<point x="437" y="166" type="line"/>
			<point x="293" y="166" type="line"/>
			<point x="306" y="229" type="line"/>
			<point x="449" y="229" type="line"/>
			<point x="457" y="269" type="line"/>
			<point x="326" y="269" type="line"/>
			<point x="339" y="289"/>
			<point x="352" y="310"/>
			<point x="365" y="330" type="curve" smooth="yes"/>
			<point x="466" y="489" type="line"/>
			<point x="469" y="493"/>
			<point x="471" y="497"/>
			<point x="474" y="501" type="curve"/>
			<point x="492" y="530"/>
			<point x="514" y="548"/>
			<point x="543" y="548" type="curve" smooth="yes"/>
			<point x="550" y="548" type="line" smooth="yes"/>
			<point x="555" y="548"/>
			<point x="557" y="549"/>
			<point x="559" y="551" type="curve" smooth="yes"/>
			<point x="560" y="552"/>
			<point x="561" y="554"/>
			<point x="561" y="556" type="curve"/>
			<point x="562" y="562"/>
			<point x="563" y="567"/>
			<point x="564" y="573" type="curve"/>
			<point x="562" y="575" type="line"/>
			<point x="543" y="573"/>
			<point x="499" y="572"/>
			<point x="490" y="572" type="curve" smooth="yes"/>
			<point x="477" y="572"/>
			<point x="420" y="574"/>
			<point x="412" y="575" type="curve"/>
			<point x="412" y="574"/>
			<point x="411" y="574"/>
			<point x="411" y="573" type="curve"/>
			<point x="410" y="567"/>
			<point x="408" y="561"/>
			<point x="407" y="555" type="curve"/>
			<point x="407" y="554"/>
			<point x="407" y="552"/>
			<point x="407" y="550" type="curve"/>
			<point x="408" y="549"/>
			<point x="410" y="548"/>
			<point x="412" y="548" type="curve" smooth="yes"/>
			<point x="427" y="548" type="line" smooth="yes"/>
			<point x="445" y="548"/>
			<point x="451" y="544"/>
			<point x="449" y="535" type="curve"/>
			<point x="449" y="533"/>
			<point x="448" y="530"/>
			<point x="446" y="527" type="curve"/>
			<point x="443" y="520"/>
			<point x="438" y="512"/>
			<point x="433" y="503" type="curve"/>
			<point x="338" y="353" type="line" smooth="yes"/>
			<point x="324" y="332"/>
			<point x="311" y="311"/>
			<point x="298" y="290" type="curve"/>
			<point x="295" y="299"/>
			<point x="293" y="309"/>
			<point x="290" y="318" type="curve"/>
			<point x="238" y="503" type="line"/>
			<point x="237" y="505"/>
			<point x="237" y="507"/>
			<point x="236" y="509" type="curve"/>
			<point x="234" y="519"/>
			<point x="232" y="527"/>
			<point x="233" y="534" type="curve"/>
			<point x="235" y="542"/>
			<point name=".hr01" x="242" y="547"/>
			<point x="260" y="547" type="curve" smooth="yes"/>
			<point x="264" y="547"/>
			<point x="269" y="547"/>
			<point x="273" y="547" type="curve" smooth="yes"/>
			<point x="278" y="547"/>
			<point x="281" y="552"/>
			<point x="282" y="556" type="curve"/>
			<point x="285" y="573" type="line"/>
			<point x="285" y="574"/>
			<point x="284" y="574"/>
			<point x="284" y="575" type="curve"/>
			<point x="274" y="574"/>
			<point x="241" y="573"/>
			<point x="219" y="572" type="curve"/>
			<point x="208" y="572"/>
			<point x="199" y="572"/>
			<point x="197" y="572" type="curve" smooth="yes"/>
			<point x="184" y="572"/>
			<point x="117" y="573"/>
			<point x="106" y="575" type="curve"/>
			<point x="105" y="574"/>
			<point x="105" y="574"/>
			<point x="104" y="573" type="curve"/>
			<point x="103" y="567"/>
			<point x="102" y="561"/>
			<point x="101" y="555" type="curve"/>
			<point x="101" y="553"/>
			<point x="102" y="551"/>
			<point x="103" y="550" type="curve" smooth="yes"/>
			<point name=".hr02" x="105" y="548"/>
			<point x="107" y="548"/>
			<point name=".hr03" x="108" y="547" type="curve"/>
			<point x="109" y="547" type="line"/>
			<point x="111" y="547"/>
			<point x="114" y="547"/>
			<point x="116" y="547" type="curve" smooth="yes"/>
			<point x="143" y="547"/>
			<point x="152" y="530"/>
			<point x="160" y="501" type="curve"/>
			<point x="163" y="492"/>
			<point x="165" y="483"/>
			<point x="168" y="474" type="curve"/>
			<point x="211" y="324" type="line" smooth="yes"/>
			<point x="216" y="305"/>
			<point x="222" y="287"/>
			<point x="227" y="269" type="curve"/>
			<point x="101" y="269" type="line"/>
			<point x="93" y="229" type="line"/>
			<point x="225" y="229" type="line"/>
			<point x="212" y="166" type="line"/>
			<point x="81" y="166" type="line"/>
			<point x="73" y="127" type="line"/>
			<point x="205" y="127" type="line"/>
			<point x="200" y="100" type="line" smooth="yes"/>
			<point x="198" y="90"/>
			<point x="196" y="81"/>
			<point x="194" y="72" type="curve"/>
			<point x="189" y="44"/>
			<point x="172" y="28"/>
			<point x="131" y="28" type="curve" smooth="yes"/>
			<point x="122" y="28"/>
			<point x="114" y="28"/>
			<point x="105" y="28" type="curve" smooth="yes"/>
			<point x="103" y="28"/>
			<point x="100" y="27"/>
			<point x="99" y="26" type="curve"/>
			<point x="97" y="25"/>
			<point x="96" y="23"/>
			<point x="95" y="20" type="curve"/>
			<point x="94" y="14"/>
			<point x="93" y="7"/>
			<point x="92" y="1" type="curve"/>
			<point x="92" y="0"/>
			<point x="93" y="0"/>
			<point x="93" y="-1" type="curve"/>
			<point x="93" y="-1"/>
			<point x="187" y="1"/>
			<point x="223" y="1" type="curve" smooth="yes"/>
			<point x="262" y="1"/>
			<point x="348" y="-1"/>
			<point x="348" y="-1" type="curve"/>
			<point x="351" y="1" type="line"/>
			<point x="352" y="7"/>
			<point x="353" y="14"/>
			<point x="354" y="20" type="curve"/>
			<point x="355" y="23"/>
			<point x="354" y="25"/>
			<point x="353" y="26" type="curve" smooth="yes"/>
			<point x="352" y="27"/>
			<point x="350" y="28"/>
			<point x="348" y="28" type="curve" smooth="yes"/>
			<point x="339" y="28"/>
			<point x="330" y="28"/>
			<point x="321" y="28" type="curve" smooth="yes"/>
			<point x="282" y="28"/>
			<point x="269" y="41"/>
			<point x="275" y="72" type="curve"/>
			<point x="277" y="81"/>
			<point x="279" y="90"/>
			<point x="281" y="100" type="curve"/>
			<point x="282" y="109"/>
			<point x="284" y="118"/>
			<point x="286" y="127" type="curve"/>
			<point x="429" y="127" type="line"/>
		</contour>
	</outline>
</glyph>
<glyph name="section" format="2">
	<unicode hex="00A7"/>
	<advance width="473"/>
	<outline>
		<contour>
			<point x="389" y="-1" type="curve" smooth="yes"/>
			<point x="389" y="24"/>
			<point x="381" y="47"/>
			<point x="363" y="71" type="curve"/>
			<point x="424" y="113"/>
			<point x="452" y="159"/>
			<point x="465" y="198" type="curve"/>
			<point x="472" y="222"/>
			<point x="474" y="243"/>
			<point x="474" y="258" type="curve" smooth="yes"/>
			<point x="474" y="352"/>
			<point x="391" y="391"/>
			<point x="331" y="427" type="curve" smooth="yes"/>
			<point x="288" y="453"/>
			<point x="267" y="487"/>
			<point x="263" y="521" type="curve"/>
			<point x="262" y="525"/>
			<point x="262" y="529"/>
			<point x="262" y="533" type="curve" smooth="yes"/>
			<point x="262" y="592"/>
			<point x="309" y="627"/>
			<point x="363" y="627" type="curve" smooth="yes"/>
			<point x="369" y="627"/>
			<point x="375" y="626"/>
			<point x="379" y="625" type="curve"/>
			<point x="404" y="620"/>
			<point x="412" y="601"/>
			<point x="416" y="576" type="curve"/>
			<point x="416" y="571"/>
			<point name=".hr01" x="417" y="565"/>
			<point x="417" y="560" type="curve"/>
			<point x="417" y="560"/>
			<point x="417" y="560"/>
			<point x="417" y="560" type="curve"/>
			<point x="418" y="541"/>
			<point x="426" y="519"/>
			<point x="452" y="519" type="curve" smooth="yes"/>
			<point x="476" y="519"/>
			<point x="487" y="533"/>
			<point x="491" y="548" type="curve" smooth="yes"/>
			<point x="493" y="555"/>
			<point x="494" y="563"/>
			<point x="494" y="570" type="curve" smooth="yes"/>
			<point x="494" y="609"/>
			<point x="454" y="658"/>
			<point x="367" y="658" type="curve" smooth="yes"/>
			<point x="317" y="658"/>
			<point x="278" y="645"/>
			<point x="249" y="623" type="curve" smooth="yes"/>
			<point x="212" y="595"/>
			<point x="192" y="554"/>
			<point x="189" y="510" type="curve"/>
			<point x="188" y="506"/>
			<point x="188" y="501"/>
			<point x="188" y="497" type="curve" smooth="yes"/>
			<point x="188" y="471"/>
			<point x="195" y="444"/>
			<point x="216" y="416" type="curve"/>
			<point x="154" y="374"/>
			<point x="125" y="327"/>
			<point x="113" y="287" type="curve"/>
			<point x="105" y="264"/>
			<point x="103" y="243"/>
			<point x="103" y="228" type="curve" smooth="yes"/>
			<point x="103" y="152"/>
			<point x="158" y="112"/>
			<point x="211" y="80" type="curve" smooth="yes"/>
			<point x="223" y="73"/>
			<point x="235" y="66"/>
			<point x="246" y="59" type="curve" smooth="yes"/>
			<point x="294" y="30"/>
			<point x="314" y="0"/>
			<point x="314" y="-36" type="curve" smooth="yes"/>
			<point x="314" y="-96"/>
			<point x="265" y="-141"/>
			<point x="211" y="-141" type="curve" smooth="yes"/>
			<point x="168" y="-141"/>
			<point x="161" y="-112"/>
			<point name=".hr02" x="159" y="-74" type="curve"/>
			<point x="159" y="-74"/>
			<point x="159" y="-74"/>
			<point x="159" y="-74" type="curve"/>
			<point x="158" y="-55"/>
			<point x="153" y="-33"/>
			<point x="127" y="-33" type="curve" smooth="yes"/>
			<point name=".hr03" x="103" y="-33"/>
			<point x="91" y="-47"/>
			<point x="86" y="-62" type="curve"/>
			<point x="83" y="-69"/>
			<point name=".hr04" x="82" y="-77"/>
			<point x="82" y="-84" type="curve" smooth="yes"/>
			<point x="82" y="-122"/>
			<point x="116" y="-172"/>
			<point x="203" y="-172" type="curve" smooth="yes"/>
			<point x="307" y="-172"/>
			<point x="389" y="-102"/>
		</contour>
		<contour>
			<point x="234" y="394" type="curve"/>
			<point x="242" y="386"/>
			<point x="251" y="378"/>
			<point x="261" y="370" type="curve" smooth="yes"/>
			<point x="271" y="362"/>
			<point x="283" y="354"/>
			<point x="295" y="345" type="curve"/>
			<point x="350" y="308"/>
			<point x="409" y="273"/>
			<point x="409" y="203" type="curve" smooth="yes"/>
			<point x="409" y="184"/>
			<point x="406" y="169"/>
			<point x="400" y="155" type="curve" smooth="yes"/>
			<point x="389" y="128"/>
			<point x="368" y="109"/>
			<point x="344" y="92" type="curve"/>
			<point x="328" y="108"/>
			<point x="308" y="124"/>
			<point x="281" y="141" type="curve"/>
			<point x="277" y="144"/>
			<point x="273" y="147"/>
			<point x="268" y="150" type="curve"/>
			<point x="217" y="184"/>
			<point x="167" y="218"/>
			<point name=".hr05" x="167" y="283" type="curve" smooth="yes"/>
			<point x="167" y="301"/>
			<point x="170" y="315"/>
			<point x="175" y="328" type="curve" smooth="yes"/>
			<point x="186" y="358"/>
			<point x="210" y="376"/>
		</contour>
	</outline>
</glyph>
<glyph name="copyright" format="2">
	<unicode hex="00A9"/>
	<advance width="633"/>
	<outline>
		<contour>
			<point x="322" y="23" type="curve" smooth="yes"/>
			<point x="506" y="23"/>
			<point x="671" y="186"/>
			<point x="671" y="361" type="curve" smooth="yes"/>
			<point x="671" y="494"/>
			<point x="577" y="588"/>
			<point x="435" y="588" type="curve" smooth="yes"/>
			<point x="253" y="588"/>
			<point x="93" y="432"/>
			<point x="93" y="255" type="curve" smooth="yes"/>
			<point x="93" y="118"/>
			<point x="187" y="23"/>
		</contour>
		<contour>
			<point x="435" y="560" type="curve" smooth="yes"/>
			<point x="556" y="560"/>
			<point x="639" y="473"/>
			<point x="639" y="359" type="curve" smooth="yes"/>
			<point x="639" y="203"/>
			<point x="486" y="51"/>
			<point x="329" y="51" type="curve" smooth="yes"/>
			<point x="208" y="51"/>
			<point x="125" y="139"/>
			<point x="125" y="256" type="curve" smooth="yes"/>
			<point x="125" y="411"/>
			<point x="275" y="560"/>
		</contour>
		<contour>
			<point x="483" y="218" type="curve"/>
			<point x="481" y="225"/>
			<point x="473" y="231"/>
			<point x="465" y="232" type="curve"/>
			<point x="451" y="216"/>
			<point x="414" y="181"/>
			<point x="363" y="181" type="curve" smooth="yes"/>
			<point x="309" y="181"/>
			<point x="285" y="219"/>
			<point x="285" y="270" type="curve" smooth="yes"/>
			<point x="285" y="339"/>
			<point x="330" y="435"/>
			<point x="412" y="435" type="curve" smooth="yes"/>
			<point x="469" y="435"/>
			<point x="484" y="414"/>
			<point x="484" y="360" type="curve"/>
			<point x="489.097" y="360.755"/>
			<point x="506.754" y="363.371"/>
			<point x="511" y="364" type="curve"/>
			<point x="515" y="388"/>
			<point x="517" y="416"/>
			<point x="516" y="442" type="curve"/>
			<point x="482" y="442"/>
			<point x="465" y="456"/>
			<point x="423" y="456" type="curve" smooth="yes"/>
			<point x="320" y="456"/>
			<point x="229" y="370"/>
			<point x="229" y="274" type="curve" smooth="yes"/>
			<point x="229" y="208"/>
			<point x="272" y="153"/>
			<point x="349" y="153" type="curve" smooth="yes"/>
			<point x="410" y="153"/>
			<point x="457" y="187"/>
		</contour>
	</outline>
</glyph>
<glyph name="ordfeminine" format="2">
	<unicode hex="00AA"/>
	<advance width="296"/>
	<outline>
		<contour>
			<point x="368" y="632" type="curve"/>
			<point x="343" y="632" type="line" smooth="yes"/>
			<point x="336" y="632"/>
			<point x="330" y="632"/>
			<point x="324" y="633" type="curve"/>
			<point x="320" y="634"/>
			<point x="316" y="634"/>
			<point x="313" y="634" type="curve"/>
			<point x="311" y="635"/>
			<point x="309" y="635"/>
			<point x="308" y="635" type="curve"/>
			<point x="299" y="636"/>
			<point x="291" y="637"/>
			<point x="275" y="637" type="curve" smooth="yes"/>
			<point x="273" y="637"/>
			<point x="272" y="637"/>
			<point x="270" y="637" type="curve"/>
			<point x="234" y="634"/>
			<point x="191" y="604"/>
			<point x="160" y="561" type="curve" smooth="yes"/>
			<point x="135" y="527"/>
			<point x="118" y="484"/>
			<point x="118" y="442" type="curve" smooth="yes"/>
			<point x="118" y="440"/>
			<point x="118" y="438"/>
			<point x="118" y="436" type="curve"/>
			<point x="119" y="402"/>
			<point x="129" y="359"/>
			<point x="178" y="359" type="curve" smooth="yes"/>
			<point x="211" y="359"/>
			<point x="246" y="393"/>
			<point x="283" y="448" type="curve"/>
			<point x="285" y="447" type="line"/>
			<point x="281" y="434" type="line"/>
			<point x="279" y="430"/>
			<point x="278" y="425"/>
			<point x="276" y="421" type="curve"/>
			<point x="274" y="413"/>
			<point x="272" y="405"/>
			<point x="271" y="398" type="curve"/>
			<point x="270" y="394"/>
			<point x="270" y="390"/>
			<point x="270" y="387" type="curve"/>
			<point x="270" y="387"/>
			<point x="270" y="387"/>
			<point x="270" y="387" type="curve"/>
			<point x="270" y="378"/>
			<point x="273" y="368"/>
			<point x="282" y="362" type="curve" smooth="yes"/>
			<point x="285" y="360"/>
			<point x="290" y="359"/>
			<point x="296" y="359" type="curve" smooth="yes"/>
			<point x="334" y="359"/>
			<point x="359" y="384"/>
			<point x="375" y="419" type="curve"/>
			<point x="372" y="424"/>
			<point x="369" y="429"/>
			<point x="361" y="429" type="curve"/>
			<point x="344" y="406"/>
			<point name=".hr01" x="332" y="396"/>
			<point x="326" y="396" type="curve" smooth="yes"/>
			<point x="324" y="396"/>
			<point x="319" y="398"/>
			<point x="319" y="405" type="curve" smooth="yes"/>
			<point x="319" y="411"/>
			<point x="323" y="427"/>
			<point x="325" y="439" type="curve"/>
			<point x="352" y="559" type="line" smooth="yes"/>
			<point x="356" y="579"/>
			<point x="361" y="599"/>
			<point x="365" y="619" type="curve"/>
			<point x="366" y="623"/>
			<point x="367" y="628"/>
		</contour>
		<contour>
			<point x="293" y="501" type="curve"/>
			<point x="265" y="449"/>
			<point x="222" y="400"/>
			<point x="200" y="394" type="curve"/>
			<point x="198" y="393"/>
			<point name=".hr02" x="196" y="393"/>
			<point x="195" y="393" type="curve"/>
			<point x="180" y="393"/>
			<point x="173" y="405"/>
			<point x="170" y="425" type="curve"/>
			<point x="168" y="433"/>
			<point x="168" y="442"/>
			<point x="168" y="452" type="curve" smooth="yes"/>
			<point x="168" y="485"/>
			<point x="181" y="527"/>
			<point x="201" y="560" type="curve" smooth="yes"/>
			<point x="221" y="593"/>
			<point x="248" y="618"/>
			<point x="276" y="618" type="curve" smooth="yes"/>
			<point x="279" y="618"/>
			<point x="283" y="618"/>
			<point x="286" y="617" type="curve"/>
			<point x="296" y="615"/>
			<point x="306" y="611"/>
			<point x="315" y="606" type="curve"/>
			<point x="315" y="606"/>
			<point x="309" y="541"/>
		</contour>
	</outline>
</glyph>
<glyph name="logicalnot" format="2">
	<unicode hex="00AC"/>
	<advance width="560"/>
	<outline>
		<contour>
			<point x="507" y="133" type="line"/>
			<point x="560" y="133" type="line"/>
			<point x="607" y="401" type="line"/>
			<point x="95" y="401" type="line"/>
			<point x="87" y="357" type="line"/>
			<point x="546" y="357" type="line"/>
		</contour>
	</outline>
</glyph>
<glyph name="uni00AD" format="2">
	<unicode hex="00AD"/>
	<advance width="350"/>
	<outline>
		<contour>
			<point x="316" y="236" type="line" smooth="yes"/>
			<point x="329" y="236"/>
			<point x="347" y="261"/>
			<point x="349" y="272" type="curve"/>
			<point x="349" y="273"/>
			<point x="349" y="274"/>
			<point x="349" y="275" type="curve"/>
			<point x="349" y="276"/>
			<point x="349" y="277"/>
			<point x="349" y="278" type="curve"/>
			<point x="349" y="285"/>
			<point x="346" y="290"/>
			<point x="338" y="290" type="curve" smooth="yes"/>
			<point x="329" y="290"/>
			<point x="320" y="290"/>
			<point x="311" y="290" type="curve" smooth="yes"/>
			<point x="122" y="290" type="line" smooth="yes"/>
			<point x="118" y="290"/>
			<point x="113" y="290"/>
			<point x="109" y="290" type="curve" smooth="yes"/>
			<point x="98" y="290"/>
			<point x="81" y="269"/>
			<point x="78" y="253" type="curve"/>
			<point x="78" y="253"/>
			<point x="78" y="252"/>
			<point x="78" y="251" type="curve"/>
			<point x="77" y="250" type="line"/>
			<point x="77" y="242"/>
			<point x="82" y="236"/>
			<point x="89" y="236" type="curve" smooth="yes"/>
			<point x="98" y="236"/>
			<point x="107" y="236"/>
			<point x="116" y="236" type="curve" smooth="yes"/>
		</contour>
	</outline>
</glyph>
<glyph name="degree" format="2">
	<unicode hex="00B0"/>
	<advance width="267"/>
	<outline>
		<contour>
			<point x="256" y="692" type="curve" smooth="yes"/>
			<point x="201" y="692"/>
			<point x="148" y="648"/>
			<point x="139" y="593" type="curve" smooth="yes"/>
			<point x="138" y="587"/>
			<point x="137" y="581"/>
			<point x="137" y="575" type="curve" smooth="yes"/>
			<point x="137" y="528"/>
			<point x="171" y="493"/>
			<point x="221" y="493" type="curve" smooth="yes"/>
			<point x="276" y="493"/>
			<point x="328" y="538"/>
			<point x="338" y="593" type="curve" smooth="yes"/>
			<point x="339" y="599"/>
			<point x="339" y="604"/>
			<point x="339" y="610" type="curve" smooth="yes"/>
			<point x="339" y="657"/>
			<point x="305" y="692"/>
		</contour>
		<contour>
			<point x="306" y="605" type="curve" smooth="yes"/>
			<point x="306" y="601"/>
			<point x="305" y="596"/>
			<point x="305" y="592" type="curve"/>
			<point x="298" y="557"/>
			<point x="267" y="521"/>
			<point x="226" y="521" type="curve" smooth="yes"/>
			<point x="189" y="521"/>
			<point x="170" y="548"/>
			<point x="170" y="578" type="curve" smooth="yes"/>
			<point x="170" y="583"/>
			<point x="171" y="587"/>
			<point x="172" y="592" type="curve"/>
			<point x="178" y="627"/>
			<point x="208" y="665"/>
			<point x="251" y="665" type="curve" smooth="yes"/>
			<point x="290" y="665"/>
			<point x="306" y="634"/>
		</contour>
	</outline>
</glyph>
<glyph name="uni00B2" format="2">
	<unicode hex="00B2"/>
	<advance width="307"/>
	<outline>
		<contour>
			<point x="166" y="611" type="curve"/>
			<point x="165" y="610"/>
			<point x="165" y="608"/>
			<point x="165" y="607" type="curve"/>
			<point x="165" y="596"/>
			<point x="176" y="587"/>
			<point x="188" y="587" type="curve" smooth="yes"/>
			<point x="197" y="587"/>
			<point x="216" y="595"/>
			<point x="219" y="611" type="curve"/>
			<point x="220" y="615"/>
			<point x="220" y="619"/>
			<point x="220" y="623" type="curve"/>
			<point x="219" y="626"/>
			<point x="219" y="630"/>
			<point x="220" y="635" type="curve" smooth="yes"/>
			<point x="221" y="640"/>
			<point x="223" y="645"/>
			<point x="228" y="650" type="curve"/>
			<point x="237" y="658"/>
			<point x="252" y="664"/>
			<point x="279" y="664" type="curve" smooth="yes"/>
			<point x="287" y="664"/>
			<point x="298" y="662"/>
			<point x="307" y="655" type="curve"/>
			<point x="315" y="648"/>
			<point x="322" y="637"/>
			<point x="322" y="619" type="curve" smooth="yes"/>
			<point x="322" y="614"/>
			<point x="321" y="609"/>
			<point x="320" y="604" type="curve"/>
			<point x="319" y="598"/>
			<point x="317" y="592"/>
			<point x="316" y="586" type="curve"/>
			<point x="307" y="556"/>
			<point x="291" y="536"/>
			<point x="264" y="515" type="curve" smooth="yes"/>
			<point x="254" y="507"/>
			<point x="243" y="499"/>
			<point x="231" y="491" type="curve" smooth="yes"/>
			<point x="218" y="482"/>
			<point x="204" y="472"/>
			<point x="192" y="462" type="curve"/>
			<point x="154" y="433"/>
			<point x="123" y="400"/>
			<point x="116" y="364" type="curve"/>
			<point x="322" y="364" type="line"/>
			<point x="331" y="393"/>
			<point x="344" y="428"/>
			<point x="358" y="458" type="curve"/>
			<point x="350" y="460"/>
			<point x="343" y="461"/>
			<point x="335" y="463" type="curve"/>
			<point x="321" y="437"/>
			<point x="300" y="402"/>
			<point x="273" y="397" type="curve"/>
			<point x="270" y="396"/>
			<point x="268" y="396"/>
			<point x="265" y="396" type="curve" smooth="yes"/>
			<point x="184" y="396" type="line"/>
			<point x="188" y="418"/>
			<point x="204" y="439"/>
			<point x="231" y="460" type="curve"/>
			<point x="241" y="469"/>
			<point x="253" y="477"/>
			<point x="267" y="486" type="curve"/>
			<point x="277" y="492" type="line"/>
			<point x="306" y="511"/>
			<point x="330" y="528"/>
			<point x="347" y="546" type="curve" smooth="yes"/>
			<point x="364" y="564"/>
			<point x="375" y="583"/>
			<point x="379" y="605" type="curve"/>
			<point x="381" y="612"/>
			<point x="381" y="617"/>
			<point x="381" y="623" type="curve" smooth="yes"/>
			<point x="381" y="643"/>
			<point x="373" y="657"/>
			<point x="361" y="667" type="curve" smooth="yes"/>
			<point x="345" y="681"/>
			<point x="321" y="687"/>
			<point x="297" y="688" type="curve"/>
			<point x="294" y="688"/>
			<point x="291" y="688"/>
			<point x="288" y="688" type="curve" smooth="yes"/>
			<point x="209" y="688"/>
			<point x="171" y="637"/>
		</contour>
	</outline>
</glyph>
<glyph name="uni00B3" format="2">
	<unicode hex="00B3"/>
	<advance width="307"/>
	<outline>
		<contour>
			<point x="306" y="465" type="curve"/>
			<point x="292" y="396"/>
			<point x="232" y="383"/>
			<point x="213" y="383" type="curve" smooth="yes"/>
			<point x="182" y="383"/>
			<point x="173" y="391"/>
			<point x="167" y="401" type="curve"/>
			<point x="162" y="408"/>
			<point x="157" y="415"/>
			<point x="144" y="415" type="curve" smooth="yes"/>
			<point x="134" y="415"/>
			<point x="115" y="406"/>
			<point x="115" y="393" type="curve" smooth="yes"/>
			<point x="115" y="373"/>
			<point x="162" y="358"/>
			<point x="198" y="358" type="curve" smooth="yes"/>
			<point x="277" y="358"/>
			<point x="353" y="404"/>
			<point x="366" y="473" type="curve" smooth="yes"/>
			<point x="367" y="479"/>
			<point x="368" y="486"/>
			<point x="368" y="491" type="curve" smooth="yes"/>
			<point x="368" y="537"/>
			<point x="332" y="558"/>
			<point x="303" y="561" type="curve"/>
			<point x="335" y="577"/>
			<point x="361" y="600"/>
			<point x="367" y="629" type="curve"/>
			<point x="368" y="633"/>
			<point x="368" y="636"/>
			<point x="368" y="640" type="curve" smooth="yes"/>
			<point x="368" y="670"/>
			<point x="341" y="688"/>
			<point x="294" y="688" type="curve" smooth="yes"/>
			<point x="207" y="688"/>
			<point x="167" y="635"/>
			<point x="164" y="618" type="curve"/>
			<point x="164" y="615"/>
			<point x="165" y="600"/>
			<point x="184" y="600" type="curve" smooth="yes"/>
			<point x="206" y="600"/>
			<point x="212" y="617"/>
			<point x="215" y="629" type="curve" smooth="yes"/>
			<point x="221" y="654"/>
			<point x="257" y="664"/>
			<point x="277" y="664" type="curve" smooth="yes"/>
			<point x="294" y="664"/>
			<point name=".hr01" x="311" y="657"/>
			<point x="311" y="635" type="curve" smooth="yes"/>
			<point x="311" y="631"/>
			<point x="310" y="628"/>
			<point x="310" y="624" type="curve"/>
			<point x="302" y="583"/>
			<point x="267" y="557"/>
			<point x="222" y="551" type="curve"/>
			<point x="219" y="527" type="line"/>
			<point x="227" y="528"/>
			<point x="233" y="529"/>
			<point x="240" y="529" type="curve" smooth="yes"/>
			<point x="262" y="529"/>
			<point name=".hr02" x="307" y="523"/>
			<point x="307" y="480" type="curve" smooth="yes"/>
			<point x="307" y="476"/>
			<point x="307" y="471"/>
		</contour>
	</outline>
</glyph>
<glyph name="acute" format="2">
	<unicode hex="00B4"/>
	<advance width="276"/>
	<outline>
		<contour>
			<point x="273" y="661" type="curve"/>
			<point x="171" y="535" type="line" smooth="yes"/>
			<point x="163" y="525"/>
			<point x="161" y="516"/>
			<point x="161" y="511" type="curve" smooth="yes"/>
			<point x="161" y="505"/>
			<point x="166" y="500"/>
			<point x="173" y="500" type="curve" smooth="yes"/>
			<point x="180" y="500"/>
			<point x="187" y="505"/>
			<point x="205" y="520" type="curve" smooth="yes"/>
			<point x="339" y="629" type="line"/>
			<point x="339" y="640" type="line"/>
			<point x="327" y="655"/>
			<point x="311" y="663"/>
			<point x="288" y="663" type="curve" smooth="yes"/>
			<point x="283" y="663"/>
			<point x="276" y="662"/>
		</contour>
	</outline>
	<anchor name="_top" x="250" y="500"/>
	<guideline x="273" y="661" angle="231.009"/>
	<guideline x="339" y="629" angle="39.126"/>
</glyph>
<glyph name="mu" format="2">
	<unicode hex="00B5"/>
	<advance width="485"/>
	<outline>
		<contour>
			<point x="369" y="154" type="line"/>
			<point x="365" y="141"/>
			<point x="362" y="128"/>
			<point x="358" y="115" type="curve" smooth="yes"/>
			<point x="349" y="83"/>
			<point x="341" y="42"/>
			<point x="341" y="23" type="curve" smooth="yes"/>
			<point x="341" y="4"/>
			<point x="348" y="-10"/>
			<point x="378" y="-10" type="curve"/>
			<point x="378" y="-10"/>
			<point x="378" y="-10"/>
			<point x="378" y="-10" type="curve"/>
			<point x="426" y="-10"/>
			<point x="471" y="24"/>
			<point x="517" y="83" type="curve"/>
			<point x="514" y="92"/>
			<point x="508" y="100"/>
			<point x="494" y="100" type="curve"/>
			<point x="478" y="82"/>
			<point x="462" y="68"/>
			<point x="449" y="59" type="curve" smooth="yes"/>
			<point x="440" y="53"/>
			<point x="433" y="50"/>
			<point x="429" y="50" type="curve" smooth="yes"/>
			<point x="422" y="50"/>
			<point x="419" y="55"/>
			<point x="419" y="67" type="curve" smooth="yes"/>
			<point x="419" y="76"/>
			<point x="424" y="98"/>
			<point x="430" y="124" type="curve" smooth="yes"/>
			<point x="486" y="352" type="line" smooth="yes"/>
			<point x="490" y="370"/>
			<point x="499" y="400"/>
			<point x="499" y="412" type="curve" smooth="yes"/>
			<point x="499" y="429"/>
			<point x="489" y="439"/>
			<point x="457" y="439" type="curve"/>
			<point x="457" y="439" type="line"/>
			<point x="419" y="439"/>
			<point x="421" y="395"/>
			<point x="411" y="357" type="curve" smooth="yes"/>
			<point x="382" y="247" type="line"/>
			<point x="352" y="195"/>
			<point x="324" y="151"/>
			<point x="299" y="117" type="curve" smooth="yes"/>
			<point x="268" y="73"/>
			<point x="240" y="46"/>
			<point x="214" y="41" type="curve"/>
			<point x="212" y="40"/>
			<point x="209" y="40"/>
			<point x="206" y="40" type="curve" smooth="yes"/>
			<point x="148" y="40"/>
			<point x="151" y="95"/>
			<point x="163" y="147" type="curve" smooth="yes"/>
			<point x="206" y="336" type="line"/>
			<point x="208" y="341"/>
			<point x="209" y="347"/>
			<point x="210" y="352" type="curve" smooth="yes"/>
			<point x="214" y="370"/>
			<point x="223" y="400"/>
			<point x="223" y="412" type="curve" smooth="yes"/>
			<point x="223" y="429"/>
			<point x="213" y="439"/>
			<point x="181" y="439" type="curve" smooth="yes"/>
			<point x="143" y="439"/>
			<point x="144" y="395"/>
			<point x="135" y="357" type="curve" smooth="yes"/>
			<point x="131" y="341"/>
			<point x="128" y="325"/>
			<point x="124" y="309" type="curve" smooth="yes"/>
			<point x="85" y="134" type="line"/>
			<point x="85" y="134" type="line"/>
			<point x="78" y="102"/>
			<point x="74" y="72"/>
			<point x="70" y="46" type="curve" smooth="yes"/>
			<point x="67" y="25"/>
			<point x="65" y="7"/>
			<point x="62" y="-8" type="curve"/>
			<point x="55" y="-38"/>
			<point x="43" y="-69"/>
			<point x="32" y="-98" type="curve" smooth="yes"/>
			<point x="21" y="-126"/>
			<point x="11" y="-153"/>
			<point x="8" y="-172" type="curve"/>
			<point x="7" y="-176"/>
			<point x="7" y="-180"/>
			<point x="7" y="-183" type="curve" smooth="yes"/>
			<point x="7" y="-216"/>
			<point x="33" y="-234"/>
			<point x="46" y="-234" type="curve" smooth="yes"/>
			<point x="49" y="-234"/>
			<point x="52" y="-234"/>
			<point x="55" y="-233" type="curve"/>
			<point x="78" y="-229"/>
			<point x="105" y="-206"/>
			<point x="105" y="-131" type="curve" smooth="yes"/>
			<point x="105" y="-112"/>
			<point x="104" y="-92"/>
			<point x="104" y="-71" type="curve" smooth="yes"/>
			<point x="104" y="-46"/>
			<point x="105" y="-21"/>
			<point x="111" y="4" type="curve"/>
			<point x="112" y="9"/>
			<point x="119" y="13"/>
			<point x="125" y="13" type="curve"/>
			<point x="133" y="0"/>
			<point x="149" y="-10"/>
			<point x="167" y="-10" type="curve" smooth="yes"/>
			<point x="177" y="-10"/>
			<point x="186" y="-9"/>
			<point x="195" y="-7" type="curve" smooth="yes"/>
			<point x="258" y="6"/>
			<point x="304" y="65"/>
			<point x="366" y="156" type="curve"/>
		</contour>
	</outline>
</glyph>
<glyph name="ordmasculine" format="2">
	<unicode hex="00BA"/>
	<advance width="349"/>
	<outline>
		<contour>
			<point x="123" y="484" type="curve"/>
			<point x="108" y="412"/>
			<point x="157" y="358"/>
			<point x="231" y="358" type="curve" smooth="yes"/>
			<point x="325" y="358"/>
			<point x="382" y="422"/>
			<point x="396" y="490" type="curve" smooth="yes"/>
			<point x="404" y="533"/>
			<point x="398" y="574"/>
			<point x="366" y="599" type="curve" smooth="yes"/>
			<point x="348" y="613"/>
			<point x="323" y="621"/>
			<point x="287" y="621" type="curve" smooth="yes"/>
			<point x="201" y="621"/>
			<point x="139" y="569"/>
		</contour>
		<contour>
			<point x="276" y="596" type="curve" smooth="yes"/>
			<point x="326" y="596"/>
			<point x="351" y="554"/>
			<point x="336" y="474" type="curve" smooth="yes"/>
			<point x="322" y="402"/>
			<point x="275" y="386"/>
			<point x="247" y="386" type="curve" smooth="yes"/>
			<point x="187" y="386"/>
			<point x="172" y="445"/>
			<point x="182" y="494" type="curve" smooth="yes"/>
			<point x="192" y="548"/>
			<point x="226" y="596"/>
		</contour>
	</outline>
</glyph>
<glyph name="guillemotright" format="2">
	<unicode hex="00BB"/>
	<advance width="464"/>
	<outline>
		<contour>
			<point x="473" y="223" type="line"/>
			<point x="467" y="228"/>
			<point x="456" y="239"/>
			<point x="456" y="239" type="curve"/>
			<point x="405" y="288"/>
			<point x="376" y="331"/>
			<point x="329" y="407" type="curve"/>
			<point x="318" y="399"/>
			<point x="306" y="391"/>
			<point x="295" y="383" type="curve"/>
			<point x="330" y="304"/>
			<point x="357" y="256"/>
			<point x="390" y="215" type="curve"/>
			<point x="339" y="174"/>
			<point x="293" y="126"/>
			<point x="224" y="47" type="curve"/>
			<point x="232" y="39"/>
			<point x="239" y="31"/>
			<point x="247" y="23" type="curve"/>
			<point x="326" y="99"/>
			<point x="375" y="142"/>
			<point x="446" y="191" type="curve"/>
			<point x="446" y="191"/>
			<point x="462" y="202"/>
			<point x="470" y="207" type="curve"/>
		</contour>
		<contour>
			<point x="309" y="223" type="line"/>
			<point x="303" y="228"/>
			<point x="292" y="239"/>
			<point x="292" y="239" type="curve"/>
			<point x="241" y="288"/>
			<point x="212" y="331"/>
			<point x="165" y="407" type="curve"/>
			<point x="154" y="399"/>
			<point x="143" y="391"/>
			<point x="132" y="383" type="curve"/>
			<point x="167" y="304"/>
			<point x="194" y="256"/>
			<point x="227" y="215" type="curve"/>
			<point x="176" y="174"/>
			<point x="130" y="126"/>
			<point x="61" y="47" type="curve"/>
			<point x="68" y="39"/>
			<point x="76" y="31"/>
			<point x="83" y="23" type="curve"/>
			<point x="162" y="99"/>
			<point x="211" y="142"/>
			<point x="282" y="191" type="curve"/>
			<point x="282" y="191"/>
			<point x="298" y="202"/>
			<point x="306" y="207" type="curve"/>
		</contour>
	</outline>
</glyph>
<glyph name="onequarter" format="2">
	<unicode hex="00BC"/>
	<advance width="660"/>
	<outline>
		<contour>
			<point x="572" y="-6" type="curve" smooth="yes"/>
			<point x="577" y="18" type="line"/>
			<point x="627" y="18" type="line"/>
			<point x="641" y="52" type="line"/>
			<point x="585" y="52" type="line"/>
			<point x="625" y="232" type="line" smooth="yes"/>
			<point x="627" y="241"/>
			<point x="614" y="242"/>
			<point x="608" y="242" type="curve" smooth="yes"/>
			<point x="605" y="242"/>
			<point x="595" y="241"/>
			<point x="594" y="241" type="curve"/>
			<point x="594" y="241" type="line"/>
			<point x="570" y="235"/>
			<point x="561" y="221"/>
			<point x="552" y="210" type="curve" smooth="yes"/>
			<point x="511" y="160"/>
			<point x="462" y="107"/>
			<point x="398" y="52" type="curve"/>
			<point x="394" y="49"/>
			<point x="389" y="41"/>
			<point x="389" y="30" type="curve" smooth="yes"/>
			<point x="389" y="24"/>
			<point x="393" y="18"/>
			<point x="407" y="18" type="curve" smooth="yes"/>
			<point x="525" y="18" type="line"/>
			<point x="520" y="-6" type="line" smooth="yes"/>
			<point x="511" y="-47"/>
			<point x="497" y="-50"/>
			<point x="457" y="-52" type="curve"/>
			<point x="450" y="-60"/>
			<point x="447" y="-75"/>
			<point x="450" y="-81" type="curve"/>
			<point x="476" y="-80"/>
			<point x="490" y="-80"/>
			<point x="515" y="-80" type="curve" smooth="yes"/>
			<point x="529" y="-80" type="line" smooth="yes"/>
			<point x="559" y="-80"/>
			<point x="576" y="-80"/>
			<point x="606" y="-81" type="curve"/>
			<point x="612" y="-74"/>
			<point x="615" y="-60"/>
			<point x="613" y="-52" type="curve"/>
			<point x="575" y="-50"/>
			<point x="564" y="-41"/>
		</contour>
		<contour>
			<point x="627" y="541" type="line"/>
			<point x="98" y="-34" type="line"/>
			<point x="140" y="-42" type="line"/>
			<point x="668" y="533" type="line"/>
		</contour>
		<contour>
			<point x="245" y="572" type="curve" smooth="yes"/>
			<point x="257" y="572"/>
			<point x="257" y="562"/>
			<point x="251" y="530" type="curve" smooth="yes"/>
			<point x="224" y="388" type="line"/>
			<point x="222" y="378" type="line" smooth="yes"/>
			<point x="217" y="356"/>
			<point x="200" y="341"/>
			<point x="184" y="341" type="curve" smooth="yes"/>
			<point x="172" y="341"/>
			<point x="160" y="341"/>
			<point x="148" y="341" type="curve" smooth="yes"/>
			<point x="144" y="341"/>
			<point x="141" y="338"/>
			<point x="140" y="336" type="curve"/>
			<point x="139" y="329"/>
			<point x="137" y="322"/>
			<point x="136" y="315" type="curve"/>
			<point x="136" y="315"/>
			<point x="196" y="316"/>
			<point x="234" y="316" type="curve" smooth="yes"/>
			<point x="264" y="316"/>
			<point x="307" y="315"/>
			<point x="318" y="315" type="curve" smooth="yes"/>
			<point x="320" y="315" type="line"/>
			<point x="321" y="322"/>
			<point x="323" y="329"/>
			<point x="324" y="336" type="curve"/>
			<point x="325" y="338"/>
			<point x="324" y="339"/>
			<point x="323" y="340" type="curve" smooth="yes"/>
			<point x="322" y="341"/>
			<point x="321" y="341"/>
			<point x="319" y="341" type="curve" smooth="yes"/>
			<point x="310" y="341"/>
			<point x="300" y="341"/>
			<point x="291" y="341" type="curve" smooth="yes"/>
			<point x="277" y="341"/>
			<point x="268" y="356"/>
			<point x="273" y="378" type="curve"/>
			<point x="274" y="381"/>
			<point x="274" y="385"/>
			<point x="275" y="388" type="curve"/>
			<point x="324" y="639" type="line"/>
			<point x="319" y="639"/>
			<point x="313" y="639"/>
			<point x="308" y="639" type="curve"/>
			<point x="304" y="637"/>
			<point x="301" y="635"/>
			<point x="297" y="633" type="curve"/>
			<point x="255" y="610"/>
			<point x="227" y="599"/>
			<point x="181" y="583" type="curve"/>
			<point x="182" y="574"/>
			<point x="184" y="565"/>
			<point x="185" y="556" type="curve"/>
			<point x="201" y="563"/>
			<point x="232" y="572"/>
		</contour>
		<contour>
			<point x="565" y="195" type="curve"/>
			<point x="554" y="147"/>
			<point x="544" y="100"/>
			<point x="533" y="52" type="curve"/>
			<point x="428" y="52" type="line"/>
			<point x="484" y="101"/>
			<point x="527" y="148"/>
		</contour>
	</outline>
</glyph>
<glyph name="onehalf" format="2">
	<unicode hex="00BD"/>
	<advance width="660"/>
	<outline>
		<contour>
			<point x="444" y="168" type="curve"/>
			<point x="443" y="167"/>
			<point x="443" y="165"/>
			<point x="443" y="164" type="curve"/>
			<point x="443" y="153"/>
			<point x="454" y="144"/>
			<point x="466" y="144" type="curve" smooth="yes"/>
			<point x="475" y="144"/>
			<point x="494" y="152"/>
			<point x="497" y="168" type="curve"/>
			<point x="498" y="172"/>
			<point x="498" y="176"/>
			<point x="498" y="180" type="curve"/>
			<point x="497" y="183"/>
			<point x="497" y="187"/>
			<point x="498" y="192" type="curve" smooth="yes"/>
			<point x="499" y="197"/>
			<point x="501" y="202"/>
			<point x="506" y="207" type="curve"/>
			<point x="515" y="215"/>
			<point x="530" y="221"/>
			<point x="557" y="221" type="curve" smooth="yes"/>
			<point x="565" y="221"/>
			<point x="576" y="219"/>
			<point x="585" y="212" type="curve"/>
			<point x="593" y="205"/>
			<point x="600" y="194"/>
			<point x="600" y="176" type="curve" smooth="yes"/>
			<point x="600" y="171"/>
			<point x="599" y="166"/>
			<point x="598" y="161" type="curve"/>
			<point x="597" y="155"/>
			<point x="595" y="149"/>
			<point x="594" y="143" type="curve"/>
			<point x="585" y="113"/>
			<point x="569" y="93"/>
			<point x="542" y="72" type="curve" smooth="yes"/>
			<point x="532" y="64"/>
			<point x="521" y="56"/>
			<point x="509" y="48" type="curve" smooth="yes"/>
			<point x="496" y="39"/>
			<point x="482" y="29"/>
			<point x="470" y="19" type="curve"/>
			<point x="432" y="-10"/>
			<point x="401" y="-43"/>
			<point x="394" y="-79" type="curve"/>
			<point x="600" y="-79" type="line"/>
			<point x="609" y="-50"/>
			<point x="622" y="-15"/>
			<point x="636" y="15" type="curve"/>
			<point x="628" y="17"/>
			<point x="621" y="18"/>
			<point x="613" y="20" type="curve"/>
			<point x="599" y="-6"/>
			<point x="578" y="-41"/>
			<point x="551" y="-46" type="curve"/>
			<point x="548" y="-47"/>
			<point x="546" y="-47"/>
			<point x="543" y="-47" type="curve" smooth="yes"/>
			<point x="462" y="-47" type="line"/>
			<point x="466" y="-25"/>
			<point x="482" y="-4"/>
			<point x="509" y="17" type="curve"/>
			<point x="519" y="26"/>
			<point x="531" y="34"/>
			<point x="545" y="43" type="curve"/>
			<point x="555" y="49" type="line"/>
			<point x="584" y="68"/>
			<point x="608" y="85"/>
			<point x="625" y="103" type="curve" smooth="yes"/>
			<point x="642" y="121"/>
			<point x="653" y="140"/>
			<point x="657" y="162" type="curve"/>
			<point x="659" y="169"/>
			<point x="659" y="174"/>
			<point x="659" y="180" type="curve" smooth="yes"/>
			<point x="659" y="200"/>
			<point x="651" y="214"/>
			<point x="639" y="224" type="curve" smooth="yes"/>
			<point x="623" y="238"/>
			<point x="599" y="244"/>
			<point x="575" y="245" type="curve"/>
			<point x="572" y="245"/>
			<point x="569" y="245"/>
			<point x="566" y="245" type="curve" smooth="yes"/>
			<point x="487" y="245"/>
			<point x="449" y="194"/>
		</contour>
		<contour>
			<point x="607" y="541" type="line"/>
			<point x="78" y="-34" type="line"/>
			<point x="120" y="-42" type="line"/>
			<point x="648" y="533" type="line"/>
		</contour>
		<contour>
			<point x="247" y="572" type="curve" smooth="yes"/>
			<point x="259" y="572"/>
			<point x="259" y="562"/>
			<point x="253" y="530" type="curve" smooth="yes"/>
			<point x="226" y="388" type="line"/>
			<point x="224" y="378" type="line" smooth="yes"/>
			<point x="219" y="356"/>
			<point x="202" y="341"/>
			<point x="186" y="341" type="curve" smooth="yes"/>
			<point x="174" y="341"/>
			<point x="162" y="341"/>
			<point x="150" y="341" type="curve" smooth="yes"/>
			<point x="146" y="341"/>
			<point x="143" y="338"/>
			<point x="142" y="336" type="curve"/>
			<point x="141" y="329"/>
			<point x="139" y="322"/>
			<point x="138" y="315" type="curve"/>
			<point x="138" y="315"/>
			<point x="198" y="316"/>
			<point x="236" y="316" type="curve" smooth="yes"/>
			<point x="266" y="316"/>
			<point x="309" y="315"/>
			<point x="320" y="315" type="curve" smooth="yes"/>
			<point x="322" y="315" type="line"/>
			<point x="323" y="322"/>
			<point x="325" y="329"/>
			<point x="326" y="336" type="curve"/>
			<point x="327" y="338"/>
			<point x="326" y="339"/>
			<point x="325" y="340" type="curve" smooth="yes"/>
			<point x="324" y="341"/>
			<point x="323" y="341"/>
			<point x="321" y="341" type="curve" smooth="yes"/>
			<point x="312" y="341"/>
			<point x="302" y="341"/>
			<point x="293" y="341" type="curve" smooth="yes"/>
			<point x="279" y="341"/>
			<point x="270" y="356"/>
			<point x="275" y="378" type="curve"/>
			<point x="276" y="381"/>
			<point x="276" y="385"/>
			<point x="277" y="388" type="curve"/>
			<point x="326" y="639" type="line"/>
			<point x="321" y="639"/>
			<point x="315" y="639"/>
			<point x="310" y="639" type="curve"/>
			<point x="306" y="637"/>
			<point x="303" y="635"/>
			<point x="299" y="633" type="curve"/>
			<point x="257" y="610"/>
			<point x="229" y="599"/>
			<point x="183" y="583" type="curve"/>
			<point x="184" y="574"/>
			<point x="186" y="565"/>
			<point x="187" y="556" type="curve"/>
			<point x="203" y="563"/>
			<point x="234" y="572"/>
		</contour>
	</outline>
</glyph>
<glyph name="threequarters" format="2">
	<unicode hex="00BE"/>
	<advance width="660"/>
	<outline>
		<contour>
			<point x="546" y="-4" type="curve" smooth="yes"/>
			<point x="551" y="20" type="line"/>
			<point x="601" y="20" type="line"/>
			<point x="615" y="54" type="line"/>
			<point x="559" y="54" type="line"/>
			<point x="599" y="234" type="line" smooth="yes"/>
			<point x="601" y="243"/>
			<point x="588" y="244"/>
			<point x="582" y="244" type="curve" smooth="yes"/>
			<point x="579" y="244"/>
			<point x="569" y="243"/>
			<point x="568" y="243" type="curve"/>
			<point x="568" y="243" type="line"/>
			<point x="544" y="237"/>
			<point x="535" y="223"/>
			<point x="526" y="212" type="curve" smooth="yes"/>
			<point x="485" y="162"/>
			<point x="436" y="109"/>
			<point x="372" y="54" type="curve"/>
			<point x="368" y="51"/>
			<point x="363" y="43"/>
			<point x="363" y="32" type="curve" smooth="yes"/>
			<point x="363" y="26"/>
			<point x="367" y="20"/>
			<point x="381" y="20" type="curve" smooth="yes"/>
			<point x="499" y="20" type="line"/>
			<point x="494" y="-4" type="line" smooth="yes"/>
			<point x="485" y="-45"/>
			<point x="471" y="-48"/>
			<point x="431" y="-50" type="curve"/>
			<point x="424" y="-58"/>
			<point x="421" y="-73"/>
			<point x="424" y="-79" type="curve"/>
			<point x="450" y="-78"/>
			<point x="464" y="-78"/>
			<point x="489" y="-78" type="curve" smooth="yes"/>
			<point x="503" y="-78" type="line" smooth="yes"/>
			<point x="533" y="-78"/>
			<point x="550" y="-78"/>
			<point x="580" y="-79" type="curve"/>
			<point x="586" y="-72"/>
			<point x="589" y="-58"/>
			<point x="587" y="-50" type="curve"/>
			<point x="549" y="-48"/>
			<point x="538" y="-39"/>
		</contour>
		<contour>
			<point x="211" y="332" type="curve" smooth="yes"/>
			<point x="189" y="332"/>
			<point x="178" y="336"/>
			<point x="171" y="342" type="curve"/>
			<point x="169" y="344"/>
			<point x="167" y="347"/>
			<point x="165" y="350" type="curve"/>
			<point x="160" y="357"/>
			<point x="155" y="364"/>
			<point x="142" y="364" type="curve" smooth="yes"/>
			<point x="132" y="364"/>
			<point x="113" y="355"/>
			<point x="113" y="342" type="curve" smooth="yes"/>
			<point x="113" y="322"/>
			<point x="160" y="307"/>
			<point x="196" y="307" type="curve" smooth="yes"/>
			<point x="236" y="307"/>
			<point x="274" y="319"/>
			<point x="305" y="339" type="curve" smooth="yes"/>
			<point x="335" y="359"/>
			<point x="358" y="388"/>
			<point x="364" y="422" type="curve" smooth="yes"/>
			<point x="365" y="428"/>
			<point x="366" y="435"/>
			<point x="366" y="440" type="curve" smooth="yes"/>
			<point x="366" y="479"/>
			<point x="340" y="500"/>
			<point x="314" y="508" type="curve"/>
			<point x="309" y="509"/>
			<point name=".hr01" x="305" y="510"/>
			<point name=".hr02" x="301" y="510" type="curve"/>
			<point x="306" y="512"/>
			<point x="311" y="515"/>
			<point x="315" y="518" type="curve"/>
			<point x="341" y="533"/>
			<point x="360" y="553"/>
			<point x="365" y="578" type="curve"/>
			<point x="366" y="580"/>
			<point x="366" y="582"/>
			<point x="366" y="584" type="curve"/>
			<point x="366" y="585"/>
			<point x="366" y="587"/>
			<point x="366" y="589" type="curve" smooth="yes"/>
			<point x="366" y="619"/>
			<point x="339" y="637"/>
			<point x="292" y="637" type="curve" smooth="yes"/>
			<point x="205" y="637"/>
			<point x="165" y="584"/>
			<point x="162" y="567" type="curve"/>
			<point x="162" y="566"/>
			<point x="162" y="565"/>
			<point x="162" y="563" type="curve"/>
			<point x="164" y="557"/>
			<point x="168" y="549"/>
			<point x="182" y="549" type="curve"/>
			<point x="182" y="549"/>
			<point x="182" y="549"/>
			<point x="182" y="549" type="curve"/>
			<point x="204" y="549"/>
			<point x="210" y="566"/>
			<point x="213" y="578" type="curve"/>
			<point x="214" y="581"/>
			<point x="215" y="583"/>
			<point x="216" y="585" type="curve" smooth="yes"/>
			<point x="225" y="603"/>
			<point x="250" y="611"/>
			<point x="269" y="613" type="curve"/>
			<point x="271" y="613"/>
			<point x="273" y="613"/>
			<point x="275" y="613" type="curve" smooth="yes"/>
			<point x="292" y="613"/>
			<point x="309" y="606"/>
			<point name=".hr03" x="309" y="584" type="curve" smooth="yes"/>
			<point x="309" y="580"/>
			<point x="308" y="577"/>
			<point x="308" y="573" type="curve"/>
			<point x="300" y="532"/>
			<point x="265" y="506"/>
			<point x="220" y="500" type="curve"/>
			<point x="217" y="476" type="line"/>
			<point x="225" y="477"/>
			<point x="231" y="478"/>
			<point x="238" y="478" type="curve" smooth="yes"/>
			<point x="260" y="478"/>
			<point x="305" y="472"/>
			<point name=".hr04" x="305" y="429" type="curve" smooth="yes"/>
			<point x="305" y="425"/>
			<point x="305" y="420"/>
			<point x="304" y="414" type="curve"/>
			<point x="290" y="345"/>
			<point x="230" y="332"/>
		</contour>
		<contour>
			<point x="627" y="541" type="line"/>
			<point x="98" y="-34" type="line"/>
			<point x="140" y="-42" type="line"/>
			<point x="668" y="533" type="line"/>
		</contour>
		<contour>
			<point x="539" y="197" type="curve"/>
			<point x="528" y="149"/>
			<point x="518" y="102"/>
			<point x="507" y="54" type="curve"/>
			<point x="402" y="54" type="line"/>
			<point x="458" y="103"/>
			<point x="501" y="150"/>
		</contour>
	</outline>
</glyph>
<glyph name="questiondown" format="2">
	<unicode hex="00BF"/>
	<advance width="405"/>
	<outline>
		<contour>
			<point x="285" y="-136" type="curve"/>
			<point x="280" y="-166"/>
			<point x="235" y="-193"/>
			<point x="178" y="-193" type="curve" smooth="yes"/>
			<point x="128" y="-193"/>
			<point x="97" y="-148"/>
			<point x="97" y="-94" type="curve" smooth="yes"/>
			<point x="97" y="-85"/>
			<point x="98" y="-77"/>
			<point x="99" y="-68" type="curve"/>
			<point x="107" y="-21"/>
			<point x="134" y="11"/>
			<point x="180" y="48" type="curve" smooth="yes"/>
			<point x="185" y="52"/>
			<point x="190" y="56"/>
			<point x="194" y="60" type="curve"/>
			<point x="257" y="115"/>
			<point x="267" y="169"/>
			<point x="274" y="209" type="curve"/>
			<point x="275" y="217"/>
			<point x="277" y="224"/>
			<point x="278" y="232" type="curve"/>
			<point x="282" y="255" type="line"/>
			<point x="284" y="262"/>
			<point x="280" y="265"/>
			<point x="273" y="265" type="curve" smooth="yes"/>
			<point x="265" y="265"/>
			<point x="260" y="262"/>
			<point x="259" y="255" type="curve"/>
			<point x="259" y="255"/>
			<point x="259" y="255"/>
			<point x="259" y="255" type="curve"/>
			<point x="258" y="248"/>
			<point x="256" y="240"/>
			<point x="255" y="233" type="curve"/>
			<point x="251" y="211" type="line" smooth="yes"/>
			<point x="247" y="187"/>
			<point x="237" y="163"/>
			<point x="219" y="138" type="curve" smooth="yes"/>
			<point x="207" y="121"/>
			<point x="184" y="105"/>
			<point x="158" y="88" type="curve" smooth="yes"/>
			<point x="105" y="52"/>
			<point x="38" y="7"/>
			<point x="24" y="-72" type="curve"/>
			<point x="23" y="-83"/>
			<point x="21" y="-93"/>
			<point x="21" y="-103" type="curve" smooth="yes"/>
			<point x="21" y="-176"/>
			<point x="73" y="-223"/>
			<point x="163" y="-223" type="curve" smooth="yes"/>
			<point x="216" y="-223"/>
			<point x="260" y="-209"/>
			<point x="294" y="-184" type="curve" smooth="yes"/>
			<point x="328" y="-160"/>
			<point x="353" y="-132"/>
			<point x="360" y="-94" type="curve"/>
			<point x="360" y="-90"/>
			<point x="361" y="-86"/>
			<point x="361" y="-83" type="curve" smooth="yes"/>
			<point x="361" y="-57"/>
			<point x="341" y="-51"/>
			<point x="327" y="-51" type="curve" smooth="yes"/>
			<point x="308" y="-51"/>
			<point x="285" y="-63"/>
			<point x="281" y="-86" type="curve" smooth="yes"/>
			<point x="279" y="-99"/>
			<point x="280" y="-104"/>
			<point x="283" y="-110" type="curve" smooth="yes"/>
			<point x="284" y="-112"/>
			<point x="285" y="-113"/>
			<point x="286" y="-116" type="curve"/>
			<point x="287" y="-120"/>
			<point x="287" y="-126"/>
		</contour>
		<contour>
			<point x="349" y="397" type="curve"/>
			<point x="349" y="400"/>
			<point x="350" y="403"/>
			<point name=".hr01" x="350" y="407" type="curve" smooth="yes"/>
			<point x="350" y="431"/>
			<point x="331" y="450"/>
			<point x="305" y="450" type="curve" smooth="yes"/>
			<point x="276" y="450"/>
			<point x="248" y="426"/>
			<point x="242" y="397" type="curve"/>
			<point x="242" y="394"/>
			<point x="241" y="391"/>
			<point x="241" y="388" type="curve" smooth="yes"/>
			<point x="241" y="363"/>
			<point x="260" y="344"/>
			<point x="286" y="344" type="curve" smooth="yes"/>
			<point x="315" y="344"/>
			<point x="344" y="368"/>
		</contour>
	</outline>
</glyph>
<glyph name="AE" format="2">
	<unicode hex="00C6"/>
	<advance width="829"/>
	<outline>
		<contour>
			<point x="115" y="85" type="line" smooth="yes"/>
			<point x="84" y="40"/>
			<point x="76" y="32"/>
			<point x="39" y="29" type="curve"/>
			<point x="32" y="28"/>
			<point x="24" y="28"/>
			<point x="17" y="27" type="curve"/>
			<point x="14" y="27"/>
			<point x="12" y="26"/>
			<point x="10" y="25" type="curve"/>
			<point x="8" y="23"/>
			<point x="7" y="22"/>
			<point x="6" y="19" type="curve"/>
			<point x="5" y="13"/>
			<point x="3" y="6"/>
			<point x="2" y="0" type="curve"/>
			<point x="3" y="-2" type="line"/>
			<point x="3" y="-2"/>
			<point x="57" y="0"/>
			<point x="90" y="0" type="curve" smooth="yes"/>
			<point x="128" y="0"/>
			<point x="193" y="-2"/>
			<point x="193" y="-2" type="curve"/>
			<point x="193" y="-1"/>
			<point x="194" y="-1"/>
			<point x="194" y="0" type="curve"/>
			<point x="195" y="7"/>
			<point x="197" y="14"/>
			<point x="198" y="21" type="curve"/>
			<point x="198" y="22"/>
			<point x="198" y="24"/>
			<point x="197" y="25" type="curve" smooth="yes"/>
			<point x="196" y="26"/>
			<point x="195" y="27"/>
			<point x="193" y="27" type="curve"/>
			<point x="184" y="28"/>
			<point x="175" y="28"/>
			<point x="166" y="29" type="curve"/>
			<point x="132" y="31"/>
			<point x="130" y="32"/>
			<point x="155" y="68" type="curve" smooth="yes"/>
			<point x="293" y="266" type="line"/>
			<point x="464" y="266" type="line"/>
			<point x="436" y="122" type="line"/>
			<point x="432" y="106"/>
			<point x="429" y="90"/>
			<point x="426" y="74" type="curve" smooth="yes"/>
			<point x="421" y="46"/>
			<point x="405" y="32"/>
			<point x="365" y="29" type="curve"/>
			<point x="356" y="28"/>
			<point x="348" y="28"/>
			<point x="339" y="27" type="curve"/>
			<point x="337" y="27"/>
			<point x="335" y="26"/>
			<point x="333" y="24" type="curve" smooth="yes"/>
			<point x="332" y="23"/>
			<point x="331" y="21"/>
			<point x="330" y="18" type="curve"/>
			<point x="329" y="12"/>
			<point x="327" y="6"/>
			<point x="326" y="0" type="curve"/>
			<point x="328" y="-2" type="line"/>
			<point x="328" y="-2"/>
			<point x="397" y="0"/>
			<point x="437" y="0" type="curve" smooth="yes"/>
			<point x="443" y="0"/>
			<point x="448" y="0"/>
			<point x="452" y="0" type="curve" smooth="yes"/>
			<point x="647" y="0" type="line" smooth="yes"/>
			<point x="690" y="0"/>
			<point x="734" y="0"/>
			<point x="777" y="0" type="curve"/>
			<point x="791" y="56"/>
			<point x="813" y="115"/>
			<point x="834" y="167" type="curve"/>
			<point x="825" y="169"/>
			<point x="815" y="170"/>
			<point x="806" y="172" type="curve"/>
			<point x="773" y="100"/>
			<point name=".hr01" x="732" y="39"/>
			<point x="659" y="39" type="curve" smooth="yes"/>
			<point x="654" y="39"/>
			<point x="649" y="39"/>
			<point x="643" y="39" type="curve" smooth="yes"/>
			<point x="550" y="39" type="line"/>
			<point x="534" y="39" type="line" smooth="yes"/>
			<point x="513" y="39"/>
			<point x="501" y="47"/>
			<point x="506" y="74" type="curve" smooth="yes"/>
			<point x="555" y="329" type="line"/>
			<point x="637" y="329" type="line" smooth="yes"/>
			<point x="642" y="329"/>
			<point x="648" y="329"/>
			<point x="653" y="329" type="curve" smooth="yes"/>
			<point x="686" y="329"/>
			<point x="693" y="313"/>
			<point x="694" y="285" type="curve"/>
			<point x="694" y="275"/>
			<point x="693" y="264"/>
			<point x="693" y="254" type="curve" smooth="yes"/>
			<point x="693" y="252"/>
			<point x="693" y="250"/>
			<point x="694" y="249" type="curve" smooth="yes"/>
			<point x="695" y="248"/>
			<point x="697" y="247"/>
			<point x="700" y="247" type="curve" smooth="yes"/>
			<point x="707" y="247"/>
			<point x="715" y="247"/>
			<point x="722" y="247" type="curve"/>
			<point x="723" y="248"/>
			<point x="723" y="249"/>
			<point x="724" y="250" type="curve"/>
			<point x="726" y="267"/>
			<point x="729" y="312"/>
			<point x="735" y="346" type="curve"/>
			<point x="742" y="379"/>
			<point x="754" y="416"/>
			<point x="762" y="441" type="curve"/>
			<point x="762" y="443"/>
			<point x="761" y="445"/>
			<point x="759" y="445" type="curve" smooth="yes"/>
			<point x="752" y="445"/>
			<point x="745" y="445"/>
			<point x="738" y="445" type="curve" smooth="yes"/>
			<point x="734" y="445"/>
			<point x="731" y="441"/>
			<point x="729" y="437" type="curve"/>
			<point x="725" y="427"/>
			<point x="721" y="417"/>
			<point x="717" y="407" type="curve" smooth="yes"/>
			<point x="705" y="379"/>
			<point x="694" y="363"/>
			<point x="660" y="363" type="curve" smooth="yes"/>
			<point x="655" y="363"/>
			<point x="649" y="363"/>
			<point x="644" y="363" type="curve" smooth="yes"/>
			<point x="562" y="363" type="line"/>
			<point x="601" y="561" type="line" smooth="yes"/>
			<point x="605" y="584"/>
			<point x="621" y="605"/>
			<point x="644" y="605" type="curve" smooth="yes"/>
			<point x="724" y="605" type="line" smooth="yes"/>
			<point x="729" y="605"/>
			<point x="735" y="605"/>
			<point x="740" y="605" type="curve" smooth="yes"/>
			<point x="813" y="605"/>
			<point x="819" y="555"/>
			<point x="827" y="486" type="curve"/>
			<point x="837" y="488"/>
			<point x="846" y="489"/>
			<point x="856" y="491" type="curve"/>
			<point x="857" y="520"/>
			<point x="858" y="557"/>
			<point x="861" y="596" type="curve" smooth="yes"/>
			<point x="862" y="612"/>
			<point x="864" y="629"/>
			<point x="865" y="645" type="curve"/>
			<point x="859" y="645"/>
			<point x="854" y="645"/>
			<point x="848" y="645" type="curve" smooth="yes"/>
			<point x="837" y="645"/>
			<point x="826" y="645"/>
			<point x="814" y="645" type="curve" smooth="yes"/>
			<point x="578" y="645" type="line"/>
			<point x="561" y="645" type="line"/>
			<point x="410" y="646" type="line"/>
			<point x="408" y="645" type="line"/>
			<point x="404" y="625" type="line"/>
			<point x="403" y="621"/>
			<point name=".hr02" x="404" y="618"/>
			<point x="410" y="618" type="curve"/>
			<point x="420" y="617"/>
			<point x="429" y="617"/>
			<point x="439" y="616" type="curve"/>
			<point x="458" y="615"/>
			<point x="475" y="601"/>
			<point x="459" y="577" type="curve"/>
			<point x="456" y="572"/>
			<point x="453" y="568"/>
			<point x="449" y="563" type="curve"/>
		</contour>
		<contour>
			<point x="319" y="305" type="line"/>
			<point x="498" y="561" type="line"/>
			<point x="506" y="574"/>
			<point x="515" y="586"/>
			<point x="523" y="598" type="curve"/>
			<point x="525" y="597"/>
			<point x="526" y="594"/>
			<point x="526" y="590" type="curve" smooth="yes"/>
			<point x="526" y="586"/>
			<point x="525" y="581"/>
			<point x="524" y="575" type="curve"/>
			<point x="471" y="305" type="line"/>
		</contour>
	</outline>
</glyph>
<glyph name="Ccedilla" format="2">
	<unicode hex="00C7"/>
	<advance width="616"/>
	<outline>
		<contour>
			<point x="286" y="-102" type="line"/>
			<point x="303" y="-97"/>
			<point x="314" y="-96"/>
			<point x="333" y="-96" type="curve" smooth="yes"/>
			<point x="351" y="-96"/>
			<point x="360" y="-105"/>
			<point x="360" y="-120" type="curve" smooth="yes"/>
			<point x="360" y="-126"/>
			<point x="359" y="-132"/>
			<point x="357" y="-137" type="curve"/>
			<point x="350" y="-158"/>
			<point x="328" y="-171"/>
			<point x="299" y="-171" type="curve" smooth="yes"/>
			<point x="279" y="-171"/>
			<point x="269" y="-167"/>
			<point x="244" y="-157" type="curve"/>
			<point x="236" y="-164"/>
			<point x="231" y="-171"/>
			<point x="229" y="-183" type="curve"/>
			<point x="252" y="-194"/>
			<point x="267" y="-200"/>
			<point x="299" y="-200" type="curve" smooth="yes"/>
			<point x="360" y="-200"/>
			<point x="423" y="-167"/>
			<point x="423" y="-113" type="curve" smooth="yes"/>
			<point x="423" y="-83"/>
			<point x="398" y="-64"/>
			<point x="363" y="-64" type="curve" smooth="yes"/>
			<point x="354" y="-64"/>
			<point x="345" y="-65"/>
			<point x="336" y="-67" type="curve"/>
			<point x="370" y="-8" type="line"/>
			<point x="376" y="-7"/>
			<point x="382" y="-7"/>
			<point x="388" y="-6" type="curve" smooth="yes"/>
			<point x="465" y="8"/>
			<point x="541" y="52"/>
			<point x="608" y="125" type="curve"/>
			<point x="605" y="134"/>
			<point x="600" y="140"/>
			<point x="589" y="140" type="curve"/>
			<point x="512" y="68"/>
			<point x="444" y="36"/>
			<point x="364" y="31" type="curve"/>
			<point x="358" y="31"/>
			<point x="351" y="31"/>
			<point x="345" y="31" type="curve" smooth="yes"/>
			<point x="225" y="31"/>
			<point x="175" y="133"/>
			<point x="175" y="250" type="curve" smooth="yes"/>
			<point x="175" y="277"/>
			<point x="178" y="306"/>
			<point x="183" y="334" type="curve" smooth="yes"/>
			<point x="223" y="537"/>
			<point x="375" y="621"/>
			<point x="451" y="621" type="curve" smooth="yes"/>
			<point x="584" y="621"/>
			<point x="624" y="540"/>
			<point x="632" y="454" type="curve"/>
			<point x="642" y="455"/>
			<point x="651" y="457"/>
			<point x="661" y="458" type="curve"/>
			<point x="662" y="510"/>
			<point x="664" y="559"/>
			<point x="670" y="613" type="curve"/>
			<point x="616" y="616"/>
			<point x="587" y="658"/>
			<point x="469" y="658" type="curve" smooth="yes"/>
			<point x="310" y="658"/>
			<point x="134" y="512"/>
			<point x="96" y="315" type="curve" smooth="yes"/>
			<point x="91" y="290"/>
			<point x="89" y="266"/>
			<point x="89" y="241" type="curve" smooth="yes"/>
			<point x="89" y="171"/>
			<point x="109" y="105"/>
			<point x="154" y="59" type="curve" smooth="yes"/>
			<point x="194" y="17"/>
			<point x="254" y="-10"/>
			<point x="335" y="-10" type="curve"/>
			<point x="282" y="-96" type="line"/>
		</contour>
	</outline>
</glyph>
<glyph name="Eth" format="2">
	<unicode hex="00D0"/>
	<advance width="667"/>
	<outline>
		<component base="D"/>
		<contour>
			<point x="220" y="287" type="line"/>
			<point x="338" y="287" type="line"/>
			<point x="346" y="326" type="line"/>
			<point x="228" y="326" type="line"/>
		</contour>
		<contour>
			<point x="180" y="326" type="line"/>
			<point x="75" y="326" type="line"/>
			<point x="67" y="287" type="line"/>
			<point x="173" y="287" type="line"/>
		</contour>
	</outline>
</glyph>
<glyph name="Oslash" format="2">
	<unicode hex="00D8"/>
	<advance width="668"/>
	<outline>
		<contour>
			<point x="727" y="670" type="line"/>
			<point x="643" y="582" type="line"/>
			<point x="598" y="631"/>
			<point x="532" y="658"/>
			<point x="455" y="658" type="curve" smooth="yes"/>
			<point x="370" y="658"/>
			<point x="289" y="620"/>
			<point x="225" y="558" type="curve" smooth="yes"/>
			<point x="161" y="495"/>
			<point x="114" y="408"/>
			<point x="95" y="310" type="curve" smooth="yes"/>
			<point x="90" y="283"/>
			<point x="87" y="258"/>
			<point x="87" y="234" type="curve" smooth="yes"/>
			<point x="87" y="163"/>
			<point x="110" y="105"/>
			<point x="148" y="63" type="curve"/>
			<point x="70" y="-18" type="line"/>
			<point x="96" y="-43" type="line"/>
			<point x="174" y="39" type="line"/>
			<point x="216" y="7"/>
			<point x="269" y="-10"/>
			<point x="331" y="-10" type="curve" smooth="yes"/>
			<point x="341" y="-10"/>
			<point x="351" y="-10"/>
			<point x="361" y="-9" type="curve" smooth="yes"/>
			<point x="531" y="6"/>
			<point x="662" y="140"/>
			<point x="699" y="329" type="curve" smooth="yes"/>
			<point x="704" y="355"/>
			<point x="706" y="380"/>
			<point x="706" y="403" type="curve" smooth="yes"/>
			<point x="706" y="462"/>
			<point x="691" y="513"/>
			<point x="665" y="553" type="curve"/>
			<point name=".hr01" x="752" y="645" type="line"/>
		</contour>
		<contour>
			<point name=".hr02" x="436" y="624" type="curve" smooth="yes"/>
			<point x="507" y="624"/>
			<point x="564" y="593"/>
			<point x="594" y="530" type="curve"/>
			<point x="204" y="122" type="line"/>
			<point x="196" y="139"/>
			<point x="190" y="157"/>
			<point x="185" y="177" type="curve"/>
			<point x="181" y="198"/>
			<point x="178" y="220"/>
			<point x="178" y="244" type="curve" smooth="yes"/>
			<point x="178" y="270"/>
			<point x="181" y="297"/>
			<point x="187" y="327" type="curve" smooth="yes"/>
			<point x="204" y="415"/>
			<point x="235" y="481"/>
			<point x="271" y="528" type="curve" smooth="yes"/>
			<point x="323" y="594"/>
			<point x="385" y="624"/>
		</contour>
		<contour>
			<point x="607" y="493" type="line"/>
			<point x="614" y="469"/>
			<point x="617" y="441"/>
			<point x="617" y="410" type="curve" smooth="yes"/>
			<point x="617" y="380"/>
			<point x="614" y="347"/>
			<point x="607" y="310" type="curve" smooth="yes"/>
			<point x="572" y="131"/>
			<point x="467" y="24"/>
			<point x="357" y="24" type="curve" smooth="yes"/>
			<point x="304" y="24"/>
			<point x="257" y="47"/>
			<point x="224" y="91" type="curve"/>
		</contour>
	</outline>
</glyph>
<glyph name="ccedilla" format="2">
	<unicode hex="00E7"/>
	<advance width="389"/>
	<outline>
		<contour>
			<point x="165" y="-98" type="line"/>
			<point x="182" y="-93"/>
			<point x="193" y="-92"/>
			<point x="212" y="-92" type="curve" smooth="yes"/>
			<point x="230" y="-92"/>
			<point x="239" y="-101"/>
			<point x="239" y="-116" type="curve" smooth="yes"/>
			<point x="239" y="-121"/>
			<point x="238" y="-126"/>
			<point x="237" y="-131" type="curve"/>
			<point x="230" y="-153"/>
			<point x="208" y="-167"/>
			<point x="178" y="-167" type="curve" smooth="yes"/>
			<point x="158" y="-167"/>
			<point x="148" y="-163"/>
			<point x="123" y="-153" type="curve"/>
			<point x="115" y="-160"/>
			<point x="110" y="-167"/>
			<point x="108" y="-179" type="curve"/>
			<point x="131" y="-190"/>
			<point x="146" y="-196"/>
			<point x="178" y="-196" type="curve" smooth="yes"/>
			<point x="239" y="-196"/>
			<point x="302" y="-163"/>
			<point x="302" y="-109" type="curve" smooth="yes"/>
			<point x="302" y="-79"/>
			<point x="277" y="-60"/>
			<point x="242" y="-60" type="curve" smooth="yes"/>
			<point x="233" y="-60"/>
			<point x="224" y="-61"/>
			<point x="215" y="-63" type="curve"/>
			<point x="249" y="-5" type="line"/>
			<point x="305" y="10"/>
			<point x="355" y="54"/>
			<point x="394" y="109" type="curve"/>
			<point x="391" y="119"/>
			<point x="381" y="126"/>
			<point x="372" y="126" type="curve"/>
			<point x="340" y="90"/>
			<point x="308" y="61"/>
			<point x="268" y="52" type="curve" smooth="yes"/>
			<point x="259" y="50"/>
			<point x="250" y="49"/>
			<point x="240" y="49" type="curve" smooth="yes"/>
			<point x="223" y="49"/>
			<point x="204" y="53"/>
			<point x="190" y="72" type="curve"/>
			<point x="175" y="91"/>
			<point x="165" y="111"/>
			<point x="165" y="171" type="curve" smooth="yes"/>
			<point x="165" y="199"/>
			<point x="168" y="226"/>
			<point x="172" y="249" type="curve" smooth="yes"/>
			<point x="191" y="344"/>
			<point x="243" y="401"/>
			<point x="301" y="407" type="curve"/>
			<point x="305" y="408"/>
			<point x="308" y="408"/>
			<point x="312" y="408" type="curve" smooth="yes"/>
			<point x="326" y="408"/>
			<point x="354" y="403"/>
			<point x="354" y="370" type="curve" smooth="yes"/>
			<point x="354" y="364"/>
			<point x="352" y="356"/>
			<point x="349" y="351" type="curve"/>
			<point x="346" y="347"/>
			<point x="344" y="336"/>
			<point x="344" y="330" type="curve" smooth="yes"/>
			<point x="344" y="314"/>
			<point x="354" y="298"/>
			<point x="371" y="298" type="curve" smooth="yes"/>
			<point x="398" y="298"/>
			<point x="423" y="318"/>
			<point x="423" y="343" type="curve" smooth="yes"/>
			<point x="423" y="382"/>
			<point x="420" y="439"/>
			<point x="311" y="439" type="curve" smooth="yes"/>
			<point x="271" y="439"/>
			<point x="207" y="413"/>
			<point x="165" y="369" type="curve"/>
			<point x="128" y="328"/>
			<point x="99" y="274"/>
			<point x="88" y="210" type="curve" smooth="yes"/>
			<point x="85" y="191"/>
			<point x="83" y="170"/>
			<point x="83" y="149" type="curve" smooth="yes"/>
			<point x="83" y="116"/>
			<point x="90" y="71"/>
			<point x="113" y="38" type="curve" smooth="yes"/>
			<point x="134" y="9"/>
			<point x="168" y="-10"/>
			<point x="209" y="-10" type="curve"/>
			<point x="209" y="-10"/>
			<point x="210" y="-10"/>
			<point x="210" y="-10" type="curve"/>
			<point x="211" y="-10" type="line"/>
			<point x="161" y="-92" type="line"/>
		</contour>
	</outline>
</glyph>
<glyph name="eth" format="2">
	<unicode hex="00F0"/>
	<advance width="478"/>
	<outline>
		<contour>
			<point x="82" y="208" type="curve"/>
			<point x="78" y="188"/>
			<point x="75" y="168"/>
			<point x="75" y="149" type="curve" smooth="yes"/>
			<point x="75" y="64"/>
			<point x="119" y="-12"/>
			<point x="220" y="-12" type="curve" smooth="yes"/>
			<point x="225" y="-12"/>
			<point x="231" y="-12"/>
			<point x="236" y="-11" type="curve"/>
			<point x="296" y="-7"/>
			<point x="357" y="19"/>
			<point x="405" y="68" type="curve" smooth="yes"/>
			<point x="445" y="108"/>
			<point x="477" y="165"/>
			<point x="494" y="237" type="curve"/>
			<point x="496" y="243"/>
			<point x="497" y="249"/>
			<point x="498" y="255" type="curve" smooth="yes"/>
			<point x="504" y="286"/>
			<point x="507" y="316"/>
			<point x="507" y="343" type="curve" smooth="yes"/>
			<point x="507" y="385"/>
			<point x="501" y="425"/>
			<point x="490" y="461" type="curve" smooth="yes"/>
			<point x="475" y="509"/>
			<point x="452" y="552"/>
			<point x="424" y="589" type="curve"/>
			<point x="419" y="595"/>
			<point x="415" y="600"/>
			<point x="410" y="606" type="curve"/>
			<point x="522" y="672" type="line"/>
			<point x="508" y="704" type="line"/>
			<point x="467" y="680"/>
			<point x="426" y="657"/>
			<point x="385" y="633" type="curve"/>
			<point x="357" y="661"/>
			<point x="326" y="684"/>
			<point x="295" y="703" type="curve"/>
			<point x="275" y="682" type="line"/>
			<point x="294" y="665"/>
			<point x="312" y="646"/>
			<point x="329" y="624" type="curve"/>
			<point x="333" y="618"/>
			<point x="337" y="613"/>
			<point x="341" y="607" type="curve"/>
			<point x="220" y="537" type="line"/>
			<point x="234" y="505" type="line"/>
			<point x="276" y="529"/>
			<point x="318" y="554"/>
			<point x="360" y="578" type="curve"/>
			<point x="387" y="532"/>
			<point x="406" y="481"/>
			<point x="416" y="428" type="curve"/>
			<point x="394" y="438"/>
			<point x="368" y="442"/>
			<point x="342" y="442" type="curve" smooth="yes"/>
			<point x="299" y="442"/>
			<point x="240" y="425"/>
			<point x="188" y="384" type="curve" smooth="yes"/>
			<point x="142" y="347"/>
			<point x="101" y="290"/>
		</contour>
		<contour>
			<point x="246" y="27" type="curve" smooth="yes"/>
			<point x="191" y="27"/>
			<point x="155" y="79"/>
			<point x="155" y="157" type="curve" smooth="yes"/>
			<point x="155" y="178"/>
			<point x="158" y="201"/>
			<point x="164" y="225" type="curve" smooth="yes"/>
			<point x="181" y="301"/>
			<point x="231" y="407"/>
			<point x="333" y="407" type="curve" smooth="yes"/>
			<point x="375" y="407"/>
			<point x="407" y="388"/>
			<point x="423" y="359" type="curve"/>
			<point x="423" y="354"/>
			<point x="424" y="349"/>
			<point x="424" y="343" type="curve" smooth="yes"/>
			<point x="424" y="304"/>
			<point x="419" y="263"/>
			<point x="410" y="223" type="curve" smooth="yes"/>
			<point x="373" y="61"/>
			<point x="293" y="27"/>
		</contour>
	</outline>
</glyph>
<glyph name="thorn" format="2">
	<unicode hex="00FE"/>
	<advance width="500"/>
	<outline>
		<contour>
			<point x="221" y="563" type="curve" smooth="yes"/>
			<point x="205" y="494"/>
			<point x="188" y="425"/>
			<point x="172" y="356" type="curve"/>
			<point x="130" y="323"/>
			<point x="89" y="285"/>
			<point x="66" y="246" type="curve"/>
			<point x="72" y="242"/>
			<point x="79" y="237"/>
			<point x="85" y="233" type="curve"/>
			<point x="105" y="261"/>
			<point x="131" y="287"/>
			<point x="162" y="312" type="curve"/>
			<point x="53" y="-161" type="line" smooth="yes"/>
			<point x="47" y="-189"/>
			<point x="32" y="-202"/>
			<point x="0" y="-207" type="curve" smooth="yes"/>
			<point x="-19" y="-210" type="line"/>
			<point x="-24" y="-211"/>
			<point x="-29" y="-212"/>
			<point x="-29" y="-218" type="curve" smooth="yes"/>
			<point x="-29" y="-237" type="line"/>
			<point x="-27" y="-239" type="line"/>
			<point x="-27" y="-239"/>
			<point x="41" y="-233"/>
			<point x="77" y="-233" type="curve" smooth="yes"/>
			<point x="87" y="-233"/>
			<point x="98" y="-233"/>
			<point x="110" y="-233" type="curve"/>
			<point x="146" y="-234"/>
			<point x="184" y="-235"/>
			<point x="184" y="-235" type="curve"/>
			<point x="186" y="-233" type="line"/>
			<point x="186" y="-213" type="line" smooth="yes"/>
			<point x="186" y="-208"/>
			<point x="184" y="-206"/>
			<point x="180" y="-205" type="curve"/>
			<point x="161" y="-202" type="line" smooth="yes"/>
			<point x="146" y="-200"/>
			<point x="120" y="-195"/>
			<point x="128" y="-161" type="curve" smooth="yes"/>
			<point x="172" y="23" type="line"/>
			<point x="177" y="18"/>
			<point x="206" y="-10"/>
			<point x="256" y="-10" type="curve"/>
			<point x="256" y="-10"/>
			<point x="256" y="-10"/>
			<point x="256" y="-10" type="curve"/>
			<point x="315" y="-10"/>
			<point x="367" y="15"/>
			<point x="409" y="53" type="curve" smooth="yes"/>
			<point x="481" y="117"/>
			<point x="524" y="218"/>
			<point x="524" y="289" type="curve" smooth="yes"/>
			<point x="524" y="378"/>
			<point x="471" y="439"/>
			<point x="390" y="439" type="curve" smooth="yes"/>
			<point x="343" y="439"/>
			<point x="303" y="428"/>
			<point x="261" y="404" type="curve"/>
			<point x="274" y="464"/>
			<point x="288" y="523"/>
			<point x="301" y="583" type="curve"/>
			<point x="301" y="583" type="line"/>
			<point x="312" y="632"/>
			<point x="321" y="666"/>
			<point x="324" y="681" type="curve" smooth="yes"/>
			<point x="325" y="686"/>
			<point x="326" y="688"/>
			<point x="326" y="688" type="curve"/>
			<point x="326" y="695"/>
			<point x="323" y="698"/>
			<point x="314" y="698" type="curve"/>
			<point x="311" y="697"/>
			<point x="308" y="696"/>
			<point x="305" y="695" type="curve"/>
			<point x="273" y="686"/>
			<point x="211" y="675"/>
			<point x="174" y="672" type="curve"/>
			<point x="173" y="664"/>
			<point x="172" y="656"/>
			<point x="171" y="648" type="curve"/>
			<point x="171" y="647"/>
			<point x="171" y="645"/>
			<point x="172" y="644" type="curve"/>
			<point x="173" y="644"/>
			<point x="174" y="643"/>
			<point x="176" y="643" type="curve"/>
			<point x="186" y="642"/>
			<point x="197" y="642"/>
			<point x="207" y="641" type="curve"/>
			<point x="220" y="641"/>
			<point x="228" y="635"/>
			<point x="228" y="613" type="curve" smooth="yes"/>
			<point x="228" y="602"/>
			<point x="226" y="585"/>
		</contour>
		<contour>
			<point x="442" y="273" type="curve" smooth="yes"/>
			<point x="442" y="195"/>
			<point x="395" y="25"/>
			<point x="258" y="25" type="curve" smooth="yes"/>
			<point x="225" y="25"/>
			<point x="199" y="39"/>
			<point x="182" y="67" type="curve"/>
			<point x="251" y="365" type="line"/>
			<point x="274" y="377"/>
			<point x="315" y="392"/>
			<point x="357" y="392" type="curve" smooth="yes"/>
			<point x="367" y="392"/>
			<point x="375" y="391"/>
			<point x="383" y="388" type="curve"/>
			<point x="430" y="372"/>
			<point x="442" y="315"/>
		</contour>
	</outline>
</glyph>
<glyph name="aogonek" format="2">
	<unicode hex="0105"/>
	<advance width="486"/>
	<outline>
		<contour>
			<point x="483" y="431" type="curve"/>
			<point x="458" y="431"/>
			<point x="433" y="431"/>
			<point x="413" y="436" type="curve"/>
			<point x="406" y="437"/>
			<point x="400" y="438"/>
			<point x="394" y="438" type="curve"/>
			<point x="388" y="439"/>
			<point x="383" y="440"/>
			<point x="376" y="440" type="curve"/>
			<point x="364" y="441"/>
			<point name=".hr01" x="350" y="442"/>
			<point x="330" y="442" type="curve" smooth="yes"/>
			<point x="268" y="442"/>
			<point x="194" y="389"/>
			<point x="143" y="314" type="curve"/>
			<point x="104" y="259"/>
			<point x="78" y="192"/>
			<point x="78" y="125" type="curve" smooth="yes"/>
			<point x="78" y="69"/>
			<point x="91" y="-12"/>
			<point x="175" y="-12" type="curve" smooth="yes"/>
			<point x="228" y="-12"/>
			<point x="287" y="55"/>
			<point x="347" y="144" type="curve"/>
			<point x="349" y="142" type="line"/>
			<point x="344" y="124" type="line"/>
			<point x="340" y="112"/>
			<point x="337" y="100"/>
			<point x="333" y="88" type="curve"/>
			<point x="331" y="81"/>
			<point x="329" y="75"/>
			<point x="328" y="69" type="curve"/>
			<point x="326" y="60"/>
			<point x="326" y="51"/>
			<point name=".hr02" x="325" y="42" type="curve"/>
			<point x="325" y="39"/>
			<point x="325" y="36"/>
			<point x="325" y="33" type="curve" smooth="yes"/>
			<point x="325" y="21"/>
			<point x="328" y="6"/>
			<point x="339" y="-3" type="curve"/>
			<point x="342" y="-6"/>
			<point x="345" y="-8"/>
			<point x="349" y="-9" type="curve"/>
			<point x="311" y="-43"/>
			<point x="274" y="-85"/>
			<point x="270" y="-129" type="curve"/>
			<point name=".hr03" x="269" y="-132"/>
			<point x="269" y="-135"/>
			<point x="269" y="-138" type="curve" smooth="yes"/>
			<point x="269" y="-182"/>
			<point x="304" y="-206"/>
			<point x="352" y="-206" type="curve" smooth="yes"/>
			<point x="393" y="-206"/>
			<point x="433" y="-183"/>
			<point x="470" y="-138" type="curve"/>
			<point x="456" y="-131" type="line"/>
			<point x="430" y="-153"/>
			<point x="412" y="-167"/>
			<point x="382" y="-167" type="curve" smooth="yes"/>
			<point x="354" y="-167"/>
			<point x="336" y="-151"/>
			<point x="331" y="-132" type="curve"/>
			<point x="330" y="-129"/>
			<point x="330" y="-126"/>
			<point x="330" y="-123" type="curve" smooth="yes"/>
			<point x="330" y="-79"/>
			<point x="399" y="-15"/>
			<point x="426" y="9" type="curve"/>
			<point x="430" y="13"/>
			<point x="433" y="15"/>
			<point x="435" y="17" type="curve"/>
			<point x="458" y="37"/>
			<point x="472" y="55"/>
			<point x="496" y="87" type="curve"/>
			<point x="490" y="91"/>
			<point x="483" y="94"/>
			<point x="477" y="98" type="curve"/>
			<point x="458" y="75"/>
			<point x="443" y="58"/>
			<point x="431" y="50" type="curve" smooth="yes"/>
			<point x="428" y="48"/>
			<point x="426" y="47"/>
			<point x="423" y="45" type="curve"/>
			<point x="421" y="44"/>
			<point x="418" y="43"/>
			<point x="416" y="43" type="curve" smooth="yes"/>
			<point x="414" y="43"/>
			<point name=".hr04" x="403" y="45"/>
			<point x="403" y="57" type="curve" smooth="yes"/>
			<point x="403" y="59"/>
			<point x="403" y="61"/>
			<point x="404" y="63" type="curve"/>
			<point x="405" y="77"/>
			<point x="411" y="102"/>
			<point x="415" y="118" type="curve"/>
			<point x="416" y="121"/>
			<point x="417" y="125"/>
			<point x="417" y="128" type="curve"/>
			<point x="458" y="316" type="line" smooth="yes"/>
			<point x="465" y="348"/>
			<point x="472" y="379"/>
			<point x="478" y="410" type="curve"/>
			<point x="480" y="417"/>
			<point x="481" y="424"/>
		</contour>
		<contour>
			<point x="360" y="219" type="curve"/>
			<point x="315" y="135"/>
			<point x="245" y="55"/>
			<point x="210" y="44" type="curve" smooth="yes"/>
			<point x="207" y="43"/>
			<point x="204" y="43"/>
			<point x="202" y="43" type="curve" smooth="yes"/>
			<point x="178" y="43"/>
			<point x="166" y="64"/>
			<point x="161" y="97" type="curve" smooth="yes"/>
			<point x="159" y="110"/>
			<point x="158" y="125"/>
			<point x="158" y="141" type="curve" smooth="yes"/>
			<point x="158" y="199"/>
			<point x="183" y="275"/>
			<point x="221" y="332" type="curve" smooth="yes"/>
			<point x="252" y="378"/>
			<point x="292" y="411"/>
			<point x="333" y="411" type="curve" smooth="yes"/>
			<point x="338" y="411"/>
			<point x="344" y="411"/>
			<point x="349" y="410" type="curve" smooth="yes"/>
			<point x="366" y="407"/>
			<point x="384" y="401"/>
			<point x="398" y="392" type="curve"/>
			<point x="398" y="392"/>
			<point x="385" y="283"/>
		</contour>
	</outline>
</glyph>
<glyph name="dcroat" format="2">
	<unicode hex="0111"/>
	<advance width="489"/>
	<outline>
		<component base="d"/>
		<contour>
			<point x="585" y="572" type="line"/>
			<point x="311" y="572" type="line"/>
			<point x="302" y="533" type="line"/>
			<point x="576" y="533" type="line"/>
		</contour>
	</outline>
</glyph>
<glyph name="Eogonek" format="2">
	<unicode hex="0118"/>
	<advance width="526"/>
	<outline>
		<contour>
			<point x="514" y="-157" type="curve"/>
			<point x="499" y="-149" type="line"/>
			<point x="479" y="-170"/>
			<point x="459" y="-185"/>
			<point x="429" y="-185" type="curve" smooth="yes"/>
			<point x="419" y="-185"/>
			<point x="410" y="-183"/>
			<point x="402" y="-179" type="curve" smooth="yes"/>
			<point x="382" y="-169"/>
			<point x="371" y="-149"/>
			<point x="371" y="-126" type="curve" smooth="yes"/>
			<point x="371" y="-86"/>
			<point x="405" y="-31"/>
			<point x="458" y="-9" type="curve" smooth="yes"/>
			<point x="473" y="-3"/>
			<point x="489" y="0"/>
			<point x="506" y="0" type="curve"/>
			<point x="499" y="8"/>
			<point x="492" y="17"/>
			<point x="485" y="25" type="curve"/>
			<point x="481" y="24"/>
			<point x="477" y="24"/>
			<point x="473" y="23" type="curve"/>
			<point x="492" y="69"/>
			<point x="512" y="121"/>
			<point x="531" y="165" type="curve"/>
			<point x="521" y="167"/>
			<point x="512" y="168"/>
			<point x="502" y="170" type="curve"/>
			<point x="469" y="98"/>
			<point name=".hr01" x="420" y="39"/>
			<point x="347" y="39" type="curve" smooth="yes"/>
			<point x="342" y="39"/>
			<point x="337" y="39"/>
			<point x="333" y="39" type="curve" smooth="yes"/>
			<point x="246" y="39" type="line"/>
			<point x="217" y="39" type="line" smooth="yes"/>
			<point x="199" y="39"/>
			<point x="187" y="43"/>
			<point x="187" y="62" type="curve" smooth="yes"/>
			<point x="187" y="65"/>
			<point x="187" y="68"/>
			<point x="188" y="72" type="curve"/>
			<point x="237" y="323" type="line"/>
			<point x="332" y="323" type="line" smooth="yes"/>
			<point x="341" y="323"/>
			<point x="350" y="323"/>
			<point x="359" y="323" type="curve" smooth="yes"/>
			<point x="389" y="323"/>
			<point x="401" y="316"/>
			<point x="401" y="293" type="curve" smooth="yes"/>
			<point x="401" y="291"/>
			<point x="400" y="288"/>
			<point x="400" y="285" type="curve"/>
			<point x="398" y="260" type="line"/>
			<point x="398" y="259"/>
			<point x="398" y="257"/>
			<point x="398" y="255" type="curve"/>
			<point x="399" y="253"/>
			<point x="401" y="252"/>
			<point x="403" y="252" type="curve" smooth="yes"/>
			<point x="410" y="252"/>
			<point x="417" y="252"/>
			<point x="424" y="252" type="curve"/>
			<point x="425" y="253"/>
			<point x="426" y="253"/>
			<point x="427" y="254" type="curve"/>
			<point x="429" y="255" type="line"/>
			<point x="433" y="295"/>
			<point x="438" y="322"/>
			<point x="442" y="342" type="curve"/>
			<point x="445" y="362"/>
			<point x="452" y="392"/>
			<point x="463" y="432" type="curve"/>
			<point x="460" y="436" type="line"/>
			<point x="453" y="436"/>
			<point x="446" y="436"/>
			<point x="439" y="436" type="curve" smooth="yes"/>
			<point x="435" y="436"/>
			<point x="431" y="432"/>
			<point x="430" y="428" type="curve" smooth="yes"/>
			<point x="428" y="420"/>
			<point x="425" y="411"/>
			<point x="423" y="403" type="curve"/>
			<point x="414" y="375"/>
			<point x="400" y="361"/>
			<point x="367" y="361" type="curve" smooth="yes"/>
			<point x="358" y="361"/>
			<point x="349" y="361"/>
			<point x="340" y="361" type="curve" smooth="yes"/>
			<point x="245" y="361" type="line"/>
			<point x="285" y="571" type="line" smooth="yes"/>
			<point x="290" y="595"/>
			<point x="304" y="605"/>
			<point x="327" y="605" type="curve" smooth="yes"/>
			<point x="332" y="605"/>
			<point x="337" y="605"/>
			<point x="341" y="605" type="curve" smooth="yes"/>
			<point x="413" y="605" type="line" smooth="yes"/>
			<point x="417" y="605"/>
			<point x="422" y="605"/>
			<point x="427" y="605" type="curve" smooth="yes"/>
			<point x="499" y="605"/>
			<point x="509" y="565"/>
			<point x="517" y="496" type="curve"/>
			<point x="526" y="498"/>
			<point x="536" y="499"/>
			<point x="545" y="501" type="curve"/>
			<point x="549" y="542"/>
			<point x="553" y="638"/>
			<point x="553" y="646" type="curve" smooth="yes"/>
			<point x="553" y="648"/>
			<point x="552" y="649"/>
			<point x="549" y="649" type="curve"/>
			<point x="532" y="646"/>
			<point x="526" y="645"/>
			<point x="503" y="645" type="curve" smooth="yes"/>
			<point x="260" y="645" type="line" smooth="yes"/>
			<point x="223" y="645"/>
			<point x="184" y="646"/>
			<point x="139" y="647" type="curve"/>
			<point x="138" y="646"/>
			<point x="138" y="646"/>
			<point x="137" y="645" type="curve"/>
			<point x="136" y="638"/>
			<point x="134" y="632"/>
			<point x="133" y="625" type="curve"/>
			<point x="133" y="624"/>
			<point x="132" y="622"/>
			<point x="133" y="620" type="curve"/>
			<point x="134" y="619"/>
			<point name=".hr02" x="136" y="618"/>
			<point x="139" y="618" type="curve"/>
			<point x="148" y="617"/>
			<point x="158" y="617"/>
			<point x="167" y="616" type="curve"/>
			<point x="197" y="614"/>
			<point x="210" y="606"/>
			<point x="210" y="585" type="curve" smooth="yes"/>
			<point x="210" y="581"/>
			<point x="209" y="576"/>
			<point x="208" y="571" type="curve" smooth="yes"/>
			<point x="205" y="556"/>
			<point x="202" y="542"/>
			<point x="199" y="527" type="curve" smooth="yes"/>
			<point x="120" y="116" type="line" smooth="yes"/>
			<point x="117" y="101"/>
			<point x="114" y="87"/>
			<point x="111" y="72" type="curve" smooth="yes"/>
			<point x="105" y="44"/>
			<point x="91" y="32"/>
			<point x="53" y="29" type="curve" smooth="yes"/>
			<point x="43" y="28"/>
			<point x="34" y="28"/>
			<point x="24" y="27" type="curve"/>
			<point x="21" y="27"/>
			<point x="19" y="26"/>
			<point x="18" y="25" type="curve" smooth="yes"/>
			<point x="16" y="23"/>
			<point x="16" y="22"/>
			<point x="15" y="20" type="curve"/>
			<point x="14" y="13"/>
			<point x="12" y="7"/>
			<point x="11" y="0" type="curve"/>
			<point x="13" y="-2" type="line"/>
			<point x="58" y="-1"/>
			<point x="98" y="0"/>
			<point x="135" y="0" type="curve" smooth="yes"/>
			<point x="150" y="0" type="line"/>
			<point x="341" y="0" type="line" smooth="yes"/>
			<point x="361" y="0"/>
			<point x="387" y="0"/>
			<point x="410" y="-1" type="curve"/>
			<point x="350" y="-34"/>
			<point x="311" y="-92"/>
			<point x="311" y="-139" type="curve" smooth="yes"/>
			<point x="311" y="-161"/>
			<point x="317" y="-179"/>
			<point x="328" y="-192" type="curve" smooth="yes"/>
			<point x="337" y="-203"/>
			<point x="348" y="-210"/>
			<point x="361" y="-216" type="curve"/>
			<point x="373" y="-221"/>
			<point x="388" y="-224"/>
			<point x="404" y="-224" type="curve" smooth="yes"/>
			<point x="440" y="-224"/>
			<point x="490" y="-204"/>
		</contour>
	</outline>
</glyph>
<glyph name="eogonek" format="2">
	<unicode hex="0119"/>
	<advance width="401"/>
	<outline>
		<contour>
			<point x="339" y="-108" type="curve"/>
			<point x="337" y="-101"/>
			<point x="331" y="-97"/>
			<point x="322" y="-97" type="curve"/>
			<point x="296" y="-119"/>
			<point x="277" y="-135"/>
			<point x="248" y="-135" type="curve" smooth="yes"/>
			<point x="211" y="-135"/>
			<point x="202" y="-114"/>
			<point x="207" y="-88" type="curve" smooth="yes"/>
			<point x="214" y="-53"/>
			<point x="239" y="-26"/>
			<point x="283" y="7" type="curve"/>
			<point x="321" y="24"/>
			<point x="357" y="55"/>
			<point x="393" y="101" type="curve"/>
			<point x="388" y="112"/>
			<point x="382" y="117"/>
			<point x="370" y="117" type="curve"/>
			<point x="313" y="59"/>
			<point x="290" y="50"/>
			<point x="242" y="50" type="curve" smooth="yes"/>
			<point x="197" y="50"/>
			<point name=".hr01" x="166" y="74"/>
			<point x="166" y="165" type="curve" smooth="yes"/>
			<point x="166" y="170"/>
			<point x="166" y="191"/>
			<point x="167" y="199" type="curve"/>
			<point x="424" y="249"/>
			<point x="424" y="325"/>
			<point x="424" y="363" type="curve"/>
			<point x="424" y="364"/>
			<point x="424" y="364"/>
			<point x="424" y="365" type="curve"/>
			<point x="424" y="390"/>
			<point x="401" y="439"/>
			<point x="329" y="439" type="curve" smooth="yes"/>
			<point x="155" y="439"/>
			<point x="83" y="269"/>
			<point x="83" y="142" type="curve" smooth="yes"/>
			<point x="83" y="57"/>
			<point x="123" y="-10"/>
			<point x="206" y="-10" type="curve" smooth="yes"/>
			<point x="208" y="-10"/>
			<point x="210" y="-10"/>
			<point x="212" y="-10" type="curve"/>
			<point x="175" y="-39"/>
			<point x="149" y="-68"/>
			<point name=".hr02" x="143" y="-99" type="curve" smooth="yes"/>
			<point x="132" y="-153"/>
			<point name=".hr03" x="166" y="-173"/>
			<point x="216" y="-173" type="curve" smooth="yes"/>
			<point x="257" y="-173"/>
			<point x="301" y="-153"/>
		</contour>
		<contour>
			<point x="355" y="370" type="curve" smooth="yes"/>
			<point x="355" y="280"/>
			<point x="250" y="247"/>
			<point x="174" y="237" type="curve"/>
			<point x="209" y="379"/>
			<point x="264" y="408"/>
			<point x="306" y="408" type="curve" smooth="yes"/>
			<point x="342" y="408"/>
			<point x="355" y="399"/>
		</contour>
	</outline>
</glyph>
<glyph name="ij" format="2">
	<unicode hex="0133"/>
	<advance width="504"/>
	<outline>
		<contour>
			<point x="170" y="321" type="curve" smooth="yes"/>
			<point x="132" y="154" type="line" smooth="yes"/>
			<point x="129" y="141"/>
			<point x="126" y="128"/>
			<point x="123" y="115" type="curve" smooth="yes"/>
			<point x="120" y="101"/>
			<point x="118" y="88"/>
			<point x="117" y="77" type="curve"/>
			<point x="117" y="71"/>
			<point x="117" y="66"/>
			<point x="117" y="60" type="curve"/>
			<point x="120" y="10"/>
			<point x="151" y="-10"/>
			<point x="191" y="-10" type="curve"/>
			<point x="191" y="-10"/>
			<point x="191" y="-10"/>
			<point x="191" y="-10" type="curve"/>
			<point x="270" y="-10"/>
			<point x="322" y="61"/>
			<point x="392" y="163" type="curve"/>
			<point x="373" y="73"/>
			<point x="364" y="12"/>
			<point x="346" y="-56" type="curve" smooth="yes"/>
			<point x="326" y="-133"/>
			<point x="297" y="-156"/>
			<point x="278" y="-159" type="curve"/>
			<point x="276" y="-160"/>
			<point x="274" y="-160"/>
			<point x="272" y="-160" type="curve" smooth="yes"/>
			<point x="245" y="-160"/>
			<point x="250" y="-117"/>
			<point x="201" y="-117" type="curve" smooth="yes"/>
			<point x="188" y="-117"/>
			<point x="172" y="-127"/>
			<point x="172" y="-148" type="curve" smooth="yes"/>
			<point x="172" y="-180"/>
			<point x="210" y="-196"/>
			<point x="254" y="-196" type="curve" smooth="yes"/>
			<point x="257" y="-196"/>
			<point x="261" y="-196"/>
			<point x="264" y="-196" type="curve"/>
			<point x="382" y="-186"/>
			<point x="433" y="-3"/>
			<point x="483" y="234" type="curve" smooth="yes"/>
			<point x="501" y="320" type="line" smooth="yes"/>
			<point x="510" y="360"/>
			<point x="521" y="402"/>
			<point x="521" y="415" type="curve" smooth="yes"/>
			<point x="521" y="429"/>
			<point x="513" y="436"/>
			<point x="500" y="436" type="curve" smooth="yes"/>
			<point x="468" y="436"/>
			<point x="423" y="430"/>
			<point x="376" y="423" type="curve"/>
			<point x="369" y="415"/>
			<point x="371" y="404"/>
			<point x="377" y="395" type="curve"/>
			<point x="417" y="392" type="line" smooth="yes"/>
			<point x="429" y="391"/>
			<point x="435" y="382"/>
			<point x="435" y="372" type="curve" smooth="yes"/>
			<point x="435" y="363"/>
			<point x="433" y="349"/>
			<point x="427" y="321" type="curve" smooth="yes"/>
			<point x="413" y="259" type="line"/>
			<point x="400" y="237"/>
			<point x="388" y="216"/>
			<point x="375" y="196" type="curve"/>
			<point x="326" y="115"/>
			<point x="279" y="50"/>
			<point x="240" y="43" type="curve"/>
			<point x="238" y="42"/>
			<point x="235" y="42"/>
			<point x="233" y="42" type="curve" smooth="yes"/>
			<point x="202" y="42"/>
			<point x="185" y="60"/>
			<point x="199" y="124" type="curve" smooth="yes"/>
			<point x="202" y="137"/>
			<point x="205" y="150"/>
			<point x="208" y="163" type="curve" smooth="yes"/>
			<point x="244" y="320" type="line" smooth="yes"/>
			<point x="253" y="359"/>
			<point x="265" y="398"/>
			<point x="265" y="415" type="curve" smooth="yes"/>
			<point x="265" y="429"/>
			<point x="257" y="436"/>
			<point x="244" y="436" type="curve" smooth="yes"/>
			<point x="212" y="436"/>
			<point x="167" y="429"/>
			<point x="120" y="423" type="curve"/>
			<point x="113" y="415"/>
			<point x="115" y="404"/>
			<point x="121" y="395" type="curve"/>
			<point x="161" y="392" type="line" smooth="yes"/>
			<point x="173" y="391"/>
			<point x="179" y="382"/>
			<point x="179" y="372" type="curve" smooth="yes"/>
			<point x="179" y="370"/>
			<point x="179" y="367"/>
			<point x="178" y="364" type="curve"/>
			<point x="177" y="355"/>
			<point x="175" y="342"/>
		</contour>
		<contour>
			<point x="205" y="570" type="curve" smooth="yes"/>
			<point x="205" y="544"/>
			<point x="227" y="522"/>
			<point x="253" y="522" type="curve" smooth="yes"/>
			<point x="279" y="522"/>
			<point x="301" y="544"/>
			<point x="301" y="570" type="curve" smooth="yes"/>
			<point x="301" y="596"/>
			<point x="279" y="618"/>
			<point x="253" y="618" type="curve" smooth="yes"/>
			<point x="227" y="618"/>
			<point x="205" y="596"/>
		</contour>
		<contour>
			<point x="456" y="570" type="curve" smooth="yes"/>
			<point x="456" y="544"/>
			<point x="478" y="522"/>
			<point x="504" y="522" type="curve" smooth="yes"/>
			<point x="530" y="522"/>
			<point x="552" y="544"/>
			<point x="552" y="570" type="curve" smooth="yes"/>
			<point x="552" y="596"/>
			<point x="530" y="618"/>
			<point x="504" y="618" type="curve" smooth="yes"/>
			<point x="478" y="618"/>
			<point x="456" y="596"/>
		</contour>
	</outline>
</glyph>
<glyph name="kgreenlandic" format="2">
	<unicode hex="0138"/>
	<advance width="506"/>
	<outline>
		<contour>
			<point x="432" y="368" type="curve" smooth="yes"/>
			<point x="445" y="368"/>
			<point x="451" y="365"/>
			<point x="457" y="361" type="curve"/>
			<point x="464" y="358"/>
			<point name=".hr01" x="471" y="354"/>
			<point x="488" y="354" type="curve" smooth="yes"/>
			<point x="499" y="354"/>
			<point x="519" y="365"/>
			<point x="529" y="383" type="curve"/>
			<point x="532" y="389"/>
			<point x="534" y="396"/>
			<point x="534" y="404" type="curve" smooth="yes"/>
			<point x="534" y="432"/>
			<point x="512" y="439"/>
			<point x="485" y="439" type="curve" smooth="yes"/>
			<point x="453" y="439"/>
			<point x="395" y="401"/>
			<point x="330" y="337" type="curve" smooth="yes"/>
			<point x="284" y="292" type="line" smooth="yes"/>
			<point x="277" y="285"/>
			<point x="271" y="279"/>
			<point x="264" y="272" type="curve"/>
			<point x="250" y="256"/>
			<point x="236" y="241"/>
			<point x="215" y="241" type="curve"/>
			<point x="220" y="264"/>
			<point x="226" y="288"/>
			<point x="231" y="311" type="curve" smooth="yes"/>
			<point x="233" y="320" type="line" smooth="yes"/>
			<point x="242" y="359"/>
			<point x="256" y="398"/>
			<point x="256" y="415" type="curve" smooth="yes"/>
			<point x="256" y="429"/>
			<point name=".hr02" x="248" y="436"/>
			<point x="235" y="436" type="curve" smooth="yes"/>
			<point x="203" y="436"/>
			<point x="156" y="429"/>
			<point x="109" y="423" type="curve"/>
			<point x="102" y="415"/>
			<point x="104" y="404"/>
			<point x="110" y="395" type="curve"/>
			<point x="150" y="392" type="line" smooth="yes"/>
			<point x="162" y="391"/>
			<point x="168" y="382"/>
			<point x="168" y="372" type="curve" smooth="yes"/>
			<point x="168" y="363"/>
			<point x="165" y="350"/>
			<point x="159" y="322" type="curve" smooth="yes"/>
			<point x="103" y="72" type="line" smooth="yes"/>
			<point x="98" y="52"/>
			<point x="90" y="27"/>
			<point x="90" y="17" type="curve" smooth="yes"/>
			<point x="90" y="1"/>
			<point x="99" y="-10"/>
			<point x="131" y="-10" type="curve" smooth="yes"/>
			<point x="134" y="-10"/>
			<point x="138" y="-10"/>
			<point x="140" y="-9" type="curve"/>
			<point x="169" y="-2"/>
			<point x="169" y="38"/>
			<point x="177" y="72" type="curve"/>
			<point x="178" y="75"/>
			<point x="178" y="78"/>
			<point x="179" y="82" type="curve" smooth="yes"/>
			<point x="187" y="117"/>
			<point x="195" y="152"/>
			<point x="203" y="187" type="curve"/>
			<point x="210" y="197"/>
			<point x="211" y="205"/>
			<point x="224" y="205" type="curve" smooth="yes"/>
			<point x="233" y="205"/>
			<point x="242" y="198"/>
			<point x="244" y="193" type="curve"/>
			<point x="246" y="190"/>
			<point x="247" y="187"/>
			<point x="249" y="184" type="curve"/>
			<point x="268" y="153"/>
			<point x="286" y="122"/>
			<point x="305" y="91" type="curve"/>
			<point x="310" y="82"/>
			<point x="315" y="74"/>
			<point x="320" y="65" type="curve"/>
			<point x="351" y="13"/>
			<point x="361" y="-7"/>
			<point x="387" y="-10" type="curve"/>
			<point x="390" y="-10"/>
			<point x="392" y="-10"/>
			<point x="395" y="-10" type="curve" smooth="yes"/>
			<point x="442" y="-10"/>
			<point x="478" y="18"/>
			<point x="501" y="62" type="curve"/>
			<point x="494" y="70"/>
			<point x="487" y="76"/>
			<point x="476" y="76" type="curve"/>
			<point x="460" y="51"/>
			<point x="436" y="36"/>
			<point x="425" y="36" type="curve" smooth="yes"/>
			<point x="411" y="36"/>
			<point x="413" y="47"/>
			<point x="394" y="80" type="curve" smooth="yes"/>
			<point x="373" y="117"/>
			<point x="351" y="155"/>
			<point x="330" y="192" type="curve" smooth="yes"/>
			<point x="318" y="212"/>
			<point x="307" y="232"/>
			<point x="295" y="252" type="curve"/>
			<point x="295" y="252" type="line"/>
			<point x="346" y="306" type="line"/>
			<point x="355" y="315"/>
			<point x="362" y="323"/>
			<point x="369" y="330" type="curve" smooth="yes"/>
			<point x="400" y="360"/>
			<point name=".hr03" x="416" y="368"/>
		</contour>
	</outline>
</glyph>
<glyph name="lacute" format="2">
	<unicode hex="013A"/>
	<advance width="266"/>
	<outline>
		<contour>
			<point x="206" y="563" type="curve" smooth="yes"/>
			<point x="107" y="119" type="line" smooth="yes"/>
			<point x="101" y="92"/>
			<point x="95" y="64"/>
			<point x="94" y="45" type="curve"/>
			<point x="93" y="41"/>
			<point x="93" y="37"/>
			<point x="93" y="34" type="curve" smooth="yes"/>
			<point x="93" y="15"/>
			<point x="98" y="-10"/>
			<point x="135" y="-10" type="curve" smooth="yes"/>
			<point x="180" y="-10"/>
			<point x="235" y="16"/>
			<point x="280" y="91" type="curve"/>
			<point x="276" y="101"/>
			<point x="271" y="108"/>
			<point x="258" y="108" type="curve"/>
			<point x="228" y="72"/>
			<point x="196" y="50"/>
			<point x="184" y="50" type="curve" smooth="yes"/>
			<point x="176" y="50"/>
			<point x="172" y="56"/>
			<point x="172" y="64" type="curve" smooth="yes"/>
			<point x="172" y="72"/>
			<point x="175" y="87"/>
			<point x="184" y="127" type="curve" smooth="yes"/>
			<point x="286" y="583" type="line"/>
			<point x="286" y="583" type="line"/>
			<point x="297" y="629"/>
			<point x="305" y="663"/>
			<point x="309" y="679" type="curve"/>
			<point x="310" y="685"/>
			<point x="311" y="688"/>
			<point x="311" y="688" type="curve"/>
			<point x="311" y="695"/>
			<point x="308" y="698"/>
			<point x="299" y="698" type="curve"/>
			<point x="296" y="697"/>
			<point x="292" y="696"/>
			<point x="288" y="695" type="curve"/>
			<point x="256" y="685"/>
			<point x="195" y="675"/>
			<point x="159" y="672" type="curve"/>
			<point x="158" y="664"/>
			<point x="157" y="656"/>
			<point x="156" y="648" type="curve"/>
			<point x="156" y="647"/>
			<point x="156" y="645"/>
			<point x="157" y="644" type="curve"/>
			<point x="158" y="644"/>
			<point x="159" y="643"/>
			<point x="161" y="643" type="curve"/>
			<point x="171" y="642"/>
			<point x="182" y="642"/>
			<point x="192" y="641" type="curve"/>
			<point x="205" y="641"/>
			<point x="213" y="635"/>
			<point x="213" y="613" type="curve" smooth="yes"/>
			<point x="213" y="602"/>
			<point x="211" y="585"/>
		</contour>
		<contour>
			<point x="354" y="845" type="curve"/>
			<point x="307" y="817"/>
			<point x="260" y="789"/>
			<point x="213" y="761" type="curve"/>
			<point x="210" y="759"/>
			<point x="206" y="757"/>
			<point x="204" y="755" type="curve"/>
			<point x="196" y="748"/>
			<point x="192" y="743"/>
			<point x="192" y="736" type="curve" smooth="yes"/>
			<point x="192" y="728"/>
			<point x="196" y="725"/>
			<point x="204" y="725" type="curve" smooth="yes"/>
			<point x="206" y="725"/>
			<point x="208" y="725"/>
			<point x="210" y="726" type="curve"/>
			<point x="220" y="727"/>
			<point x="233" y="731"/>
			<point x="250" y="737" type="curve" smooth="yes"/>
			<point x="401" y="793" type="line"/>
			<point x="419" y="800" type="line"/>
			<point name=".hr01" x="397" y="815"/>
			<point x="376" y="830"/>
		</contour>
	</outline>
</glyph>
<glyph name="Lcaron" format="2">
	<unicode hex="013D"/>
	<advance width="519"/>
	<outline>
		<contour>
			<point x="342" y="39" type="curve" smooth="yes"/>
			<point x="250" y="39" type="line"/>
			<point x="232" y="39" type="line" smooth="yes"/>
			<point x="208" y="39"/>
			<point x="195" y="53"/>
			<point x="195" y="76" type="curve" smooth="yes"/>
			<point x="195" y="80"/>
			<point x="195" y="84"/>
			<point x="196" y="89" type="curve" smooth="yes"/>
			<point x="282" y="531" type="line"/>
			<point x="285" y="543"/>
			<point x="287" y="556"/>
			<point x="290" y="569" type="curve" smooth="yes"/>
			<point x="296" y="597"/>
			<point x="311" y="611"/>
			<point x="352" y="615" type="curve" smooth="yes"/>
			<point x="362" y="616"/>
			<point x="373" y="617"/>
			<point x="383" y="618" type="curve"/>
			<point x="387" y="622"/>
			<point x="389" y="638"/>
			<point x="385" y="647" type="curve"/>
			<point x="346" y="646"/>
			<point x="314" y="645"/>
			<point x="282" y="645" type="curve" smooth="yes"/>
			<point x="276" y="645"/>
			<point x="271" y="645"/>
			<point x="265" y="645" type="curve" smooth="yes"/>
			<point x="227" y="645"/>
			<point x="182" y="646"/>
			<point x="138" y="647" type="curve"/>
			<point x="135" y="643"/>
			<point x="132" y="623"/>
			<point x="135" y="618" type="curve"/>
			<point x="146" y="617"/>
			<point x="158" y="616"/>
			<point x="169" y="615" type="curve" smooth="yes"/>
			<point x="208" y="612"/>
			<point x="219" y="599"/>
			<point x="213" y="569" type="curve"/>
			<point x="211" y="556"/>
			<point x="208" y="544"/>
			<point x="206" y="531" type="curve"/>
			<point x="124" y="114" type="line"/>
			<point x="122" y="101"/>
			<point x="119" y="89"/>
			<point x="117" y="76" type="curve" smooth="yes"/>
			<point x="112" y="48"/>
			<point x="96" y="34"/>
			<point x="55" y="30" type="curve" smooth="yes"/>
			<point x="45" y="29"/>
			<point x="34" y="28"/>
			<point x="24" y="27" type="curve"/>
			<point x="20" y="23"/>
			<point x="18" y="7"/>
			<point x="22" y="-2" type="curve"/>
			<point x="67" y="-1"/>
			<point x="103" y="0"/>
			<point x="142" y="0" type="curve" smooth="yes"/>
			<point x="148" y="0"/>
			<point x="154" y="0"/>
			<point x="160" y="0" type="curve" smooth="yes"/>
			<point x="345" y="0" type="line"/>
			<point x="345" y="0" type="line"/>
			<point x="371" y="0"/>
			<point x="459" y="-2"/>
			<point x="459" y="-2" type="curve"/>
			<point x="474" y="54"/>
			<point x="496" y="111"/>
			<point x="517" y="163" type="curve"/>
			<point x="511" y="169"/>
			<point x="499" y="172"/>
			<point x="489" y="170" type="curve"/>
			<point x="461" y="109"/>
			<point x="415" y="39"/>
		</contour>
		<contour>
			<point x="533" y="698" type="curve" smooth="yes"/>
			<point x="503" y="698"/>
			<point x="485" y="680"/>
			<point x="482" y="664" type="curve"/>
			<point x="478" y="648"/>
			<point x="479" y="626"/>
			<point x="520" y="626" type="curve" smooth="yes"/>
			<point x="528" y="626"/>
			<point x="532" y="618"/>
			<point x="530" y="605" type="curve"/>
			<point x="525" y="582"/>
			<point x="497" y="545"/>
			<point x="453" y="536" type="curve"/>
			<point x="454" y="519" type="line"/>
			<point x="526" y="527"/>
			<point x="571" y="589"/>
			<point x="578" y="625" type="curve" smooth="yes"/>
			<point x="585" y="661"/>
			<point x="571" y="698"/>
		</contour>
	</outline>
</glyph>
<glyph name="lcaron" format="2">
	<unicode hex="013E"/>
	<advance width="290"/>
	<outline>
		<contour>
			<point x="206" y="563" type="curve" smooth="yes"/>
			<point x="107" y="119" type="line" smooth="yes"/>
			<point x="101" y="92"/>
			<point x="95" y="64"/>
			<point x="94" y="45" type="curve"/>
			<point x="93" y="41"/>
			<point x="93" y="37"/>
			<point x="93" y="34" type="curve" smooth="yes"/>
			<point x="93" y="15"/>
			<point x="98" y="-10"/>
			<point x="135" y="-10" type="curve" smooth="yes"/>
			<point x="180" y="-10"/>
			<point x="235" y="16"/>
			<point x="280" y="91" type="curve"/>
			<point x="276" y="101"/>
			<point x="271" y="108"/>
			<point x="258" y="108" type="curve"/>
			<point x="228" y="72"/>
			<point x="196" y="50"/>
			<point x="184" y="50" type="curve" smooth="yes"/>
			<point x="176" y="50"/>
			<point x="172" y="56"/>
			<point x="172" y="64" type="curve" smooth="yes"/>
			<point x="172" y="72"/>
			<point x="175" y="87"/>
			<point x="184" y="127" type="curve" smooth="yes"/>
			<point x="286" y="583" type="line"/>
			<point x="286" y="583" type="line"/>
			<point x="297" y="629"/>
			<point x="305" y="663"/>
			<point x="309" y="679" type="curve"/>
			<point x="310" y="685"/>
			<point x="311" y="688"/>
			<point x="311" y="688" type="curve"/>
			<point x="311" y="695"/>
			<point x="308" y="698"/>
			<point x="299" y="698" type="curve"/>
			<point x="296" y="697"/>
			<point x="292" y="696"/>
			<point x="288" y="695" type="curve"/>
			<point x="256" y="685"/>
			<point x="195" y="675"/>
			<point x="159" y="672" type="curve"/>
			<point x="158" y="664"/>
			<point x="157" y="656"/>
			<point x="156" y="648" type="curve"/>
			<point x="156" y="647"/>
			<point x="156" y="645"/>
			<point x="157" y="644" type="curve"/>
			<point x="158" y="644"/>
			<point x="159" y="643"/>
			<point x="161" y="643" type="curve"/>
			<point x="171" y="642"/>
			<point x="182" y="642"/>
			<point x="192" y="641" type="curve"/>
			<point x="205" y="641"/>
			<point x="213" y="635"/>
			<point x="213" y="613" type="curve" smooth="yes"/>
			<point x="213" y="602"/>
			<point x="211" y="585"/>
		</contour>
		<contour>
			<point x="398" y="698" type="curve" smooth="yes"/>
			<point x="368" y="698"/>
			<point x="350" y="680"/>
			<point x="347" y="664" type="curve"/>
			<point x="343" y="648"/>
			<point x="344" y="626"/>
			<point name=".hr01" x="385" y="626" type="curve" smooth="yes"/>
			<point x="393" y="626"/>
			<point x="397" y="618"/>
			<point x="395" y="605" type="curve"/>
			<point x="390" y="582"/>
			<point x="362" y="545"/>
			<point x="318" y="536" type="curve"/>
			<point x="319" y="519" type="line"/>
			<point x="391" y="527"/>
			<point x="436" y="589"/>
			<point x="443" y="625" type="curve" smooth="yes"/>
			<point x="450" y="661"/>
			<point x="436" y="698"/>
		</contour>
	</outline>
</glyph>
